<mxfile host="65bd71144e">
    <diagram id="U5u06XxI8wp0XOnGAlwW" name="Page-1">
        <mxGraphModel dx="2230" dy="1298" grid="1" gridSize="10" guides="1" tooltips="1" connect="1" arrows="1" fold="1" page="1" pageScale="1" pageWidth="827" pageHeight="1169" math="0" shadow="0">
            <root>
                <mxCell id="0"/>
                <mxCell id="1" parent="0"/>
                <mxCell id="7" value="" style="edgeStyle=none;html=1;" parent="1" source="2" target="6" edge="1">
                    <mxGeometry relative="1" as="geometry"/>
                </mxCell>
                <mxCell id="12" value="" style="edgeStyle=none;html=1;" parent="1" source="2" target="10" edge="1">
                    <mxGeometry relative="1" as="geometry"/>
                </mxCell>
                <mxCell id="2" value="订阅PCL" style="rounded=1;whiteSpace=wrap;html=1;" parent="1" vertex="1">
                    <mxGeometry x="90" y="90" width="120" height="40" as="geometry"/>
                </mxCell>
                <mxCell id="4" value="&lt;font style=&quot;font-size: 24px;&quot;&gt;主线程部分&lt;br&gt;laserMapping.cpp&lt;br&gt;&lt;/font&gt;" style="text;html=1;strokeColor=none;fillColor=none;align=center;verticalAlign=middle;whiteSpace=wrap;rounded=0;" parent="1" vertex="1">
                    <mxGeometry x="5" y="5" width="290" height="65" as="geometry"/>
                </mxCell>
                <mxCell id="14" value="" style="edgeStyle=none;html=1;" parent="1" source="6" target="13" edge="1">
                    <mxGeometry relative="1" as="geometry"/>
                </mxCell>
                <mxCell id="16" value="" style="edgeStyle=none;html=1;" parent="1" source="6" target="15" edge="1">
                    <mxGeometry relative="1" as="geometry"/>
                </mxCell>
                <mxCell id="6" value="订阅IMU" style="rounded=1;whiteSpace=wrap;html=1;" parent="1" vertex="1">
                    <mxGeometry x="90" y="170" width="120" height="30" as="geometry"/>
                </mxCell>
                <mxCell id="10" value="livox_pcl_cbk" style="rounded=1;whiteSpace=wrap;html=1;" parent="1" vertex="1">
                    <mxGeometry x="250" y="95" width="120" height="30" as="geometry"/>
                </mxCell>
                <mxCell id="65" value="" style="edgeStyle=none;html=1;" parent="1" source="13" target="64" edge="1">
                    <mxGeometry relative="1" as="geometry"/>
                </mxCell>
                <mxCell id="13" value="imu_cbk" style="rounded=1;whiteSpace=wrap;html=1;" parent="1" vertex="1">
                    <mxGeometry x="250" y="170" width="120" height="30" as="geometry"/>
                </mxCell>
                <mxCell id="18" value="" style="edgeStyle=none;html=1;" parent="1" source="15" target="17" edge="1">
                    <mxGeometry relative="1" as="geometry"/>
                </mxCell>
                <mxCell id="20" value="" style="edgeStyle=none;html=1;" parent="1" source="15" target="19" edge="1">
                    <mxGeometry relative="1" as="geometry"/>
                </mxCell>
                <mxCell id="15" value="new ImuProcess()" style="rounded=1;whiteSpace=wrap;html=1;" parent="1" vertex="1">
                    <mxGeometry x="90" y="235" width="120" height="30" as="geometry"/>
                </mxCell>
                <mxCell id="17" value="构造函数：&lt;br&gt;设定各种协方差、与LiDAR外参等" style="rounded=1;whiteSpace=wrap;html=1;" parent="1" vertex="1">
                    <mxGeometry x="-200" y="235" width="210" height="30" as="geometry"/>
                </mxCell>
                <mxCell id="24" value="Y" style="edgeStyle=none;html=1;" parent="1" source="19" target="23" edge="1">
                    <mxGeometry relative="1" as="geometry"/>
                </mxCell>
                <mxCell id="26" value="" style="edgeStyle=none;html=1;" parent="1" target="25" edge="1">
                    <mxGeometry relative="1" as="geometry">
                        <mxPoint x="150" y="465" as="sourcePoint"/>
                    </mxGeometry>
                </mxCell>
                <mxCell id="75" value="" style="edgeStyle=none;html=1;" parent="1" source="19" target="74" edge="1">
                    <mxGeometry relative="1" as="geometry"/>
                </mxCell>
                <mxCell id="19" value="flg_first_scan?" style="rhombus;whiteSpace=wrap;html=1;" parent="1" vertex="1">
                    <mxGeometry x="85" y="315" width="130" height="80" as="geometry"/>
                </mxCell>
                <mxCell id="23" value="记录启动时间&lt;br&gt;获取第一帧lidar" style="rounded=1;whiteSpace=wrap;html=1;" parent="1" vertex="1">
                    <mxGeometry x="300" y="325" width="120" height="60" as="geometry"/>
                </mxCell>
                <mxCell id="31" value="" style="edgeStyle=none;html=1;" parent="1" source="25" target="30" edge="1">
                    <mxGeometry relative="1" as="geometry"/>
                </mxCell>
                <mxCell id="72" style="edgeStyle=none;html=1;exitX=0;exitY=0.5;exitDx=0;exitDy=0;entryX=1;entryY=0.5;entryDx=0;entryDy=0;" parent="1" source="25" target="67" edge="1">
                    <mxGeometry relative="1" as="geometry"/>
                </mxCell>
                <mxCell id="25" value="p_imu1-&amp;gt;Process()&lt;br&gt;获取 测量、kf、去畸变点" style="rounded=1;whiteSpace=wrap;html=1;" parent="1" vertex="1">
                    <mxGeometry x="50" y="505" width="200" height="70" as="geometry"/>
                </mxCell>
                <mxCell id="33" value="" style="edgeStyle=none;html=1;" parent="1" source="30" target="32" edge="1">
                    <mxGeometry relative="1" as="geometry"/>
                </mxCell>
                <mxCell id="30" value="获取当前状态 &lt;br&gt;state_point" style="rounded=1;whiteSpace=wrap;html=1;" parent="1" vertex="1">
                    <mxGeometry x="90" y="615" width="120" height="50" as="geometry"/>
                </mxCell>
                <mxCell id="35" value="" style="edgeStyle=none;html=1;" parent="1" source="32" target="34" edge="1">
                    <mxGeometry relative="1" as="geometry"/>
                </mxCell>
                <mxCell id="32" value="0.1秒内完成&lt;br&gt;ESKF初始化？" style="rounded=1;whiteSpace=wrap;html=1;" parent="1" vertex="1">
                    <mxGeometry x="90" y="715" width="120" height="50" as="geometry"/>
                </mxCell>
                <mxCell id="39" value="" style="edgeStyle=none;html=1;entryX=0.5;entryY=0;entryDx=0;entryDy=0;" parent="1" source="34" target="43" edge="1">
                    <mxGeometry relative="1" as="geometry">
                        <mxPoint x="150" y="915" as="targetPoint"/>
                        <Array as="points">
                            <mxPoint x="150" y="885"/>
                        </Array>
                    </mxGeometry>
                </mxCell>
                <mxCell id="258" style="edgeStyle=none;html=1;fontSize=24;entryX=0;entryY=0.5;entryDx=0;entryDy=0;exitX=1;exitY=0.5;exitDx=0;exitDy=0;" edge="1" parent="1" source="34" target="242">
                    <mxGeometry relative="1" as="geometry">
                        <mxPoint x="320" y="840" as="targetPoint"/>
                        <Array as="points">
                            <mxPoint x="310" y="840"/>
                            <mxPoint x="460" y="220"/>
                            <mxPoint x="1310" y="220"/>
                        </Array>
                    </mxGeometry>
                </mxCell>
                <mxCell id="34" value="更新localmap边界&lt;br&gt;lasermap_fov_segment()" style="rounded=1;whiteSpace=wrap;html=1;" parent="1" vertex="1">
                    <mxGeometry x="60" y="815" width="180" height="50" as="geometry"/>
                </mxCell>
                <mxCell id="42" value="" style="edgeStyle=none;html=1;exitX=0.5;exitY=1;exitDx=0;exitDy=0;" parent="1" source="43" target="40" edge="1">
                    <mxGeometry relative="1" as="geometry">
                        <mxPoint x="150" y="965" as="sourcePoint"/>
                    </mxGeometry>
                </mxCell>
                <mxCell id="45" value="" style="edgeStyle=none;html=1;" parent="1" source="40" target="44" edge="1">
                    <mxGeometry relative="1" as="geometry"/>
                </mxCell>
                <mxCell id="109" style="edgeStyle=none;html=1;exitX=0.75;exitY=0;exitDx=0;exitDy=0;entryX=0;entryY=0.5;entryDx=0;entryDy=0;" parent="1" source="40" target="106" edge="1">
                    <mxGeometry relative="1" as="geometry">
                        <Array as="points">
                            <mxPoint x="290" y="965"/>
                            <mxPoint x="290" y="515"/>
                        </Array>
                    </mxGeometry>
                </mxCell>
                <mxCell id="40" value="&lt;b&gt;update_iterated_dyn_share_modified&lt;br&gt;（TODO）&lt;/b&gt;" style="rounded=1;whiteSpace=wrap;html=1;" parent="1" vertex="1">
                    <mxGeometry y="985" width="300" height="50" as="geometry"/>
                </mxCell>
                <mxCell id="257" style="edgeStyle=none;html=1;exitX=1;exitY=0.5;exitDx=0;exitDy=0;entryX=0;entryY=0.5;entryDx=0;entryDy=0;fontSize=24;" edge="1" parent="1" source="43" target="186">
                    <mxGeometry relative="1" as="geometry">
                        <Array as="points">
                            <mxPoint x="320" y="925"/>
                            <mxPoint x="480" y="230"/>
                            <mxPoint x="1260" y="230"/>
                            <mxPoint x="1340" y="540"/>
                        </Array>
                    </mxGeometry>
                </mxCell>
                <mxCell id="43" value="kdtree的初始化？" style="rhombus;whiteSpace=wrap;html=1;" parent="1" vertex="1">
                    <mxGeometry x="85" y="895" width="130" height="60" as="geometry"/>
                </mxCell>
                <mxCell id="256" style="edgeStyle=none;html=1;fontSize=24;entryX=0;entryY=0.5;entryDx=0;entryDy=0;" edge="1" parent="1" source="44" target="215">
                    <mxGeometry relative="1" as="geometry">
                        <mxPoint x="990" y="1180" as="targetPoint"/>
                        <Array as="points">
                            <mxPoint x="280" y="1160"/>
                            <mxPoint x="1240" y="1160"/>
                            <mxPoint x="1310" y="860"/>
                        </Array>
                    </mxGeometry>
                </mxCell>
                <mxCell id="44" value="map_incremental()" style="rounded=1;whiteSpace=wrap;html=1;" parent="1" vertex="1">
                    <mxGeometry x="60" y="1065" width="180" height="50" as="geometry"/>
                </mxCell>
                <mxCell id="54" value="" style="edgeStyle=none;html=1;" parent="1" source="50" target="51" edge="1">
                    <mxGeometry relative="1" as="geometry"/>
                </mxCell>
                <mxCell id="50" value="时间戳的一些变化与处理" style="rounded=1;whiteSpace=wrap;html=1;" parent="1" vertex="1">
                    <mxGeometry x="414" y="40" width="150" height="30" as="geometry"/>
                </mxCell>
                <mxCell id="56" value="" style="edgeStyle=none;html=1;" parent="1" source="51" target="55" edge="1">
                    <mxGeometry relative="1" as="geometry"/>
                </mxCell>
                <mxCell id="51" value="预处理&lt;br&gt;p_pre-&amp;gt;process()" style="rounded=1;whiteSpace=wrap;html=1;" parent="1" vertex="1">
                    <mxGeometry x="414" y="95" width="150" height="30" as="geometry"/>
                </mxCell>
                <mxCell id="52" value="" style="endArrow=classic;html=1;exitX=1;exitY=0.5;exitDx=0;exitDy=0;entryX=0;entryY=0.5;entryDx=0;entryDy=0;" parent="1" source="10" target="50" edge="1">
                    <mxGeometry width="50" height="50" relative="1" as="geometry">
                        <mxPoint x="350" y="90" as="sourcePoint"/>
                        <mxPoint x="400" y="40" as="targetPoint"/>
                    </mxGeometry>
                </mxCell>
                <mxCell id="53" value="" style="endArrow=classic;html=1;exitX=0;exitY=0.5;exitDx=0;exitDy=0;entryX=1;entryY=0.5;entryDx=0;entryDy=0;" parent="1" source="51" target="10" edge="1">
                    <mxGeometry width="50" height="50" relative="1" as="geometry">
                        <mxPoint x="380" y="120" as="sourcePoint"/>
                        <mxPoint x="424" y="65" as="targetPoint"/>
                    </mxGeometry>
                </mxCell>
                <mxCell id="58" value="" style="edgeStyle=none;html=1;" parent="1" source="55" target="57" edge="1">
                    <mxGeometry relative="1" as="geometry"/>
                </mxCell>
                <mxCell id="55" value="根据雷达格式进行转换&lt;br&gt;avia_handler()" style="rounded=1;whiteSpace=wrap;html=1;" parent="1" vertex="1">
                    <mxGeometry x="600" y="95" width="150" height="30" as="geometry"/>
                </mxCell>
                <mxCell id="60" value="" style="edgeStyle=none;html=1;" parent="1" source="57" target="59" edge="1">
                    <mxGeometry relative="1" as="geometry"/>
                </mxCell>
                <mxCell id="57" value="特征提取？&lt;br&gt;（默认否）" style="rhombus;whiteSpace=wrap;html=1;" parent="1" vertex="1">
                    <mxGeometry x="610" y="145" width="130" height="55" as="geometry"/>
                </mxCell>
                <mxCell id="59" value="降采样与数据存储" style="rounded=1;whiteSpace=wrap;html=1;" parent="1" vertex="1">
                    <mxGeometry x="760" y="158" width="120" height="30" as="geometry"/>
                </mxCell>
                <mxCell id="64" value="数据同步&lt;br&gt;存储 imu 到 buffer" style="rounded=1;whiteSpace=wrap;html=1;" parent="1" vertex="1">
                    <mxGeometry x="410" y="170" width="130" height="30" as="geometry"/>
                </mxCell>
                <mxCell id="71" value="" style="edgeStyle=none;html=1;entryX=0.5;entryY=0;entryDx=0;entryDy=0;" parent="1" source="66" target="70" edge="1">
                    <mxGeometry relative="1" as="geometry"/>
                </mxCell>
                <mxCell id="66" value="ImuProcess::IMU_init()" style="rounded=1;whiteSpace=wrap;html=1;" parent="1" vertex="1">
                    <mxGeometry x="-450" y="300" width="150" height="30" as="geometry"/>
                </mxCell>
                <mxCell id="68" value="" style="edgeStyle=none;html=1;entryX=1;entryY=0.5;entryDx=0;entryDy=0;" parent="1" source="67" target="66" edge="1">
                    <mxGeometry relative="1" as="geometry"/>
                </mxCell>
                <mxCell id="83" value="" style="edgeStyle=none;html=1;" parent="1" source="67" target="82" edge="1">
                    <mxGeometry relative="1" as="geometry"/>
                </mxCell>
                <mxCell id="67" value="需要初始化？" style="rhombus;whiteSpace=wrap;html=1;" parent="1" vertex="1">
                    <mxGeometry x="-180" y="370" width="130" height="80" as="geometry"/>
                </mxCell>
                <mxCell id="80" value="" style="edgeStyle=none;html=1;" parent="1" source="70" target="79" edge="1">
                    <mxGeometry relative="1" as="geometry"/>
                </mxCell>
                <mxCell id="70" value="计算角速度、加速度平均值与协方差" style="rounded=1;whiteSpace=wrap;html=1;" parent="1" vertex="1">
                    <mxGeometry x="-490" y="380" width="230" height="30" as="geometry"/>
                </mxCell>
                <mxCell id="76" value="" style="edgeStyle=none;html=1;" parent="1" source="74" target="25" edge="1">
                    <mxGeometry relative="1" as="geometry"/>
                </mxCell>
                <mxCell id="78" value="" style="edgeStyle=none;html=1;" parent="1" source="74" target="77" edge="1">
                    <mxGeometry relative="1" as="geometry"/>
                </mxCell>
                <mxCell id="74" value="数据打包&lt;br&gt;sync_packages()" style="rounded=1;whiteSpace=wrap;html=1;" parent="1" vertex="1">
                    <mxGeometry x="90" y="415" width="120" height="50" as="geometry"/>
                </mxCell>
                <mxCell id="77" value="获得一次lidar和其中的IMU、起止时间" style="rounded=1;whiteSpace=wrap;html=1;" parent="1" vertex="1">
                    <mxGeometry x="280" y="425" width="270" height="30" as="geometry"/>
                </mxCell>
                <mxCell id="79" value="更新当前的状态 kf_state，和协方差" style="rounded=1;whiteSpace=wrap;html=1;" parent="1" vertex="1">
                    <mxGeometry x="-490" y="435" width="230" height="30" as="geometry"/>
                </mxCell>
                <mxCell id="85" value="" style="edgeStyle=none;html=1;exitX=0;exitY=0.5;exitDx=0;exitDy=0;" parent="1" source="82" target="84" edge="1">
                    <mxGeometry relative="1" as="geometry">
                        <mxPoint x="-225" y="545" as="sourcePoint"/>
                    </mxGeometry>
                </mxCell>
                <mxCell id="82" value="去畸变 UndistortPcl" style="rounded=1;whiteSpace=wrap;html=1;" parent="1" vertex="1">
                    <mxGeometry x="-175" y="530" width="120" height="30" as="geometry"/>
                </mxCell>
                <mxCell id="87" value="" style="edgeStyle=none;html=1;" parent="1" source="84" target="86" edge="1">
                    <mxGeometry relative="1" as="geometry"/>
                </mxCell>
                <mxCell id="84" value="根据每个点的时间戳对点进行排序" style="rounded=1;whiteSpace=wrap;html=1;" parent="1" vertex="1">
                    <mxGeometry x="-480" y="530" width="210" height="30" as="geometry"/>
                </mxCell>
                <mxCell id="89" value="" style="edgeStyle=none;html=1;" parent="1" source="86" target="88" edge="1">
                    <mxGeometry relative="1" as="geometry"/>
                </mxCell>
                <mxCell id="86" value="两个IMU平均下，得到角/加速度" style="rounded=1;whiteSpace=wrap;html=1;" parent="1" vertex="1">
                    <mxGeometry x="-480" y="580" width="210" height="30" as="geometry"/>
                </mxCell>
                <mxCell id="91" value="" style="edgeStyle=none;html=1;" parent="1" source="88" target="90" edge="1">
                    <mxGeometry relative="1" as="geometry"/>
                </mxCell>
                <mxCell id="95" value="" style="edgeStyle=none;html=1;" parent="1" source="88" target="92" edge="1">
                    <mxGeometry relative="1" as="geometry"/>
                </mxCell>
                <mxCell id="88" value="IMU前向传播&lt;br&gt;kf_state.predict(dt, Q, in)" style="rounded=1;whiteSpace=wrap;html=1;" parent="1" vertex="1">
                    <mxGeometry x="-480" y="640" width="210" height="40" as="geometry"/>
                </mxCell>
                <mxCell id="102" value="" style="edgeStyle=none;html=1;entryX=0.75;entryY=1;entryDx=0;entryDy=0;" parent="1" source="90" target="101" edge="1">
                    <mxGeometry relative="1" as="geometry"/>
                </mxCell>
                <mxCell id="90" value="predict()" style="rounded=1;whiteSpace=wrap;html=1;" parent="1" vertex="1">
                    <mxGeometry x="-700" y="645" width="140" height="30" as="geometry"/>
                </mxCell>
                <mxCell id="94" value="" style="edgeStyle=none;html=1;" parent="1" source="92" target="93" edge="1">
                    <mxGeometry relative="1" as="geometry"/>
                </mxCell>
                <mxCell id="97" value="" style="edgeStyle=none;html=1;" parent="1" source="92" target="96" edge="1">
                    <mxGeometry relative="1" as="geometry"/>
                </mxCell>
                <mxCell id="92" value="得到当前时刻的 Pose6D" style="rounded=1;whiteSpace=wrap;html=1;fontStyle=0" parent="1" vertex="1">
                    <mxGeometry x="-480" y="710" width="210" height="30" as="geometry"/>
                </mxCell>
                <mxCell id="93" value="Pose6D.msg&lt;br&gt;offset_time,&lt;br&gt;acc, gyro,&lt;br&gt;vel, pos, rot" style="shape=parallelogram;perimeter=parallelogramPerimeter;whiteSpace=wrap;html=1;fixedSize=1;" parent="1" vertex="1">
                    <mxGeometry x="-700" y="695" width="120" height="60" as="geometry"/>
                </mxCell>
                <mxCell id="99" value="" style="edgeStyle=none;html=1;" parent="1" source="96" target="98" edge="1">
                    <mxGeometry relative="1" as="geometry"/>
                </mxCell>
                <mxCell id="96" value="得到整个lidar扫描过程中，每个IMU时刻对应的 Pose6D" style="rounded=1;whiteSpace=wrap;html=1;" parent="1" vertex="1">
                    <mxGeometry x="-480" y="770" width="210" height="30" as="geometry"/>
                </mxCell>
                <mxCell id="98" value="对每个lidar点P_i，根据前后两个IMU进行去畸变。" style="rounded=1;whiteSpace=wrap;html=1;" parent="1" vertex="1">
                    <mxGeometry x="-480" y="820" width="210" height="30" as="geometry"/>
                </mxCell>
                <mxCell id="100" value="" style="endArrow=classic;html=1;exitX=1;exitY=0.5;exitDx=0;exitDy=0;entryX=-0.008;entryY=0.57;entryDx=0;entryDy=0;entryPerimeter=0;" parent="1" source="82" target="25" edge="1">
                    <mxGeometry width="50" height="50" relative="1" as="geometry">
                        <mxPoint x="-50" y="615" as="sourcePoint"/>
                        <mxPoint y="565" as="targetPoint"/>
                    </mxGeometry>
                </mxCell>
                <mxCell id="101" value="计算 f, Fx, Fw" style="rounded=1;whiteSpace=wrap;html=1;" parent="1" vertex="1">
                    <mxGeometry x="-790" y="570" width="210" height="30" as="geometry"/>
                </mxCell>
                <mxCell id="103" value="更新状态： x = x + f*dt&lt;br&gt;更新协方差： P=Fx P Fx' + ..." style="rounded=1;whiteSpace=wrap;html=1;" parent="1" vertex="1">
                    <mxGeometry x="-790" y="520" width="210" height="30" as="geometry"/>
                </mxCell>
                <mxCell id="105" value="" style="edgeStyle=none;html=1;entryX=0.75;entryY=1;entryDx=0;entryDy=0;exitX=0.75;exitY=0;exitDx=0;exitDy=0;" parent="1" source="101" target="103" edge="1">
                    <mxGeometry relative="1" as="geometry">
                        <mxPoint x="-620.625" y="655" as="sourcePoint"/>
                        <mxPoint x="-622.5000000000001" y="610" as="targetPoint"/>
                    </mxGeometry>
                </mxCell>
                <mxCell id="111" value="" style="edgeStyle=none;html=1;" parent="1" source="106" target="110" edge="1">
                    <mxGeometry relative="1" as="geometry"/>
                </mxCell>
                <mxCell id="106" value="迭代前参数初始化" style="rounded=1;whiteSpace=wrap;html=1;" parent="1" vertex="1">
                    <mxGeometry x="490" y="485" width="120" height="30" as="geometry"/>
                </mxCell>
                <mxCell id="113" value="" style="edgeStyle=none;html=1;" parent="1" source="110" target="112" edge="1">
                    <mxGeometry relative="1" as="geometry"/>
                </mxCell>
                <mxCell id="110" value="开始迭代" style="rounded=1;whiteSpace=wrap;html=1;" parent="1" vertex="1">
                    <mxGeometry x="490" y="545" width="120" height="30" as="geometry"/>
                </mxCell>
                <mxCell id="153" value="" style="edgeStyle=none;html=1;entryX=0.75;entryY=0;entryDx=0;entryDy=0;" parent="1" source="112" target="152" edge="1">
                    <mxGeometry relative="1" as="geometry">
                        <mxPoint x="550" y="695" as="targetPoint"/>
                    </mxGeometry>
                </mxCell>
                <mxCell id="112" value="计算残差与H矩阵&lt;br&gt;h_share_model()" style="rounded=1;whiteSpace=wrap;html=1;" parent="1" vertex="1">
                    <mxGeometry x="490" y="605" width="120" height="50" as="geometry"/>
                </mxCell>
                <mxCell id="117" value="" style="edgeStyle=none;html=1;" parent="1" source="114" target="116" edge="1">
                    <mxGeometry relative="1" as="geometry"/>
                </mxCell>
                <mxCell id="114" value="启用多线程计算" style="rounded=1;whiteSpace=wrap;html=1;" parent="1" vertex="1">
                    <mxGeometry x="700" y="285" width="210" height="30" as="geometry"/>
                </mxCell>
                <mxCell id="115" value="" style="endArrow=classic;html=1;entryX=0;entryY=0.5;entryDx=0;entryDy=0;exitX=0.75;exitY=0;exitDx=0;exitDy=0;" parent="1" source="112" target="114" edge="1">
                    <mxGeometry width="50" height="50" relative="1" as="geometry">
                        <mxPoint x="670" y="465" as="sourcePoint"/>
                        <mxPoint x="720" y="415" as="targetPoint"/>
                        <Array as="points">
                            <mxPoint x="630" y="585"/>
                            <mxPoint x="630" y="300"/>
                        </Array>
                    </mxGeometry>
                </mxCell>
                <mxCell id="119" value="" style="edgeStyle=none;html=1;" parent="1" source="116" target="118" edge="1">
                    <mxGeometry relative="1" as="geometry"/>
                </mxCell>
                <mxCell id="116" value="对于每个下采样的特征点，循环" style="rounded=1;whiteSpace=wrap;html=1;" parent="1" vertex="1">
                    <mxGeometry x="700" y="345" width="210" height="30" as="geometry"/>
                </mxCell>
                <mxCell id="121" value="" style="edgeStyle=none;html=1;" parent="1" source="118" target="120" edge="1">
                    <mxGeometry relative="1" as="geometry"/>
                </mxCell>
                <mxCell id="118" value="采用ikdtree进行搜索近邻点" style="rounded=1;whiteSpace=wrap;html=1;" parent="1" vertex="1">
                    <mxGeometry x="700" y="395" width="210" height="30" as="geometry"/>
                </mxCell>
                <mxCell id="123" value="" style="edgeStyle=none;html=1;" parent="1" source="120" target="122" edge="1">
                    <mxGeometry relative="1" as="geometry"/>
                </mxCell>
                <mxCell id="132" value="" style="edgeStyle=none;html=1;entryX=0.5;entryY=0;entryDx=0;entryDy=0;" parent="1" source="120" target="133" edge="1">
                    <mxGeometry relative="1" as="geometry">
                        <mxPoint x="805" y="580" as="targetPoint"/>
                    </mxGeometry>
                </mxCell>
                <mxCell id="120" value="如果满足平面条件" style="rhombus;whiteSpace=wrap;html=1;" parent="1" vertex="1">
                    <mxGeometry x="710" y="455" width="190" height="50" as="geometry"/>
                </mxCell>
                <mxCell id="125" value="" style="edgeStyle=none;html=1;" parent="1" source="122" target="124" edge="1">
                    <mxGeometry relative="1" as="geometry"/>
                </mxCell>
                <mxCell id="122" value="esti_plane" style="rounded=1;whiteSpace=wrap;html=1;" parent="1" vertex="1">
                    <mxGeometry x="950" y="467.5" width="120" height="25" as="geometry"/>
                </mxCell>
                <mxCell id="130" value="" style="edgeStyle=none;html=1;" parent="1" source="124" target="129" edge="1">
                    <mxGeometry relative="1" as="geometry"/>
                </mxCell>
                <mxCell id="124" value="计算Ax=b&lt;br&gt;" style="rounded=1;whiteSpace=wrap;html=1;" parent="1" vertex="1">
                    <mxGeometry x="950" y="515" width="120" height="25" as="geometry"/>
                </mxCell>
                <mxCell id="126" value="其中A为所有近邻点，b为-1，求解的x即为平面方程的A/Dx+B/Dy+C/Dz+1=0的系数" style="text;html=1;strokeColor=none;fillColor=none;align=center;verticalAlign=middle;whiteSpace=wrap;rounded=0;" parent="1" vertex="1">
                    <mxGeometry x="1011" y="555" width="230" height="30" as="geometry"/>
                </mxCell>
                <mxCell id="129" value="如果不满足方程(误差0.1)，则不是平面" style="rounded=1;whiteSpace=wrap;html=1;" parent="1" vertex="1">
                    <mxGeometry x="950" y="605" width="120" height="30" as="geometry"/>
                </mxCell>
                <mxCell id="137" value="" style="edgeStyle=none;html=1;" parent="1" source="133" target="136" edge="1">
                    <mxGeometry relative="1" as="geometry"/>
                </mxCell>
                <mxCell id="133" value="pd2 点到平面距离公式" style="rounded=1;whiteSpace=wrap;html=1;" parent="1" vertex="1">
                    <mxGeometry x="737.5" y="540" width="135" height="30" as="geometry"/>
                </mxCell>
                <mxCell id="139" value="" style="edgeStyle=none;html=1;" parent="1" source="136" target="138" edge="1">
                    <mxGeometry relative="1" as="geometry"/>
                </mxCell>
                <mxCell id="136" value="和这个点到lidar的距离有关，判断s是否合理？" style="rounded=1;whiteSpace=wrap;html=1;" parent="1" vertex="1">
                    <mxGeometry x="737.5" y="595" width="135" height="30" as="geometry"/>
                </mxCell>
                <mxCell id="141" value="" style="edgeStyle=none;html=1;" parent="1" source="138" target="140" edge="1">
                    <mxGeometry relative="1" as="geometry"/>
                </mxCell>
                <mxCell id="138" value="point_selected_surf=true&lt;br&gt;并记录平面法向量、距离到normvec" style="rounded=1;whiteSpace=wrap;html=1;" parent="1" vertex="1">
                    <mxGeometry x="698.75" y="655" width="212.5" height="30" as="geometry"/>
                </mxCell>
                <mxCell id="143" value="" style="edgeStyle=none;html=1;startArrow=none;" parent="1" source="144" target="142" edge="1">
                    <mxGeometry relative="1" as="geometry"/>
                </mxCell>
                <mxCell id="140" value="&amp;nbsp;重新存储有效点面距离的点" style="rounded=1;whiteSpace=wrap;html=1;" parent="1" vertex="1">
                    <mxGeometry x="698.75" y="710" width="212.5" height="30" as="geometry"/>
                </mxCell>
                <mxCell id="142" value="" style="shape=image;verticalLabelPosition=bottom;labelBackgroundColor=default;verticalAlign=top;aspect=fixed;imageAspect=0;image=data:image/png,iVBORw0KGgoAAAANSUhEUgAAAZoAAAAqCAYAAACKu52iAAAgAElEQVR4nO2deVxU5f743wPDPiwjAww7yKIogqK5l5ZLaYtezatZtmep2XLL8pqV91a3vi0/895s0/Y900wtS81wV0oQRVAQ2QSGfWBgmGGW8/uDHWZggMGl5v168QfnzDznM895zvN5ns92RIJBJ2DDhg0bfUZPbdF5zharcfYOJiJkAM52okstlI3LALtLLYANGzb+DBiorygk16ZkbJjApmhs2LDRd3S1lBUrEdmUjA0TiGymMxs2bPQdAaNWQ4ODs03J2OiETdHYsGHDho1+xWY6s2HDhg0b/YpN0diwYcOGjX7Fpmhs2LBhw0a/YlM0NmzYsGGjX7Epmj8dBuoqqtDYQjxs2LBxmWBTNJchgqaaEoUCRXkdegCMaDUNdKs7hBoyt73M3yfO48H/7aNAY+x3WW3YsGGjO2zhzZcNAvqyNHZ8tYm9Ff6MTQjCVV9FrjKUmaOK2ZQ9mlVzBmIuQ0GoPcfON59l+adFxE8Op/JACqprlvP2vxYxRu7Uz7LrUBz6lq8OZ3H+XCXOwQMJCBzDbXePQ37JUyoMKJO/56Nf01plc5cz/vZbGSMTX2rheoZQzKGPN3MwJ5esMkdCBgUSeNUc7p3gb3Zc2LBxOWBTNJcFBmrTv+GJx44z7vVV3BHnTeMUKKDP2cR9M7czccv7PBDjYub7Ooq3PcMtn7vzj5UPMi/BG03uIb58cy3f+DzJd6smIO33mUhAm7ye6xaVsubg80yT2vf3BXtAs2xFPJP4b2b6XGEKph0qktfdy/yih0j6vylIL7U4FqGnLOkAOeFXM/qK7nsbvcV21y85ArqcH3jy/r3Ev/sGd8V5tlmdihCHDufa+HyiQp27aMMB/+tXs3u6BC/nRmuoJOwaFr+ewN81LnhdlOWulvy0ZArjpxPpdTkpGQAdRWfTKIyfTMyVtovpiLGYk/sUJMwLw+tSy2Ipumz27PielGh/RtwxGIdLLY+Ni85f0EdjpDbrIFu3bWfrtl0kKxou2pXr6+s7HxQu8ONrb3F82iJuG+bZ2QQissd5/CiGuHajLZw8WpRMC2IJXhJrT/oCekUaSbl1HQ6XcfpILtHXxRFy2dlxlJw7kXOZytYzhJKzHMkIY+rwgEtsLqsjJymVC936AQ1UHdrD+esWM6PgVw5VGfpdssrKyn6/xl+C2nMkbtvO1m3b2Z6soC8e374rGn0d5YpSlC0DzoimurTVkS1oUJZWt4+CEjQoK5od3RcbI7UZezhUJyMkKACpy8XTtTNumkNhYWGbIwINaT+xfo83C2clmDZviSJY8MjkNiYSPbXlJSgUii7+2t4PayKgy9nKilcz8JK7tj+lyuGPI65MjPGnk2rT11HepbwKFCXV/Rcpp87myG4H07JdURhRnT3BAZdYhnS5w70YuOIvzeS1VZvJ7OrGCUUcOObLvAlDmTDLh6NHi7sPaukDWVnnWPLwo6YXdTZ6hliCX1AwIS65fHOgb4qmz3YEQ9Z2nn9zH9WFaRzMVIJ9ACOvjkAqm8EzL95MaP5uXnn5Jy6YOR9+SfZUTgQMiiMhwc3qLaemniInL9fkOT8/GS+9/Cpvv7Wu6Yie0sw0slzjGBFpqSwK9jwzn8d+q+nmcy6EJFzLjbNuYs7MsUR59t1gIaiOs351CpNeWUW0c1utKKA9d5LfdAmsGeLR+Yvle1l5zSr2dHcB+wBG33QDs268iRsnRuIlts6a3ZCXwUFtAitMyXYxMRrQ6XXo9UYERNiJHXB0EGN5Dco6zqWeRDftIRM7XCM1iS8xdvG3qHsklJjop75g5/1DeqiERThH/Y3VM15l+VvHeOeJsSYWSgINGUdIjxvPzQ4iRDHjid9xmIwp8xji2Ld7u2fPXmrVdSbPHfvjBJu/38odC2/rVdtCbQ77t+/iaEYBKo+BxI+7lhnjw5H0RmRBRc7+n/kpKZ1clQfR8WOZev1owntlaTBQm3uEbTuPkZ5bi0dUPBOmTmF8mHvvdrfdyeYsJyZBDooCpOm9uUArfZ7m7WMWsP69dbxw+1DAlTHPvc1377/Nxv80KhG7sJt55b23WLtsAva4EP/P/7Gpzfm/CrW1tRz740SHozoqS8vA0QsP1zadUZvGpv+uZfVdUwmLmcvy138mq6F5HShn6ktbOLr/BzbcGdZ0TMLE1Z9xdP/uxr992/lpw6OMrU3kneeXcsOiN9hVoOnjL6jh1Ofvc/T6hdwY3HE13eyfGWLaPyO7jlf27+bob29yb8tcP5E1m39ukfnIrq/45LkxqHZ8yDOL7+D2F3dTYJU4lQbyTySR2Um2Ok5+uZ2MfrbkCAYtdcoyivKzSEtJ5eSpdNIzzpCRkcHpUydJOZ1FXnE51Wpd9yvGZv/McFP+GSPqGiVq7JAOn8vqde+x+evP2PLFM8yTNH9mJI+u/4gtX3/KN+8/zyNTwrBHT1mdBaHzJhHjM3kONySvZ8PvlZ3bEMo4/EMZY8c2RcWJ/Bk7uozvD5f1eVdjTslkZmb1qV2h6iivLXyEL3VjWfzcv1h913DqPn+S+95LRtVToYUKjr2xhL9/reXq+1fx6qqFjKz7jnsWf0iyqqcDz0DVsfXMX7iZhgl3s+aVp7knQcWn9z3JO8lVPe9Pq8rWPVbyjKrIy8gBos3YjmvIPJ6GgVAmx/r/qR1D8fHDiI8f1un4O++9z+3z57B61co2R50IjozGwahDZxCgeQUviWXeIxHEbkzmK9e/s+qJG/Bv6VQxEpkfEuoocm++fXY4e8mQy+UtLcv9g1nZkMmOZVtQn/mCJc9Hk/jBHIJ7uZAUivfx9gYZd/4S2dmZ251/RuyGTO4GegXuLTffFS8fP+Ty5t8gxz/Uh4bUIzywRcHpL//Fs8Oi+WhuWN98EUIJqfszib7ukXayCVXJ7BMPYll/2dKMDdRWlqFQlFGtbVYhGrI2b6H0ugVMkDZ1hFZFeZGK8iIH3Lx98Zd74+EsNvmbu/bP6FEpq0A2n7XvPc3k5qg/PRz1dCfExZ7KajFGkTOePjKkg2IZPSGWAXfdw0tFFaigdxFsDpHcuCiYSe8mcttV7ceXoDjOkeApPNkSgWiPdMIUQv7fcRSTZrQZ0z1n9i03mzw+ecoM3nz9P2bPd00NKZ++yYagxexfFN+4Q/NJ4K5Vt5M4/VU2jn6fxxMs3RUL1Kd8zaqP/Hlmz3zipA6AHwmLlrMs8S5WfDiSHY8mYC6OtBP1qXz87DaCV37EXXHeNIo2n9VLf2fyyi8Z+8NSElws7VAry2YB1pnztfmkJCpAYsZ2bCgm/VAh9MhE9Odi/rxbWb1qJS4ubW+fPV6jrudOz2Ps+qOi/apEl8PBHeeJHTcIv149kPZ4eMtozqAxHEniVHlvVypachN/Yv+ka7jKVNRWV/6ZniCS4O3fvPyu4cCBM5T3pT0zsgmaPPa8sw/ZVaH9sOgRMGqrKc7J4mxeSZOScUQilTJggBRPF3sMRlPrTx11FYWcy8gmv0xFQ6ftTXf+GQOqqircZ17L6Lah5QYj9Rol5y4oqFRpwViPsrSInDPnyKsNYtItw9Ep1Wh7/XvFyEZdw9RjO/j1XNtdcx0Ze/IZPiWi/cLEIYKpcUUknuuZgc9Svvh0Yy+VDFBzgi0fZeA3LAzfNs+cyH8g8e4ZfPvr2R6YJSs5tnUb2T4RDPRt0wMiHyLiB5C9aR8n1ZbuQ4zUHPuRDbkyhoV7t1lkOOIfHoVH7h52n+rOlN5fslmGVXY0xvw0EhVGHP5mOjpKKDjJnmw99lOGM8j9T7qfEdQozp6jSCchJCoMmbMdYERTdYGc3ErqccY3KpKgDl8TScfy+LtK1j7/JE9lzOHGuCBc1HmcPKPFf/5d3DYiuJeToYBB38Yc4+2Ht1sv+14o5o/dWQybFoVM1P74oY+3cCznODvVGmJ++YR3dXNZPLm3MhvQNTQrQzt8A73p/bKkmpObv2JPahI71TDit09Z+4cdNJRy/KdfOBK+ksSwNomsggZlqRKNAIKmiuJ6KUNi/BDXllNQUEyVxgFpUAjBPm5dPDQChvpKCrILqNCC84AAAny8cHd1RmwHUEeVhxf6+GEMldRTXVFOWZmq/SRvrKM8P5vaukBCA2VIHEQIiiN8+M1RcpL3oXYMYef7n6G7dQGTgxzbfLGOiiI9CaMD2qxEDajLiylS6UzIWk9FXgXBg4fj+UkZVQaQ93KVIJJFMTY+i2+O5HNnVDR2gFB1nB+qEnjUv+P+1wH52ChyPzuNOuoqXE012AWCRsGZDAU69yCiI2Q4iwBBQ1V+DjkVWnDxwdNPQNIL/54hL51EtYTBgdL2CyZ7KUFDXSnee4q8f1xFjCX9ZCji9H4FDArEt93nHfENCoLSZE7maRhjNjeuLRpyM06jJpBAH8d2Z+x9A4kjl19PFvLkaE/LFnpWlc0yrKBo9JRkpJKGK6NM2o4NKLPSScalD6vzyxyhhIMvP8XLuU4YDxwhM2Ie616dh2Tf+7y2U8uIiTJyt/zAweoh3PfO6/xzcmCbjrdHEnUjz346CUVOLkUqcB88jXsmS/p2c/SF7P/xANUA9tEseu5WRnYXIm0OVT6pya4kPOTT3mQj8mfCPcuYAPzj330RFkBAX5zEjp8LALAPm8+/7ojr8UTUiidxcx8ibu5DnWVb8ULnjxvO8NHNi1inbPo/eiZLxlSxM7GOiEhHilKSyVB6MfK2h3nm4VkkdHjgAYyaqiYl44R3SAhBMjdMzXcGQYyzmxRnN08GyKopKy6iWNlW3RjRVBSQ1aAlLMQfqXwc9z06DnicF83+XneG3f0fVkp9W++RoEVVWWu+iwwqVD7X8/F/wL8v6z+RnMFjZKSfLqCa6EYTnEMUCxd6m7x/IulYHphVgVGAnthFhbIDvPTAenJ8tSQmFhE9dzVvPODBb6+9w0/GQVztV8Cmr39HOfguNr63nGv9e1IRw0DlhVyKgcGdBLbHwdEOigspqTMS42FBZ1UWcqbECIM6NYbYwREoJa9EDRZN5tVcOFsMBHY6IxI74ICeC/nl1AEWGfasKptlWEHRVHP2j1MYECj+/lUeSOyoUw1UZaag65F/xkhtxs98siubHmW5iAKYtGg2CRc1K11A/fuXPJ02jY8+uorDty1iTdomHp59gOuffpmPt4zER6znQkQVE/+ZyAdrtjPr14eI6yiiWII8Kha5yWt0h5rMHz9mbY5nk0gqzu/dyfYzWsKmLOaxJfO5Kc7XzM3uvnyMsSSPU+oA5vtaM6T2LDs2rienaYcrqM7z67a9nFaFcP2yB1m2cDpxJibzRipJ/uprdmecbyrF4o+791gW3XFV+x1XT7AfzD3bviX8zcd4bEsRZOejXbKGrf+MxksM+uJEXn5wJR989W/mFwj88t48Bjq0uZihlpL8okYlExpGiMzFgrFuh4OrlIBwF9wUBZwvVrULCDCqSjl/zkBoRBAyl+7GtAvymGHtx49Bh1bbVYiBgNFVzvAQ5zbzfW/6tnElrPs5D4UBpPYgkvgTKjH/eVmofze/pyPVJH38NqfmrOHTcb/z98RXSd28ipm/Xcfqt//LDwm+iIU8IgoWsOLQZzy79Xr2LRnWA1OugEGno0vjslqJUm0ESxSNQUd9l43VoqixNATbQEN918kg6pJq1FioaKwqm2X0XdG0+GfmsPK1B0nouIgwnuWTBUc53iP/jAjn4DHMnZ/QQ2EckFx001wlSTt+I+jmtUSpc9lwth5wZejiF3jl3lFNIZ8CuoYm84Vah97qiQQOuPkFEx4+oPFapcfYlaUEBuAbNJAhA727uNEOyCcsZKnLeq772Miag8s7lY8xqpTk44Zrx4TQPuGGPCSMcC87QEvpof2cURrBy5ug8CgGyswpGYABJNy2CNbdy0bVfRx+9AZ8+rpTFjnjJQ8hxL9pDe4+npuuH4RXU8eJ/a/moSVT+PTR7egOfsCHh6bw4mTvpi83m6j0OPuFEGiRkmmDnTOe/uEMdiokO7eiD/6SDtg74tKlgnLErVPgQW/6tmklXFFHfX8lydSksv0LT2ZtDUWd9SXpAPZxLF33HPclNPst9Oi0RsBIXYOhX/N1bPSMPiuaVv/MRMaFyjtFrgi5iSQrjD30z4gQS7yRm10RWRs95af2czDHdMikSRzDmXh9LDKRJ6Me+YD3JAOoP/4dP+sAhjJv1vDWvAKhnIykTADsR4bhb/UNlwOBo6Yw+5ZmD9B0xkg1TPnnLpI+Wc0SiX83USSXonxMEKOm38js5qizmSOR1tzNil+P88GTzyMJ6ibCRyjlzLFSEm6O6v0upkeIGRAWSTiQSRE/phawZnKTAtfVUFqsAnsZAX7uONSeI3FvBspObWjISc+iYteP4NXxWbDDPXo848NoVTZO3hbuZswgckYa4IO5faidlzcD3ExMARe9by3AdSSP/RKPxFfD8c+T0QHE3MDfrmp1jgvlWRxNVQNejA73vsKTc/9c9FHR/Fn8M/Z4hccz1seU09QMYvemGmJiJDIfoJ6MjDRUAPIE4kJat3ZC+Ul+3lUGeHD11GEXoaKxM8EjryKBXRxDT/YXh8hYlkCCubt9OZSPEQcy6poY+PUQcJpPD5xnecJw8wNUmUtKaghTn714pVjspT6EAJntjhqpr6qgwgAOcikeDiIQ+RM7WmKi8oUat5OpFI4YxVifjtOgCLHEHSd7A672FWjFfVQyzW26D2BgiAyn0+Vtdkp2OHrKCQvxxtlU512Cvu0WsRsyP8CQ3hjBih2Bk2IJadHXesr/2M9OHWA/gqkj/Hooux2uHl5d+wQlvvh4WHg/XD3pWDyjPVJCvC218Ljg5df1qts9WGaZ2czqsllGHxVNs3/GfP5M+rHkHvpnoLEe2WH2ZFT1UB4PBk2aSIxnTx9OK+yghCJS9jZOQa6T44h0au6NNg+Aw3hmjw/AUH6Ok2UShsTIza42+4rI2Q335n+UueSX60mQm7ndzSHAd1zKEi12uLi1Du6q9ALKGW7GZyWgTv+Dn51imW1RKRYBo16P0U6M2PI0/E7oi3I5DoAYHzfHpvHeQF11PeCEp8S5sf+a84Y6UUeRuxt17fKHWmU01FeSn32BKqsomdZ2VZVqpHJ/XB2DCQoOYWCQBxI3FxxMPpA97duLS3MEKwRwbXxIS/g+Qim/7zqKDnC4dhoTg6A8K40y9whi5JY4te2QBIYRhY4ypRojbXI/DDWU5athcCgBluaqSOREDnSBMiUqI8hbGtNRVVoKBBEZaOlk7kZgZCBQhVKlhzZjx1BVRj6uDInwtTzvxaqyWUbfjO79lj8jwtk3mIFBwYT05C84EJ/ehvD2FWUuKU3b9qtHhbdO8kIxh7YfanwApk9hglxH+qY1LNtR0KfaQT2jkMKyprAKTTEnf89G2WLAbi0fM85MiZbGEMpSyqp6sOPrK2cLKTU0yqcpTuf3c8o2NncNeRlpaKZ1VWzUiE5dTXlxHplpqaSkniI1JY2M80WU1+l6Yb9Xk5V8nMalzyBmJAQ1KhW9FnWtDnDA2aG3iqFNWDRSKyqZptaNRiqrqrhQosVJ6o3U3ZySAcv6tiNNyaKRPvQ+DqeBslOJbNuTRplZJ2azhQSwH8aoQZ4tZwTFcbbtKgN8mHHzSOS6s3yz/F9sy28OJ+q+fbvQ4UwfqCO3pJp2I11bTXEJRF09lMCW9WMpJ/f8zJ5TpaZrNtoFkjAtCvLLqGxX4UJDpaIKBo4gNqA59Ls72ZwIHTGGKMopqWobHiWgrSyjmEiuiZU3LXwa32u1Z3siJ8vMhFL1SDbr0IdZWaAhM4mfFEbsr4knutOgFNBlHmV7th5GDCWyR056EWLPUOIShpPQk78RkcisVB+rZwhoczI4rAOIYlxMmzBgo5LCdCUgYfzEaJwzNvPGFyE8vWBYL0N361FkpJKcfJIzRc3pY3qqctJJTj5BSm514yTqGcKIIc1XOM9Pv2VQKxioOf45D67YTX6LluumfAwgGuBPhKQp5LE3aBRkJJ8gOeUMRS1PZQU5p06QnJxGTrUesMczbFBrNF7RQfamKhGESo5/+AyP726jmIUiUvbmdy7F0pDG599mYDCoqSzM4WxGNnlFFahaIq90qKsU5J3JMZNb0gblNt7eeKipOrGOqpNbeHNjCo2BHo9x94hGpSw0aKjp04qhN0pGwGgy6bOJ5v422+dt+71j0930rckL1lOaX4r7kNDem8cNZ/l2+aM8svQRXthtrvCmmpz0jCb/TDxD/VpX9sbyQtKa/KNXxzqS/tk7fB5zJwub/XyWtO84mDlLp6LefZgTLWVYDKjSktjneCOPzx5Mc4iKIWMLS5eu4P4Fb7KrzJSqcWPY7AXcUH+MfamtJWIEVRaH9sOsR29kWHO9t25lE+EYO5NlU9Xs2n+mtRSOUMWpIyk43nQHc2KbF/L1pH/3Ivc/sZy5/9lLmckf2gPZrEQvFE09GRsXERYdR/Tct8gCDD+t4KroEUzfmI4BLTlfLSEiOo6oWWs5CXDoeSYOimfiO6e6Dh+8YhFoqFfTgB3eU29iUttEQPto5qy5l9FeGk6+9SCTn8rmpg1PM6tTvTBLqeDom0uZs2Axq74vajqm5vj6J5izYBH3/pDT2Mcusdy19mVW3DgEKfWcfmsJM+ffzfwnTjBzzc0MaUmTt8A/4xrBuGmQdK6kd/dP+TtvLFjEnNtfYlNLWsdx1i27hzkLnmVrthYQ4TLsNtb992FuGewFpPLm7fO59c77eeTYBF6YHd2a2a9IZ19KSAdzrYGqw8m4D5dSlH2eHEV1F9FbtSgKK1F3pSAkQxjqtI+VM8YSFp3AiFtfI8l3Oo+t/YjPHxtjpRfJ9UbJ6FAV5ZBZrDJf/by5v832+aI2/d5Boi76Vjwi3LRp1VBM+iEdN4yJ6H3ek50v8dOH4OClJTmz1Mw401Gv0gJybrh9HGFtZi/7mJt5cfEopCTzvzsX8GTWVD58YSbBzQtPi9p3wH/mY2yYnsrTT25gV1Iyx3Zt4PHVZ7j59aVMb5N8aicfyg2DPZC6nedsgemRJvKfzvPrx/PHP9fw9q4kkpN+4e0n3+D0TStZOS2wtX8tkU0UxE3PPsv1f/wfj7/7C8eSk9j17hpWnb6GdSuua1POxxH/YaMZ6iBBknKOAjMPrMWyWYm/4Bs29Si2vcZXQY/wuFWrN+upLa8BL6nJrGRBU02pUo+bbECvspb7QuO16xGafFEySRv/QM1+Vl/zKo7rP+O5CeaqXekp2/kc4zfE8NN3i4jqd+ukEU11Ocp6I+CApF2fNVUp/ocjGw4+xQRXUePnC35j4yelDJ8Vg4vIk6AQOd4SZ+yM9VSXFJKraJ+jgr0vkbGBeLa7F3Ukr7uDOevPgddithxeToJYT215JRrnAe37rQlBXcLpjEK0OCINj2LggK6SBOtIXvdf8uevYLbcvpfmMiOa8lxOX3AgMjaog/x9xVzf7uX1dUpuf/VWk4VwjVmf8bfZGTxojbeXKnbwxPehvGouB0ZfR7kSvGSmKjQ0jRudGzKT5y1oH0DQUJ59hrSsInSeYcTERRNk4t43ziVr2Ry+jGXDzKlYI5ryHNLTznFB50VkTAzRQR69lk3QlJOdnkHmhQY8IwcTHx1gZj65wNYVuxj4yr2dc/Z6KptiO8u/CWbto10E53TDFf66wcsJMRLZALNnRc6e+PUuG7PPNF7bs/3BHpWPEeMz+VaWrn2LxLNziYrpfb6+Zdjh7OlLR5GpTWPTh7tJPb4PtWc0v254iyQEGipOkXy4GPGMhxjv5EdEmB+ejk2/ws4VaUAwRu05clvs2454+JteEHRGjETmS/dxIg3U1GnRD3DqMmfJd/gYxBK7Pvhk7HCSuCMxlFGj1uPpYSVburm+LT/Jj99lMPDFL9rtIFpRc3bfb9Qufphr+/yaZiM1Z84hiRlnXgmI3ZDJzJ1sGjd9aR9A5IwscjiTI4d3I281Z1IcGDq5K+uEHc6yCBImR9B1VqBlsomcZUQmXE1kdymGNedJkURyXZc/1FLZ+o5N0fxV6Wn5GJdhLHg8kDu//p1b10yykumoh0himfdILPM6lGIRGqooyMyjwtGPyHA57g4dhBM5IQ0IQisUUlwjxjswgEAft/YPtFBNzon0Vr+XvpgzKam4BEd3GbUksrPHCdAChopq6vzdu9hlOBI06Vr8++j4Fzm64O6ooaKugUAPB+sUBjXTtwBPm6jY04xQ9TtffhfIEx8N63u1X102P+6WMne1+QXb5dO+gO58Ir/4XctzllQK6A6rylbP+Z1JyP+22PKQ537mT1rh0ob1ccB/2oM8xSbeOlx+GWVdN1CjUFCm9yI01K+zkgFAhJ2zFwERQ0gYPogwX3c6fcyQw9YH2/i9arez6valvJFU0fXlHZxwbd5UGKopV2q76BsrRZfZiXF0dqBB203JlP5GqCL5sx2Inniwnf+id+go3vMb9QtmM8zicveXsH3hAru/13HbHbFWKKdvXdmE4gNsrp/OomGXi5r5y/ponmPZIW8mBkiJnbWQaWGXX77A5YpQm853r/+C031LuKXXAQ3Ww6guITOjDIfQSAbKnC9BgmEDytwssiuaHML2MgYOCULq2HENZ80Q5gaqcjI5X+dDzFA/elsrtW9oKNj2P96qm8GzC2J79/ZJG5c31Sf48uMDlKgy2OW+mO198NH8BRWNgL62kvJaHc0vDPOyag2vvwD6OpQaJ7xMOkgvqiCoCrPILHNj4NBgpCZ3M/2NQENlHqdzKpuCDexw9gkjKtiL1ghRa+fJNFB5PpMc9aVUNHpqq7U4e3b12gQbVzT6OsrLG6MbRS5e+Hr2fiH3FxwjF7uO2p8QsRtel0P/GeqpqagHd1/cLomSARDh6CHF276SMgOAEU3ZBS64OBHm44JdfyRjCnp06h7VNe8HxEg8/4LTx18JsxUueo5tKW/jikXQqqnWAfb2l6Rs7PUAAAEuSURBVLYml1iCzN+9zYEGqvLzKKrWou+PjH+tmhot4CI2+b4bGzYuN2xLEhtXKAL6Bg3WfWtGb7HHdYAvPmV1lLVUIVBTcj4LpViPVmTNsjJGNLUqarHDReKMdQuF2LDRP9h2NDauUAR0DU3mI5WaLt/vdTFwcEce6E27dE1jA9oGMV5yP7ytVbtMX0dFSTVG3PB2vxTBDzZs9ByborFxxWInahq+DSqq67p+A6F5jOhU5ZSqGvoYsm2Ho5cfIZ1s2g0oCwoorKq3QhFVHaqSIhQaI/beMga42t64YuPKwKZobFyhiBA7OjYN4DpKS6rQ9HgmN6KrKSHn3AXKKupo6Gv8pcgRD/8QQr07ZFYYVZSczyWvtJbex3gaqK8oIk9RB3ZeBPp52sxmNq4Y/j/Pt3rdQ/vBHAAAAABJRU5ErkJggg==;" parent="1" vertex="1">
                    <mxGeometry x="950" y="760" width="330" height="33.8" as="geometry"/>
                </mxCell>
                <mxCell id="145" value="" style="edgeStyle=none;html=1;endArrow=none;" parent="1" source="140" target="144" edge="1">
                    <mxGeometry relative="1" as="geometry">
                        <mxPoint x="805" y="740" as="sourcePoint"/>
                        <mxPoint x="805" y="880" as="targetPoint"/>
                    </mxGeometry>
                </mxCell>
                <mxCell id="150" value="" style="edgeStyle=none;html=1;" parent="1" source="144" target="149" edge="1">
                    <mxGeometry relative="1" as="geometry"/>
                </mxCell>
                <mxCell id="144" value="计算H（注意状态量的平移和旋转位置）" style="rounded=1;whiteSpace=wrap;html=1;" parent="1" vertex="1">
                    <mxGeometry x="684.38" y="760" width="241.25" height="30" as="geometry"/>
                </mxCell>
                <mxCell id="151" style="edgeStyle=none;html=1;entryX=0.75;entryY=1;entryDx=0;entryDy=0;" parent="1" source="149" target="112" edge="1">
                    <mxGeometry relative="1" as="geometry">
                        <Array as="points">
                            <mxPoint x="630" y="835"/>
                            <mxPoint x="630" y="665"/>
                        </Array>
                    </mxGeometry>
                </mxCell>
                <mxCell id="149" value="更新ekfom_data得残差h" style="rounded=1;whiteSpace=wrap;html=1;" parent="1" vertex="1">
                    <mxGeometry x="684.38" y="820" width="241.25" height="30" as="geometry"/>
                </mxCell>
                <mxCell id="157" value="" style="edgeStyle=none;html=1;" parent="1" source="152" target="156" edge="1">
                    <mxGeometry relative="1" as="geometry"/>
                </mxCell>
                <mxCell id="152" value="更新计算delta_x_new = x^k - x^&lt;br&gt;boxminus()" style="rounded=1;whiteSpace=wrap;html=1;" parent="1" vertex="1">
                    <mxGeometry x="410" y="749.1" width="190" height="39" as="geometry"/>
                </mxCell>
                <mxCell id="160" value="" style="edgeStyle=none;html=1;" parent="1" source="156" target="158" edge="1">
                    <mxGeometry relative="1" as="geometry"/>
                </mxCell>
                <mxCell id="163" value="" style="edgeStyle=none;html=1;" parent="1" source="156" target="162" edge="1">
                    <mxGeometry relative="1" as="geometry"/>
                </mxCell>
                <mxCell id="156" value="计算Kalman增益K&lt;br&gt;采用所提出的等效公式形式" style="rounded=1;whiteSpace=wrap;html=1;" parent="1" vertex="1">
                    <mxGeometry x="410" y="895" width="190" height="39" as="geometry"/>
                </mxCell>
                <mxCell id="158" value="" style="shape=image;verticalLabelPosition=bottom;labelBackgroundColor=default;verticalAlign=top;aspect=fixed;imageAspect=0;image=data:image/png,iVBORw0KGgoAAAANSUhEUgAAAhkAAAGxCAYAAADPvaSVAAAgAElEQVR4nOydeXhVxfnHv2e/yU1YRIEIAQWUomxhS1BEFCtChISwSxFlEXdptfiryqIUqy0qiKhQtRbFQiCQkIAgbsi+hyJQQNaERVoXSO52lpnfHzjDuSFkMxthPs9zH8K9554z570zZ955t5EopRQCgUAgEAgE5Yxc1Q0QCAQCgUBQMxFKhkAgEAgEggpBKBkCgUAgEAgqBKFkCAQCgUAgqBCEkiEQCAQCgaBCEEqGQCAQCASCCkEoGQKBQCAQCCoEoWQIBAKBQCCoEISSIRAIBAKBoEJQq7oBVyqEEDiOA0IINE0DADiOA0opCCGQZRm6rldxKwUVjWVZvC9IkgTDMBAKhaBpGmzbBqUUERERVd1MgUAgKBPCklFFUEohSRJGjRoFVVURERGBqKgoGIaBWrVqVXXzBJWEpmlwHAdjx45FvXr14PF4EB0djejoaNStWxeSJFV1EwUCgaDMVKklg020bBUnyxfrPGxrFcdxoKpFN5dZABzHgaIoFdLm8oLdt+M40DQNXbt2xVNPPQXLsqAoSqHtN00TmqYVOvHYtg1ZliHLMggh/BrsWPcWNVfCxOU4DgBAURQQQnjfKKyPVSWEEBiGgUcffRRJSUkAgG3btmH69OlQFKXYPi8QCATVmSp/gjGTMFMOCuJ2H9i2zd93T5TuCZQpGLZtV/sHNHOTWJaFxo0bIzk5+ZIKBFPCmEJWGJRSWJYFSZK4TAtyuShhvxbWZ3788UdERUWBEAJVVaudksHac+uttwIA/33ZbygQCASXM1VuyWD+aF3XC50AbNsGIQS2bRfrmzZNk0+u1W0y+TUwpYJNPkUpIkyBUBQlTNGwLItbSa6EWA/LspCbm4tdu3bBcRzExMSga9euVd0sgUAguKKo0plYlmWoqorMzEz07NkT0dHRPOBRlmUYhoEmTZrgxRdfRFZWFp5//nlomsZXpOzl8XiQkpKCWbNm8WDKmuQSYIrFf/7zHwwbNoyb0Q3DgKZp6NSpEzIyMiBJEggheOeddxAfHw9d1/mrfv36eP7553Hs2LEaJRs3hBCYpolQKIRDhw6hc+fOGDt2LFasWIG7774bo0ePht/vB4BCrWYCgUAgKGdoNSEQCNAZM2ZQWZapqqrUMAzatGlTalkWtW2bWpZFQ6EQPXDgAI2KiqIA+OuZZ56hwWCQOo5T1bdRYhzHoYQQOmTIECpJEh0+fDglhBT7PdM06ZAhQ6hhGNQwDPrnP/+Z+nw+/jkhhAaDQXru3DkaFRVFVVWl3bt3p0eOHKGmaVLbti8rOZUG0zRpfn4+PXDgAG3RogXt3r07zcvLo36/n86cOZN6vV46YcIEevbsWRoMBqu6uYVi2zZNTU2lsixTRVGoZVlV3SSBQCAoM9XGp6AoCmJjY0EpheM4sCyL+6npL75pSZJw3XXX8dUocN4aEhcXx10vVwq2baNz584YP358mO+eEIJQKIQff/wRoVAIhBAkJSXh2muvBXBelrSG+vpZfE/fvn3x3//+Fw8//DBkWYZlWRg9ejQaNmyIWbNm4bPPPhOWDIFAIKgEqo2SwVL5mCmfZQQwVFWFJElQFCXM3E8I4e6V6h7oWR4QQrB8+XIAwKBBgyDLclgQJyEE0dHRSE9P58GO/fv35/JTVbXGBn0ahoH09HTk5uYiEAhg4MCB0HUdqqpC13UkJCTANE0MHjwYZ8+erermCgQCQY2n2igZwHlFo+AqW1VVrjzIsnxRPAGLwr8SFAwA2L59O0zThCzL6NChA1RV5VkqwHmLkGVZ2LBhAwAgPj4eDRs2BIAaLyPHcZCZmQnTNJGQkADgvHWDKaaJiYlcGV2zZk0Vt1YgEAhqPtVKyRAUz+rVq+HxeKAoCuLj4y9Suliab0ZGBmRZRvfu3REKhWpUts2loJTiiy++gCzLiImJ4Wm/bisY/SXNd+XKlVXdXIFAIKjxVMuZh00OLCWVvQghCAaDMAyjSttnmiaPG3G3r7AXS9ENhUJljoVgsQaWZeHAgQMIBALo379/mGWHuZdUVcWSJUt4EarWrVsjMjLyiohB0DQNZ8+e5bVCmILB5MSUDFa6WyAQCAQVS7W0n1NKoWkafvzxR6SmpvL3WR2Iqg7wHDp0KJYtWwZd12GaZpHHsr1JPvroIwwYMKBM8RCSJMHv90OSJG6h2L59O4YNG1bo8YcPH4ZpmtB1HcnJyfwcNR13ASv2L7PgMKWDUlrsbyYQCASC8qFaKhlMmaC/lB1nsNLZ7sqfVcEnn3wSVqejKAghUBQF+fn5ZZ7oWe2Q5cuX81X6qlWr0KRJk0KvV79+fZ5l4TgOn1wFAoFAIKhMqqWSwdwMMTExGDx4MH+fFdn63e9+V4WtA6+YWVIXhOM4vLR1WQmFQli8eDEcx0GrVq0QExMTpuD4/X4oioLFixcjFApBURR07doVXq+3zNe83GDuoqIsFcyNdCVYdgQCgaCqqZYxGdWdUCjELQTuUt+FvdiExkp6lwXHcWAYBtasWQNZlnHnnXdedAzLoFi1ahUCgQAkScKAAQN+7a1edhRMcXbj3iyuquN6BAKB4EqgWloyqjvLly/HgQMHSuTbl2UZ586dw6hRo9CyZcsyKxqrVq3CDz/8AMdx0L1794vcNIqiwO/3Iz09nbtx6tevX6ZrXa7Yto3evXsjPT39kp8D5y1Rd911V2U2TSAQCK5IrjglIxAIADhfM4IFAbLt023b5sWbiuLw4cPIzs7mNSmKQlVVEEJw6tQptGrVqkxtliQJGzdu5IXH2rdvz7eIZ9i2jdOnTyMQCECWZfTv37/cXQJsa3p3u1iBLwaLGWGF1djmd5VVAKxbt27IysrCrl27EAgEuJwkScKSJUt41lL37t1/9bXYxn0MWZYv2u2VyYO5yipbHgKBQFCVXHFKBqUUp06dwqRJk7B48WL89a9/Rd++ffHQQw9hx44dmDRpEsaPH1/kOf7whz/wiaO4wE82yZmmyYNAS4tpmnj77bfhOA66dOmC2NjYQuM7MjMzeZBnnz59yr34Fit6lpeXh9WrVyMjIwPt27fH008/zY85cuQIpkyZwneAHTlyJHr27Fmu7Siqff369cPEiRPx3Xff4ccff8Q111zDlZ2jR49CVVUMGjQIMTEx5XI9tzyWLVsGy7Lw0Ucf8X5x5MgRTJo0ibvWKlMeAoFAUNVUaUwGIYTXkyjoepAkCTk5OaCUwrZtWJYFQgiOHz8eNrGz7zuOwydylpnCzs9qSLBJITY2Fn369OGTdpMmTdCxY0cEAoESbQfOlAtFUcKyTAp7qaoatpouKe49XFatWoWff/4ZiqKgcePGvIqle3VMKUVmZiaPFenRo8dFbQbOWzwKyomlBbN/mXWG/Z/JmF3T7/dDlmUsXLgQ27dvh2VZcBwHJ0+exKBBg3DNNdegdevW2Lp1K4YNG4bNmzeX+L5/LQ0bNsSkSZMAALNmzeLKztatW5GdnY2OHTvi7bffBnAhwJjVPWHvMZmw+2cWi4LyYJYLtzzS0tK47Jg82D4zVSEPhrt2S0HYPRU8ltVnEQgEgrJS5ZYMx3GwceNGfP311/jHP/4BwzD4A33Dhg0YNmwYBgwYgPr16+PYsWOYP39+2PcVRcGkSZNw7NgxNGvWDD179kRkZCT8fj8vuiRJEjRNQ35+PiIjIwGcj6vwer3o3LkzAoEAtmzZAlVV0aFDh2LbzLJLSqI0sPoMpYVSisOHD+ODDz5AamoqIiMjYVkWduzYgalTp2LUqFG47rrrcO7cOXz11VeYOXMmtm7dClmW4fF48MADD+DPf/4z4uPjAZyfSHw+HzRNC1O6JEmCruuwbZsHqbLiYe79ToDzv5Vt26hbty6SkpJ4XQpFUWCaJg4ePIgXXngBycnJkCQJt912GxITE3Hy5MlS339ZYPuyPPLII/j2228xY8YMHDt2DF26dMGkSZPQrVs3vPvuu/B4PFyxdVcB9fv9vEw7c4NomgbLsmDb9kXyYAoZkweTp6IoCIVCYfIAgI4dO1aqPNwwZaGgNc19z6w/W5bFA5VZzRqBQCAoC1WqZDCfflxcHOLi4vDss8/yTAr2wMvLy4Ou66CU4rbbbsOgQYOgaRp/ULIVJ1vBsxRGWZZx+PBhpKamIi8vj6/kExMT0aRJE2RmZqJv376wbRs///wzNmzYgOeee65ardwaN26MF154AZMnT+YPfODCClyWZdSuXRt33nkn7r33Xh5fYllW2ETJYArZd999h4EDB2L37t3IyclBXFwc+vbti0mTJqFRo0Z4+eWXsXfvXgwfPhxZWVlo0aIFfD4f5syZg6ysLGRmZl7k9tE0DfHx8VAUBbZthylgjRo1qnhh4cIKPCIiAm+88QbGjRuHI0eOwLZtfP7557j55pvh8Xi4giXLMtLT05Geno6rr74aDzzwAF555RVQSjFv3jw899xzOH36NJKTkxEXF4fExEQuD0IIlixZgnffffciebCJmcnDNM0w11VlyaOgbCRJwvHjx/GnP/2Jv//EE08gLi6OW+WA82MqIyMD6enpYcXwBAKBoNSUamP4CsBxHEoIoZRSapomJYSEvUKhECWEUNM0qW3blFJKLcsK+75lWfy9QCBAbdumlmXRdu3a0cTEROr3++nw4cOp1+ulgUCAfvLJJ9QwDPrJJ59Q27bp/PnzqaIo1LIs6jhOpd73kCFDqCRJdPjw4VwO7B5N06SUUhoMBmkwGKS2bVPTNKlpmryd7L5t2+bnZHJzEwwGqeM41OfzUVmWaceOHemUKVOoYRh0yJAhtHPnzrR9+/bUMAwaDAapaZp06tSptG3bttRxHPrqq6/SqKgomp2dTYPBILUsi+q6TocOHcrl5jgO9fv9NBQKUcuy6IsvvkjbtGkTdl8VCSEkTA4F+w7rF6FQiNq2TQkhND8/n9533320a9euVNd1+vLLL1NJkuhLL71EO3XqRCMiIujQoUNpMBgMk8fKlStpgwYNwuShaRrVdZ23gcmDXbMk8rBtm6amplJZlsP6JPtdWV9nfcM0Tf5/NhZY3/D7/ZRSytti2zbt2rUrbdeuHe3YsSMFQKOjo+nmzZtpMBikPp+P9y9N02h0dDQfcwKBQFAWqrxOhnv/DWaydb90XefuDrZadK8KmfWCxT5IkoSff/4ZI0eORO3atbFo0SJuBYiJiYGiKNi2bRsIIWjUqBEsy8KWLVvQrFmzarWfhXt3VcMwYBgGFEWBpmnQNI2vOpks2ErULTc3iqIgGAxi+fLlqFu3LqKionDTTTeBUorVq1fj2WefxY033oguXbpwS8nTTz+Nli1bokePHpg3bx7WrVuHli1bhmVPsDawGBQWn2GaJubPn4/nnnuu0iq0MlcFk0PBvqMoCt/2nbVVVVVkZWVh27Zt2Lp1K3bv3o06dergwIED+OMf/wgAPE7HLY/7778fM2bMKFQe7lgd5oahlJZZHqwuCyEEgUCAu7V8Ph+PC7EsC6FQiJ+buXfccTYLFy5Ey5YtsX79enz11VcYOXIkfD4fcnJyIMsyQqEQTp48iS5dusDj8SAYDIosGIFA8KuociWjPGHBi3v27EFmZiamTZsG0zRhWRbWr1+P/v37g1KKrKwstG3bFl26dAEhBKtWrUKfPn0gSVKN3dfCsiwYhoFPP/0Ufr8f7733HrZu3Qqv14sRI0bgrrvuQkZGBlJSUnjmTCgUwuDBg7F9+3a0adMGLVq04MWuLlW9VNd1nDx5Er1798bUqVPx29/+ttg036qAuUyWL18OSimmTZuGli1bYuPGjYiJicE777yDzMxMGIaBe++99yJ5XHPNNejSpUuJ5KGqKh577LEyy0PXdWzcuBELFizArl27sGHDBixcuBBHjx7F2bNnsWjRImzbtg22bePNN99EamoqLMuCLMvIz8/HlClTsH//fvTv3x/Tp0+HLMvQNA1PPvkkV8RY//jTn/6ENm3aoFevXtz1JhAIBGWlRikZlFLouo65c+eCEMJ98GPGjMH333+PLl264Pvvv8fx48dx7733YseOHTh9+jS+++47NGnSBPv376+xW6LLsgzHcfDVV18hOTkZsbGxyMjIgN/vx/jx47Fs2TIQQnjQpuM4WLVqFSZMmIDt27cjKioKPXv2xIkTJ/hqmlkH8vPzeTDp6dOnMW7cOLz22mtITEyE1+vFF198AZ/PxwN6qwP0l5iMtWvXghCCp556CllZWfjhhx8wduxY6LqOpUuXolevXqhXrx4AhMnjgQceQL9+/cLkwSwk7P9MHj169MBdd90VJo9z585xq09xBAIBnDx5EuPGjcM777yD9957D2PGjMHixYvx+9//Hi+99BJ69+4NwzCQmJiIqVOnYunSpSCE4JFHHsGJEydw0003Qdd1XHXVVdA0DZRSvPXWW2jYsCHuueceAOdToAHggw8+gNfr5YpYIBCoscq3QCCoWGrUjMpcBNdeey1M08T06dPx29/+lgdJvvPOO1i3bh1Phc3NzcXOnTsBALt3765WQZ/ljaIo2LNnD/773/+iX79+OHnyJHJycjBo0CA0bNgQX331FerUqYNnn30WlmVh7969mDx5MlavXo0WLVpg5syZSE5Oxv333w8AOHXqFCRJwrFjxyDLMoLBIPbu3Ys777wTwWAQM2fOxKhRo9C2bVvMnz+fu3WqenM7BlO6duzYgb59+0KSJL6zblJSEhYvXgzbtpGVlYVVq1bh+PHjYfJ48sknMWnSpDB50F8CT0+ePBkmD9M0sWzZsjB5sAyXkuxn4/F4uIKWm5uL/v37Q9M0zJo1C3369EH79u3RqVMn2LaNG264Aenp6Zg6dSr69OkDRVEwe/ZsnnkjSRLy8vKwfft2fPzxx3jllVcgSRJyc3Px0ksvYfr06QiFQjyjBii6VLtAIBAUhTJlypQpVd2I8oI9sOPj41G3bl0Eg0G89dZbaNeuHa666ir8/ve/x1VXXYWrrroKSUlJuPPOO2HbNho0aIAHH3wQbdu2heM45V7EqjDoL9H+aWlp2LNnD9q0acNdFRWBZVk4cOAAYmJiMG7cOBw+fBj169fHzJkzkZ+fD0VRcOONN+K1115DMBhEvXr18Mgjj/AVrSRJuOWWWzBy5EgcOHAACxYsQPfu3dGkSROsWbMGd955J9auXYuYmBhcf/31qFu3LmJiYtCqVSuMHj2aWwMKxi9UJbIsIzc3F2PGjEHt2rWxf/9+3HfffejcuTOA8zU3JkyYgNtuuw1erxePPvool4eu67juuuvw4IMPcnncfvvtSEhIQHZ2Nu644w4uj5YtW+Kqq64Kk0edOnV4jIj7N6eUYt++fVi8eDEkScILL7wASZLw5ptv4t///jcyMjKwbt06rF+/Ho899hjGjh2LUaNGYejQoYiPj0dERARUVYVt25g3bx4++OADXH311WFpqI7jICUlBf/85z/Rs2dPEEIwYcIE/O9//0MoFMKXX36JTZs2IS8vD/n5+ejRo0dY9olAIBCUFInWsOU7C/5k5nBWuKrg56zcN1Mq6C8FmCrrYcrKTQ8fPhypqalo0qQJEhIS+ITDtpMvL9j9sfsGwGNQ2ETHFB/6S+0L27Z5EKW7mxT8nFkFmJuFyZN9hwWjst+kOsCsCO7y7KyvsH/Zb8FKhbvl4d7JlcmDpRCze3fLg50HuFA7xS2z2bNn89Lxubm52LRpE3Rdh8/nA6UUv/3tb+E4DlavXo3evXvj0KFDOHz4MDZv3oxevXohKyuLB+1mZWXhT3/6E5566im8+eab+Oyzz9C4cWN+T/fffz8GDhyIxMREAOfHxM6dO3Hq1Cn+/1mzZmHr1q2YN28e32hPBIEKBILSUuXFuMqbwuo3uHFPcmyCBMpeNKussJiG+Ph4Phm7gwhLUrK8NLiLSLnPW9RupG6LTmEWFvfnTO5ueRbWhuoCy0Rx9xfWVwpm5hTM5AEKn3ALK9JWMOvEjaIoXLFlSoskSYiNjUXTpk0BXNgfZcuWLZgyZQoIIdi+fTsvfZ+eng5JkvDpp58iISEB06dPx0cffYQvv/wSMTExiI2NRWJiIlJTU9G8eXOMGTMGmqYhGAxi8eLF2LlzJzZt2oSvvvqK359lWVi6dCl27NiBgQMHVhvFUCAQXH7UOEvG5YJt29zn7fF4AICXEWfFx8TKsebD0kuZwst+c1bQjBCCtLQ0ZGRkYNKkSTh37hzeeOMNvPbaa7j66qvx1ltvYdu2bZg4cSKaNm2KEydOQFEUNGzYkFvydu/ejU6dOmHJkiXIyMgAIQSGYfCy8snJyTzOg1379ddfx65du/Dhhx+Kip8CgaDMCCVDIBAIBAJBhSDsoAKBQCAQCCoEoWQIBAKBQCCoEISSIRAIBAKBoEIQSoZAIBAIBIIKQSgZAoFAIBAIKgShZAgEAoFAIKgQhJIhEAgEAoGgQhBKhkAgEAgEggpBKBkCgUAgEAgqBKFkCAQCgUAgqBCEkiEQVCGUUliWxTdCo5QiFApBVPsXCAQ1AaFkCARVCKUUjuMgEAhwhcNxHL4tvEAgEFzOCCVDIKhCZFmGZVk4fPgw/vrXv+Lzzz8HUPhW8gKBQHC5IZSMEkIp5a9QKCRWmwIQQmCaJgghZXZvOI6DlStX4tFHH8WLL76InTt3QlVV4S4RCAQ1ArWqG3A5YVkWX2E6jiNWmwIQQmBZFnRdL9P3FUVBcnIyCCFYv349ZFkW/UogENQYhCWjFGiahqVLl2LWrFlipSmAJEkYPXo0Dh06BMdxynQOZhETVjGBQFATEUpGCbFtG4sXL8azzz6LpKSkqm6OoBpAKUWHDh3Qt29f5ObmwjRNWJYF27b5MY7jwLIsnkHiVihM0wSlFJqmQVWFUVEgENQ8xJOthOTk5GDMmDF4//330bRpUyiKIlwmVziWZeGxxx7DihUrMHnyZLz55puIjIyELF/Q3bdu3Yrc3FxYlsXfZ1YwXdfRp0+fMrtaBAKBoLojlIwS8tJLL6Fly5ZITEyEJElwHCdsMhFceei6jry8PMyaNQvt2rXDTTfdhPHjx0PTNH7MqVOnsGPHDmiaFtZfmIKamJhYFU0XCASCSkEoGUUQDAZBCMGRI0cwf/58vPrqq5BlOWwSKU8IIVi2bBmWLFmC+vXrAwBOnz6Nvn37IisrC7Zt429/+xsaN25cIde/FJZlYdOmTfjyyy9x4MABjBs3DrfddhskSarUdlQ2Bw8exM6dO5GVlYXWrVvjmWeeAaWUW68IIYiIiMB1112Hnj174rnnnkNycjJatmzJz9G/f3/079//ktcghMBxHFBKoes6TNPk8R2VYSWbOXMmNm/ejK5du2Ljxo1o0KABbrnlFixduhQNGzbE3/72t0q11tm2DZ/Ph2+++QZffvklTpw4gfnz50NRFKHUCwSXIWLUFgF7uI4YMQIejwdjx46FZVkVdj1JkjB16lS0adMG06ZNw44dO3D69Gn07t0b77//Pnbt2oWrr766wq5fGCzO4KeffsK+ffuwePFinDlz5ooIfP3pp58gyzJSU1ORnZ0NABfdtyzLUFUVvXr1gmEYmDNnDkzTLPE1JElCKBTiFT8VRYGiKJWmwL399tt4+eWX0a9fPyxatAjXX389+vXrh759+1ZJnAghBD///DPy8/Px7bffYvny5UK5EAguY6p09LoD4VhJZUopX92xFR4LpGPHussws/+XNbq/KCilmDNnDr799lvcc8890HX9IisGC+xzX58F9rnvgf2f3WNhfxNC0Lp1azz11FOwbRtbtmxB27ZtER0dDUmS8Oijj0JVVX5+9l33udznZMe4ZVWaCRA47xJgk+jNN98M27b5Q9+dEVFYG9g13ZUs3RT8fmnqTbj7DFP8WL9h5ylMHqWhQ4cOPMiX3Y97wmN/y7KMAQMGQJZlzJkzBzk5OWH9trj7yM7ORnZ2NoYNG4YjR45g3bp1l8w2Kexe2D0CuKhEuW3b/Hh3UCrrF48//jiuueYabNq0CYZhoF27dqCUIjY2Fv369YMkSfx87mqk7Ldl52X3wtpnWVZYu0qKqqq49tprMXDgQNSrV49fp6ZbzQSCmkqVu0tYhH3BAkTswcImr7y8PKiqyh82zGzNHpyGYSAUCsEwjHJtX1paGggh6NatG1RVvWjiYJkDuq6HTUA+nw+qqsKyLP49XdfD2u+eLNgENnfuXMiyjBUrVsA0Tdx+++2QJAmapuHxxx/ncjl79iwiIyOhaVpYUCGbXFRVhd/vh6qq/LNQKARd10sdsMoCE92Bi4QQKIqCs2fPwuPxgBACWZbDghiDwSBUVYXjOJAkCbIsczmw8wQCAf5/y7Jgmiaio6OLbI9bsWBm9GAwCMdxoGkaFEWBaZrcyhAMBvl7ERERJb5vWZbD+qBblsB5KwSTY+PGjTFgwAB8/PHHWLZsGcaNG1ciS4CiKOjWrRu6detWojbl5+dz14q7r7NJnREKhcJce2ycyLLMlQNJkvDwww+DUoply5bxfk4p5e0JhUJcBu5/ZVnmcpEkKWxcsOMsy4IkSWWSOftbxD4JBJc3VTp6bduGbdtIT0/HkCFDULt2bSiKgsjISHi9XtSuXRuPPPIIvv76axiGAUopNm3ahL/85S9o2bIlDMNAVFQUOnTogIkTJ5b7aufMmTPYtGkToqKicO211/KJ1c3WrVsxbdo0NGjQALIs84m2fv36mDhxIrKysrB3714sW7YMd911FzRNg6Zp8Hq9MAwDLVu2xIwZM7Bp0yY+SUqShGXLlkGSJPTq1esiK4nP58OXX36JBx98EIZhwOPxcDP7jTfeiJEjR6JHjx6oV68evF4vWrZsifvvvx979uy5aDIqK+52DB8+HA0aNECtWrV4OxRFwZQpU7B48WLs2rULb731Ftq2bYuoqCguJ4/Hg+TkZHz88cdYu3YtCCEljnc5ePAg5syZgxtvvBGRkZGoXbs26tatizp16mD48Oi35RcAACAASURBVOGoU6cO6tSpg4iICIwdOxbbtm2rcBfP9ddfD0VRkJWVxSff8iYzMxNDhw4Nk6OiKIiLi8Obb76JTz/9FGvWrMHf//53Lu/IyEgYhoHatWujd+/eSE9Px4kTJ8LauGTJEvTu3Tss5oRx9OhRzJ49Gw899BDq1q0Lj8fDX506dcL999+P5s2bIzo6Gh6PB3fccQceeughnDhxAoqiiBogAsEVjESr2LnO/NAAkJKSgszMTD6ZDx06FB988EGY1YKtokaNGoW0tDTcfPPN2LhxI3+YlUeQGlupL168GGPHjkUwGEQwGASlNGylBZxf6amqimHDhmHRokX8/Xbt2mH79u18la1pGvx+Pxo2bMhX2YQQTJo0CZMmTeIrRNM0oaoqEhISoOs61qxZEzbxMosBWzn26tUL33zzDVdEBg8ejPnz54NSiv3792Pw4ME4ePAgn/jnzp2LlJQUeDwefr4///nPF5m2dV2HZVkYPHgwWrVqBQCYNm0aJk2ahNTUVCQlJYVZdkaOHIkFCxbw7/fo0QOffvopNE2Dz+eDYRhIT0/H4MGD+TGqqmL79u1o2bIlX3Uzy4/bRM6UL/fvw2S1cuVKDBgwgMuPUopgMIhQKIR77rkHmzZtAiEEkZGRePrppzFp0iQQQpCRkYE9e/Zc9NsrioKbbrqJB2tKkgRd1zFgwAB88sknl1xVE0LwxRdf4J577glz65V3eqrP54Ou6/B6vWHWnOeeew7PP/88dF3nVoxly5Zh6NCh3Bqgqiq2bduGm2++mZ/PcRzs2rULPXr0wDPPPIOJEyfyczLYGHUcBx07dsSePXu4G2Xq1Kl45plnIEkSli9fjoEDBwIAt+z99NNPAMB/v0v1N2bxGjx4MH7zm98AAIYPH47U1FR+P8JlIhBcflS5u8RtUmZmd2Z+tW07bHKxLAuBQAArV67EkiVL0KRJEyxatIifo7wUDPbw3r59O0zThKZpha7wgAuuhIKm8d/85jdQFAWUUm4urlWrFncPsQc/m8DZuWVZht/vR3Z2Np588smLJlg2yTH3Uo8ePfDll1/yz90m/FatWmHKlCkYOnQogPOTxeTJk/lEAJx3afzmN7/hkwY7hyzL3CxfGAXb4ZYfcF7JYN+NiooKOzc7hhCCNm3ahCmHmqaFxeewycWyLC4HNtkwRYgpGEwBYwrVtGnTcPfdd4MQAr/fj1deeQWjRo1CgwYNUL9+/UJX2IQQXH311aV2KUmShDvvvJMrJRs2bEBCQkKJv19SIiIiuDuC4TgObr75Zt4HmQLJZMJk7jgOWrVqFaYoEUJw8OBB+Hw+3H333XAc56K+zP4vSRJatWqF3bt3h12b/c59+/bFoEGDkJ6ezt0lzz33HF599VV+vGVZF/U34EJ/EjVDBIKaRZUrGaXBtm089thjWLx4MQYNGoQ5c+aUezopeyhLkoTNmzfDcRxERERUSuEtplCkp6dDURTceuutXMEpyyqOEIJ77rkHmqbxeITjx49j+fLlfKWuaRrfO6OgxQRAlawe2US3b98+7N69Gx07dkSLFi1KdQ4WX8AsYIysrCyMGDECCQkJhcZMuBWgsmLbNrZv314hSkZ5Y1kW0tPT4fV6ERcXB+DiDJqSIssy+vTpg2XLlnEl6P3338df//pXfoyqqoX2N6ZUCmuFQFCzqPYRVSyFMicnB3369MGmTZswf/58fPjhhzAMo0TBde6od3dGS2EvtuojhGDTpk2glOKxxx6rlBWWJEnIz8/H3LlzoWka2rZtC9u2S50RwlAUJSxok1mHCmYnsOPc8RTMIsICJ/Py8rBnzx7IsozTp08Xar0oL88bC+ZMT0/HiBEjsGvXrmInn4LXdrsNGI7jYPPmzdwa4L5f94u5Fmzbxrfffguv14szZ87wvngpZFlGQkICJEnC+vXrf50QKhDHcWCaJkKhEE6cOIEVK1agY8eOPIj51wRaRkRE8P4aGRnJ3YwMZhG8VH9jGUKhUAhnzpxBREQETpw4USHZYwKBoOKp9pYMFuw5atQoxMTE4LPPPkPTpk1LlcPvVjCKUxaYssFiJlhmR2WQm5uLHTt2YPTo0Rg7diy2bNkCVVXLXHzLcRzk5ORwxYkFW7plcKl7Y/Jl6Yqff/45+vXrh8TERCiKghMnTqBJkyb8+PJcgbpdR8wVUlpYHIwbQggGDBhwSdcXAG7FAoDs7GwcOXIEc+fOBSEEGzZsQNeuXS8pM0mS0Lhx41Kn41Y2zGKwb98+7Nu3D3PnzgWlFF988cUlXSYlPW9OTg4Mw4Df74fP54PH47ko9qIw2O+hKAqOHTuGDRs2YPTo0RgzZgzWrl2LgQMHiv1dBILLkGo/ateuXYs+ffpAVVUsXLgQHo8HwWAQUVFRJT5HaVZBzKe+ZcuWsPiByqBhw4a8bDlry68JZpUkCbt27UIwGIRhGJAkCc2bN8ddd91V4nOwCbl37958lV/WuhOViaIoyMzMRCAQ4O+1bdsWPXv2hN/vLzZNFgDi4uLQpk0bXonTMIwSFWNTVRWfffZZtVUyTNOEruto3LgxbrzxRq40sZorZVUYZVnG+vXrw4K5x48fX6r+K8syYmNjMWzYMADhKdkCgeDyo9qOXEVRsGXLFqSlpXET/+DBg/HZZ5+hTp06pToXC6Zs0qQJzp07V+yxAHgcRllMx8yl4M42AcCDF92FjNxomsaVCuayYTEZJYUVYNq5cyfWr1+PGTNm8IDa5s2b46233uKBgSVBURSuoDClq6iHPlPS9u3bx++ftX/btm3cOlFYu9lxtm3za7nrihQ8lsnI3Vbm5li2bBmmTJnCFYPmzZtj4sSJ8Hq9Jfb9K4rCfxNWk6IoqxbrL8zcX1n1HSRJwo4dOy6qN7NlyxZ4PB6YphkmJ2ZdYCnHTBalydBifZRl+WRmZmLDhg08O0zXdfTr1w9jxowpVTwTped3pWXfcdfMEAgElx/VVsmQJAnff/99mOsiJycHL7zwAt57771SnUuWZURERODkyZPFrohY7MJnn32GlJSUMrXd/aAuGEFflBndnRlS8O+Ssn79enTt2hV79uwBpRSmacLr9WLlypVo164dFEUJK4hVEgoWoCqqPWzyKagAuNNRC8OtZLD6DywF1DRNnuXDji04CbH3JUnCyJEj4TgOOnfujHbt2iElJQXJycnw+/2lmqzcFT1Lgvt3/TUWgdLiDpp0y9etELrjetj9FDbxl0YZUFUVWVlZWLBgAfbv388Vwy5dumDWrFlo06YNt0SUlIJtE8qFQHB5Uy2VDDaR9enTBzfccAOmT58OSZIQGRmJpUuX4j//+Q927txZ4vOxAlQs2KwomPXA5/OVuf2yLKNhw4ZISkoKs0RYloUHH3yQ1/uoCG699VZMmDABI0aMwIEDB3idjrS0NHTs2BGBQAC1atWqkGsDFywpN9xwAwYNGgTgwv4czPVSmKLBCpIBF5Sx3Nxc2LaNOXPmICMjg3+PpbXOmzcv7Bws1XXevHk8DRe4UOehdu3aFXbfVYmiKOjYsSOSk5MvsrQULIVeXjBl/N5778X111+PBx98kAfbfvvttzh48CDatGnDjxUIBFcm1VLJYLUqFEXBhAkTQAjB9OnTcfbsWQDnA/KGDh2KDz/8EJIkFVtKnJmBSzKxswmRxR6UNXWU1Q9gAZcAuOm+ole47dq1w8SJE/mKnlKK2bNno0uXLujbt2+FXpspAgW3NmfFmS6VGtq1a1ce4MpW4KtXr8aOHTtwyy238PRK9jlTVgpaD9x1MhiVuYsocEFJrixLBpM5K7vPrssKXFVE/Ix7D5Tk5GRkZWVh4cKFoJTi3LlzGD58ONatW8frdwhFQyC4MqmWSoYbj8eDiRMnIicnB/Pnz+fvL1myBAkJCXj88ceLPQczXQ8dOrTYBz8z1R89evSyfDBSShEKhdC7d28MGzYM8+fP52bsRx99FJTSsKqb1YX4+HjEx8cDuBDs991338G2bcTFxaFfv35cmWSWKVEFsnoQCoUwbdo0bN68GUeOHAFwfsw98MADyMrKQrNmzaq4hQKBoKqo9rMo21Vy/PjxF3323HPPYf/+/cWeg1kQ2rRpU+zrpptuQsuWLdG0adNqn0FxKZgFZubMmXwvFEmSEAgE8Morr1TbibmwuAwAPI2YpRezFXt1zd640vB6vWjUqBGmTp3K31MUBYcOHcInn3xSbfubQCCoeKrUkuE2ubJJwx3hzor2UErRrl07vP7663jxxRcRCAR4YaTRo0djzZo1sG0bERERl7Q+eL1eTJo0qdg2UXp+x9czZ84gIyMjrMR1YQ9LltLoVkjYBJmfnx/mymHnMgyDlxdnQYzM2lKamhwsS8Xr9fIYEkmSoKoql9+LL76IKVOmIBgMghCCXbt24fXXX8eYMWNAKS11pk5hOI7Df0v3Dp3uXVjdwZru3525j9wm9YIFtNg53cGj7kqe7poehmEgEAjw7CAm78rAvedKTExMue2l44a54tx9kf3tlmVhu66ynWhLkw7KrEZM3pRSnrHiVgQVRcGQIUMwZ84cbNu2DaZpQpIkvPzyyxgyZAjfYNDr9Yp0VIHgCqJKLRlsRcomKbZKZZMCe1Cxh9lDDz2EDh06hJ2DFa8qz5LEHo8HTZo04ZMUy5goDHeFUAalFGfOnOETI5t0v//+e0RFRfFI/4iICF7Rk6VflgZKKQ4cOBCm4JimyScX27bx6KOPhsUzAMALL7yA//3vf+VWZIzdjzut8ejRo1xxYGm7Z86cCZOTpmk8ILQ0ZbyZZYZNoCxYl2Xu/PTTT1ymlVVIzQ2lFF27dq0QSxghhE/wbk6ePMmVGiYb1geBC4pvaa0/TGFlysmPP/7IA2nZJnCsn5umiQ8//BCKooRtwMcq5jIFSCAQXDkoU6ZMmVJVF2cTbFZWFl5++WWsWLECgUCAT1QHDhzA8ePHUbduXTRp0gTp6elIS0uD3+8PWw3v3bsXX331FY4fP44bb7yRF+r6NUqHJEn4+OOP4fP5cOrUKTz88MOFWkm2bNmCGTNmYOHChWGFmo4fPw6fz4e8vDyEQiGsXbsWU6ZMweHDh/mkats2du3axVfm1157bbFxICwtNSsrC1OmTMGSJUsAXLCkHDlyBPv27YOiKGjRogV0Xcftt9+Ov//971xmhBBkZmYiNjYWrVu3LpN83O146aWXkJmZGWZ1yM7Oht/vRyAQwJkzZ5Ceno633noLP//8c9h51q1bB8MwkJeXh8aNG4fV4lizZg3WrFnDd+Z0/56nTp3CvHnzMG3aNOTl5XHZy7KMdevWIS8vD7GxsYiKiqrUwM+ZM2fixIkTaN26Nd+ptjz517/+hQkTJuDo0aNhCsPBgwdBCMGZM2fw448/YuXKlXj11Vfh9/t5UTdCCNatW4eoqCjUrl0b0dHRxY4RluXzj3/8A2+88Qa++uor7sJUFAUbN27EuXPnULduXTRt2hRerxe1atVCZmYm7+dHjx7F6tWrkZCQgIYNGwr3iUBwBVGlW70z0y/LJCmsdgNb6TKzu2EYvHZGYedjn7lTGMvK7373O6SmpkLXdeTn5xd6DKumeSlLim3bCAaDUBSF78Za2DlYEaLiVt5s/xFW9KogTAbsZ2VmbrelhJn0LcsqsyuhuHaw+2K/RXH35bZasTa6zf/uc7DVvOM48Hg8hf7OgUCAF6aqDHcJm1BZX5g3bx4GDRpU7nveFDdcQ6EQP+5SRddCoVDYrrdFwVx8bOwVBuu/zOrBxiD7XViZdQAi00QguMKoFqO9qAexLMs8LoNNmJdaCbnN7uXxIGvVqhUiIiLg8/ku+XAvuMtnYe2PiIjgfvLC0DQNuq6XeNVbVBVQZtHQdZ1bFpip2r0JXHmY8ourRuqe5AoqP8CF34u5ydyFvJjJnSkYbtg9sQm9MAr7XmUhyzLi4uL4hF+eFCZHN4Zh8DTeS8HKw5eU4s7H+q9bCXS3jxV/K8rtKBAIaiZV6iB15/QzRaIguq5zxcI9CRWGu0JmeWzN3qpVK4RCIURGRmLTpk2Ij4+/qP5BcW1ym/8v9ZBl7SxJXInbMlDYuVjwoW3bfCXPzusu0V3cxFEcxbWjqOu4j3ffr7uWCfuu+x7c3y+uP7jLa1cWu3fv5jEozZs3r5BrFKxwWhC3bC5VFt8dO1PS6xWlILDfl8VqsBc7nsXkAKIwl0BwpVHlSoZ79X6ph15pgvfK0wfONmZzHAfHjx9H586duVuDUZKHJpssi6MkD/2iSkKXpk2/lpK0oySfF3bO0hxXnMwqKx7Dtm2sWLEChmGgd+/eZQqyLAklkVF5luQujfzYuHCnHgsEgisbsawoAkmS0K9fPxBCkJGRUalVHAWXH4sXLwalFP379xf9RCAQCFDFgZ/VHUIINm7ciJ49e6JRo0bYu3cvAFRa3QVB9cbtqjl69Cjatm2Lhg0b4uDBg2FFxQQCgeBKRTwBi4CVtE5JSUFubi62bt0qAtcEHFZMzLZtfPrpp1AUBY899hiA8IqlAoFAcKUiLBlFkJ+fz6sb1qtXD4MHD8Z7771XJQWeBNUPloINALfccgv+/e9/49y5czz4UyAQCK50xFKrCKKioiDLMgzDwJNPPolvvvkGx48fRyAQgGVZRaauCmo+LEZn+/bt+O677/Dxxx8DKL6WhUAgEFwpCEtGCbEsC3fccQeaN2+OWbNmwePxXLSluODKwrIs+Hw+dOrUCUlJSZg2bRqv+SJcJQKBQCCUjBJj2zaOHDmCvn37YtSoURg/fnyJU1MFNRPLsjBixAgAwIcffsjrQWiaJpQMgUAggFAySgwrjXzs2DGcOXMG8fHxACqvDoOg+mHbNtLS0pCUlFRlm7EJBAJBdUYoGSXEvV25u5KlUDKuXNj+KmxfD9EXBAKBIBxh6y8F7lLl5VW6XHD5wgI/2X4hAoFAIAhHWDIEAoFAIBBUCGL5JRAIBAKBoEIQSoZAIBAIBIIKQSgZAoFAIBAIKgShZAgEAoFAIKgQhJIhEAgEAoGgQhBKhkAgEAgEggpBKBkCgUAgEAgqBFGMS1BiKKUghAA4X+1SlmVekIpBCOEVUatLgSrbtnlb3G0FLtyTJEkghEBV1YuOEQgYjuNAlmVQSi/ZT9gYYeNDUDMhhPD+cKlnHdupm22ceCUilAxBiTFNE47j4KGHHuIltdmmYAxKKeLj4/HII4/A6/VWYWsvYNs2RowYwZUfIFzZUFUVHTp0wOOPPw7HccSmd4JLIkkS7rvvPq6UMoWi4DHz588XfamG4zgONm/ejNmzZ8NxnIs+Z9WgExIS8OSTT16xCqcYAYISYxgG3xSsXbt2uPvuuyFJUpgWL0kSGjduXO0G1M0333xRmyRJAqUU06dPB6UUhmFUUesElxNpaWmIiIjA008/jcIKJrN+Vt3GgKB8cRwHtWvXRuvWrcMWWgxZlvHaa6/BcRw8/vjjV+wWFKKsuKDEMNeCYRhISUnBggUL4DhO2O6jzF1SkQOKbVLn7roFrRTu67tN3G6FyLZtvnsqu5+C7h+BwI3jOIiOjoZt2wiFQoX2lcoYA5RS7gZ076PELCwFlX9B+cM2zGRyL4jjOIiMjERKSgo+/vjjK1bJEJYMQZkpOJkDqLQHm2VZ3C/OfKKEENi2DU3Twtrl3tTOTcH3xUNZUByKosC27SKV0croR0yZcBwHpmkiMjISwWCQ/w1c2XEAlYEkSUW6w5gCWNEKZ3VHPFUFlx2yLGPUqFHo3bs35syZg6uuugpXXXUV0tLS0LdvX/Tq1auqmygQVCjTpk1D69at8cILL6BPnz6IjIxEVlYWnnjiCdSuXRunT5+u6iYKBACEJUNwGeI4Dnbs2IFvv/0WmzdvhuM4mDBhAlJSUqCqKnJzc6u6iQJBucMCTR3HwauvvopPP/0UHTp0wE033YSUlBQkJydj4MCBOH78OGJiYqq0raFQiP99OcY6EUJw7tw56LrOraXMcuo4DnRdF0G9JURYMgSXJTt27AAhBLNmzYIkSfi///s/yLKM5ORkPPzww1XdPIGg3GEuElmW8cMPPyAuLg7Lly/HyZMnMWDAAEiSBNM0sWLFiiqPK3IcBxMnTsTChQurtB1lZdGiRWjWrBkefPBBnDx5Eu+//z6uvvpq3Hnnnfj+++8LDfgVFI5QMgQCgUAgEFQIQskQVDispsbXX3+Nl19+Gc2aNYOiKNB1HW3btsXkyZPxzTffIBQKwbZtfPTRR+jZsydUVYWiKPB4POjZsycWLlwIv9/PzZWSJGHp0qVISUmBoig8UyQiIqKqb1kgCINSiiNHjmDGjBlo0aIF7/9RUVF45plnsHHjRh64vH79ejz99NNQVRURERG4+uqr0apVK8yYMQOnT5/mAYW6riMtLQ2SJCExMREA4PF44PV6LzLlW5aFQ4cOYcaMGXz8GYaBWrVqYcKECXz8EULw9ddf4/e//z28Xi8ff507d8Ybb7yBw4cPwzTNYu/32LFjeOedd3DDDTcUe2xubi6eeuopREREQNd1eL1eDBo0CM2bN4dhGGjdujXeeOMN/PTTT/D5fGX7AUqA4zjw+XxYsGAB7r//fvh8PvzlL39BbGwsRo8ejY4dO2Lbtm2YOHFioXUxBJeACgQlhBBCbdumiqLQQYMGUUIIdRynRN8zTZOGQiEaCoXo0KFDqSzL1OPx0AMHDlCfz0fz8/OpZVnUNE3q9/tpamoqjY6OprVr16YDBw6kpmnSQCBAQ6EQP279+vXUMAw6Y8YMGgqFqG3bpb4fQghVVZUOGjSorGIRXGFomkZ1XS/VdxzHoYFAgObn59PBgwdTwzCorut01qxZ1O/3059//plalkVt26amaVKfz0c9Hg/VNI16PB7q9/upz+ejwWCQ2rZNA4EAtSyLXnfddbR79+7UNE1qWdYlr29ZVqHj74033qBnz57l48+yLBoMBmkgEKBRUVFh44+9X9R1GLNmzaLNmjUr0Zi0LIv6/X7q8Xiooih0yJAh/DmwZs0aGh0dTQ3DoB06dKB5eXmlkntpcByH5uXl0euuu44qikIHDx7Mnys+n4/Onz+fer1eWqdOHbpu3bpiz0cIoYZh0CFDhlRYmy8HhCVDUCnIsgxFUUAIQU5ODggh6NOnDxo1agRN0+DxeACAB1lt2rQJfr8fwWAQ9913Hy/57S77vXnzZhBCkJSUBNM0q9wPLRBcCtavPR4PTp06BU3TYBgGHnjgAW6xYPUtgAsxRwDw/PPPAwCvxyBJEmzbxvHjx3Hy5EkMGTKkRCtrZt1g40+WZYwePRqqqvLxB5wfq9u2bUMgEODjj/5SY0bTtEum6DqOA9u2QQjBokWL0L9/f15WuyhYUCUAaJqGpKQkLrNbb70Vffv2BSEE+/btw+rVq4s9X1mxbRv//ve/cerUKSiKgpSUFADnrVCqquL2228HpRQ+nw9vv/12hbWjpiHCYwUVDiuG5TgOLMvCjh074PF4MGDAAK40uGtuEEKQnp4OVVWhaRp69erFXSfsfJZlISMjA9dffz3q16/Pzy9qXQiqI6xeQjAYxPr16wEAAwYMgNfrvUg5lmUZS5YsgW3biIiIwBNPPBGW4RAKhRAZGYmVK1dClmW0b98eiqIUGYxIfynexTKzPB4P/vCHP0DTNGiaFjb+bNtGeno6dz/26tULsiwXm03BlKTdu3dj586d+Mtf/lJi2axatYoXt7rtttv4xG7bNn9fluUSKS1lRVVVpKWlwTRNyLKMwYMHhxXwa9SoEVfmNm3aVGHtqGmIJ7KgwlFVFYQQhEIhzJ07lw9i9nBkhbQYPp8Pp06dgizLSExMhOM4YZ9LkoSDBw9i3bp1vPoigLDKowJBdYJVhszMzISu6/B4PGjTps0ljz99+jRUVeU1MJgSoWkaVzTee+892LaNOnXqcMvEpWCZKStXruTj76677uKxTe7xRQjB0aNHAYCPv8LKZheEFcVbsGABAKB9+/YlKgjGFBNCCOLi4lCvXj3+XNB1HcFgkD8/WKGxikCWZZw5c6ZIiyj7Hb///vsKa0dNQ1gyBBWO4zi8FPi8efMgyzIaNGiAG2+8kT/c3CuxtWvX8gdhly5doGla2EMwNzcXR44cwfz58yHLMr744gvce++9xT5oBYKqgtVX2Lp1K7fE3XHHHQDA+737X2bJK7iqB4AffvgBmzdvxv/93/9BURTs3r0btWrVwrXXXnvJ67Px8+WXX/Lxd8stt8BxnDArCXB+UfDpp5+CEFLo+CvqGkePHsXcuXNxzz33QNd1hEKhSwZiswmbUopVq1ZBURQ0a9YMkiQhEAgAAE6dOoU1a9ZAURR06tQJ3bp1K4m4ywSz9hT1HGH3VJLgV8F5hJIhqHCYqfiHH37Ad999B0mS0LVr14tMvOzvjz/+GAD4g6Vg+d4mTZqgSZMmlXsTAsGvgCkZGzZsAKUUHo8HnTp1CnPxMUU8PT2dT/5xcXHcGsD+jY2NRWxsbKmuz5SEvXv38vGnqmqh4y8tLQ2BQAC6rvPxV9IS5VlZWfj5558xaNAgEEIuaV1k+66wol3btm3j8VWKosBxHOzcuRMPPfQQQqEQbrvtNmRlZZVI2Skr7o3tLmXNYAXRxGKm5AglQ1Dh0F9q92dkZPABnJubiyFDhhTqR16xYgU0TUOrVq2QkJAAQOxoKbi8cRwHP/zwA3bu3AkAaNWqFe6///4wVwXz/2dnZ4MQgoYNG6Jr167lcn3mCtiwYUOx42/nzp3weDyIiYkp1fiTJAkLFy5E7dq1eUrtpeJEmOWEUoqsrCwA5xcVb731Ft59911kZ2fDsiy0b98eY8eOxaOPPgrLssRz4DJEKBmCCoc9aLKyshAIBHjQmqZp3EJBKYVpmjh9+jQPAktKSuKBoUUFtQkE1R1VVZGens4DLL/55puLsjUsy4Jt20hOTsbhw4fRo0ePcuv3siwjLS0NhBDouo6VK1RF3AAAIABJREFUK1fywGrgwvizbRv9+/fH6dOn0aVLFz7+LmVBoL/szEwpxbFjx5CdnY3nn38eHo+HB2NfikAgAFVVsWjRIkiShH79+mHBggUYOXIk1q5dC4/Hg9TUVDRo0CBsh+WKgik9uq7zmiXMqsIyeiRJ4oGygpIhbD6CCodFhbOo+ri4OP4+w3EcqKqKpUuXclPtH/7wB154SJgnBZczlFJ88803cBwHCQkJhZrkJUnC999/jzVr1kDTNPTr16/clAxCCDZs2ADHcYocf4cOHcLXX38NSimSk5P5+LvULqJM+SCEYNmyZYiIiMAf//hHrlwUtfuoYRiQJAnZ2dkAgPj4eDiOg379+iEiIgKUUixcuJBbQg3DqPCdZTt37swXNewFXMhoY3/feuutFdqOmoR4cgsqHNu2sWLFCpimCVVV0b17d4RCoYsUB0mSsG7dOti2jZ49e4qtqgU1BkmSkJGRAUopevTowTOqCloINm7cyFfQPXv2LDclw3EcZGRkQJZlPv4KKgCSJCE1NRW2bcM0Tdx7770lvjdJkrBlyxb07t27SMsHg7mGtm7diiNHjkDXdXTv3h2EENx1113weDwIhULYuHFjpVkNKKW4/fbbuSVj69at/BlFCMGqVat4Km9FBqDWNGqUksHMdqZpwjRNBINBmKaJQCAAx3F42eqqig52HAemaXKtmO2oWNNRFAVbtmzhUeqtW7dGRERE2L2ztLxVq1ZB13XExsZecSZJlqZnWRYCgQBCodBFk4xt23wSIIRwEzcr3V6RdQSqC+6iT8zFwGTH6ipUB1ibKKVYu3Ytn6Datm0LSZJgGEZYQDOlFEuXLoWqqmjQoAEiIiLKbafPbdu2caWCjT93Wiobf7Nnz4aqqmjcuHGJrYehUAihUAgrV65ESkoKbNsuNp2cUgrLsvDFF19AlmXYto24uDhomoZatWohMTERhmFgxYoVYTu6VjQ333wz6tWrB8MwsHLlSj5fsFodbI5hmUGC4qlRSgYbKJZloXbt2hg1ahRSU1P57nlz585FixYt8Pbbb1eJkpGTk4MRI0YgOjoa48aNA4AKjZauTrCAs8jISCQnJwO42L+6ceNGPpCTkpKuOCUjMzMT48aNQ926dfHwww/zCqluLMvCggULEB0dDU3TEBkZySej9PT0K6JWCKUUw4cPh6qq8Hq98Hg80HUdderUQTAYrNRJqSiYmd+yLGzdupWnovbr169Qv75pmvw4NkbK6/mwZcsWEEJgGAY/d0ElgllRmMuiJAoOc6UsX74chBAkJiby2htFwa796quvAgD69OnDLSCEEDzzzDMAziuUy5cvL/X9lgWmnL766qvQNA2vv/46cnJyAJxX7mfPng3TNDFo0CB06NChUtpUE6hRSgZbKaxevRrjx4/HO++8w1fPjz/+OEaNGoXbbrsNSUlJVbLaufbaa/HPf/4TlFLk5+dXm4dhRXPq1Cls3boVhBA88cQTPIDKjSRJ+OKLL0AIgaIoSEhIKLdV3OVCYmIiZs+ejVAoxNMZC1q6WLCgruswDANPPvkk5s+fj3/961/o2LHjFWHJkCQJjz32GBYsWIAPP/wQgwcP5n2loHWgKmEuEUopFi1aBMdxePXMwsjKyuIlrTt37gxd18vtOZWZmQnLstCnTx8+/tznZuPPsiwoilIqdwAhBJmZmbjnnnu4olCSdq9atYqnsnbr1i0siLRZs2ZISEgAIQRz5swp0z2XFub2SU5O5vEozz//PE6ePInJkydj27ZtaN++PaZMmXJFKPPlRZWORlb8hFIaFlzknoB8Ph+vGMl8ZSwCGLiQt6woCi/g1K5dO7Ru3RqGYfDAofbt2yMyMhJjx45FgwYNoGkagsEg3w+gsAAl90BhpllJksLq/JcGFqnNBpbH4+FmQ5bSxdrBZAOAmxPdJbgLyikYDPLPq8tD1jRNUEqxYMECPvkZhsFXcczsLcsyDh06hEWLFoEQgltuuQWUUvj9fni93iprP5MpW4EWBusjLBqd9c2iAt4uBdvxkj1sC7umrutQVRX5+fmQJAndunXjeywUhLlPWEQ8AN6n2Lkty7ooql5VVT4RsuPdY64iCQaDXMFyt8c9RhVFQffu3Xm7Dh06xGMMKqPvuwMDi1qxM7dWTk4OsrOzQSmF1+vlbi5mqSKE4NSpU3jjjTfCSmtblvWrJjM2/vbu3Yt169bxmhzu8ccyJw4fPoxFixbxe+rYsWOJ3B4sqDstLQ0fffRRsc9G5uYDgNdff50rJY0aNeL1J1RVha7rSElJwYYNG7Bx40akpaWhV69efM+XioA9kwHg3XffRVJSEpYuXYrJkyfDtm18/vnnPKVXUHKq1JLBOj1TEtiAY52freJYR3RXiGOfM6WDDUhFUdCwYUM0bdqUm9o0TUNsbCwsy0JCQgIMw7hI03Zf031u9mLBWBWR5RAMBnmFO3ZtpjCxBxqr+Oduk7utTAmpTuzfvx+dOnXiGzwBwLRp09C9e3fs2rULlmVh//79eOGFFxAfH4+jR4/yOgEJCQnYu3dvFbb+PO7o8qL6CFOWdF2vNnE2bEJhijR7iDOlFQDfn4JVMnQXhmL9ik1WlYHH4+GTUCgUgqqqsCzrsrT6HThwAHfffTc6dOgAx3GgaRrS0tKQkJCANWvWIBAIgFKK/2fvzOOjKNL//+lrZpJweLCScBNUUEHkjiHyU1dWkAAJIeEGEUVQXAHx9osIHogL6noDruK1ARISCaCi67rIkXAjriKKyBFBdNcFkpnp8/n9gVX2JBOSQI4JqffrNS/CdE93dXV111PP+fTTT6Nz587YsWMH97m54oorkJOTc1aaKfb8MaEdOJVoiz1/TJB/6qmnQp4/n8+Hyy67DB999FG552AOkR6PB6mpqRXa/91330V8fDy2bt3Kv58wYQLGjx8f4ieSmJgIn88Hy7Jw8803o3nz5vjmm2/OoCcqjyRJ6NevHxYvXoyFCxciMzMTV1xxRY2c+1yjVmclJlhs27YNH3/8MZ9U3KFDRISMjAzExcWhsLAQa9asgWVZ/OFj4Y2JiYlo1qwZ+vXrx52aPvjgAxARbrzxRr7iUBSFD+Rt27YhLy8Phw4dCvsSc2sNZFnG4MGD0bNnT7Rr165K+6GwsBCrV69Gfn4+v25WtZQVKIqPj0dhYSE2btyIw4cPAwi117Zu3Rq9evXiuSUigfj4eGzevBkA+OqDrVLZZNauXTvMmTMHc+bMCbHJRkJujG3btmHdunX497//jWAwWGp7yfGRmpqK2NjYiPE8Z1qtTZs24bPPPsOXX37JhXJZltGpUydce+21uPrqq2GaJtasWYMPPvgARUVFvO+ZDb+ikQZny48//oiRI0di06ZNuPrqq3HkyBHccccdmDRpUo2cvyq57LLL8K9//StEW8u0MkwQtSwL9913H2bMmIGoqCiu6TRN86zNJez5s22bH9udsZI5n95///148MEHQ3JBVCRChNGpUye8+uqrfBF4OjRNw6hRozBq1CgAvyflUlUVhmGEaCmuuOIKXsPINM0afa+507gzB95Iea/WOShCsCyL5s2bRz6fj1RVJU3TKD4+PmSfYDBI33zzDUVHRxMAAkCKotC0adPItm0yTZPvaxgGzZgxg1RVpaeffpqCwWDIdnY8y7Jo+vTpJElSyDEty6K9e/fS888/T1deeSV5vV5SVZXat29P//znP6m4uJgMwyDTNMnv99O8efMoPT291CcjI4OGDh1KJ06cIMMwyHEcUlWVhg0bRo7j8HYHg0F65plneDskSSJZlunTTz8t1U+JiYmkaRrJskxer5fatWtXfTfGheM4ZFkWKYpC6enpvP11Fcdx+P1IT08vtZ2Nj/Xr15OiKKXGh67r9N5779G1115LXq+XNE2jmJgYeuaZZ/j40HWddF2nBQsWhB0fw4YNo+eff56OHz8e0r8jRozg7SvZ5qysLD5GsrOzK3SthmFQRkYGSZJEUVFR9O6771JRUVHIcQ3DoGXLlpHP5yOPx0NJSUl06NChs+vkCnLy5En6/vvvqV27dtSnTx8KBoOk6zrNnz+fvF4v3X333VRcXEy6roeMOcdxaPbs2fy+hOuzqkbTNPJ4PNV6DkHdx3Ec8nq9NGzYsNpuSq0SMaKZJElo3bo1l2qDwSB69epVap82bdqERIbYts1rALglTdu2sWnTJng8HgwfPjxsKWQmrffs2TNsm2JjYzFhwgTcdtttuPDCC2FZFr7//nvcdttt2LZtG7fXK4qCqVOnlinFs/wQZcGO4a5HwL5LTEwstW+bNm2wdetWSJIEwzBK9ZOgamDalB49epS5vX///khJSeHjwzAMzJkzB1deeSWuvfZaviKaNGkS7r777lLHcJsFqzPSiJklJUlCz549kZKSUip8kojw448/8hXc0KFDERcXV21tckO/aRyPHj2KJ598ErquQ9M0TJw4EQsXLsSbb76JAQMGICkpSTjdCQR1iIiJLmGTKps4mVqxJOGiEpivBHtREhGOHDmCnTt34oorrkCzZs3COmmpqnpaP4uYmBjuaDRo0CCu5jxw4ACee+45LuwwZ6WycKs93apTANzxCgjNjscEIE3TQuyU7uQw7JrrW6hnTcHGYFmTmqqqaNiwIRRFwaBBgwCcui9+vx9vvPEGz4nCshWGQ1EU7swJhDobm6ZZZf4dhmFgzZo1UBQFqampYdXhkiQhJyeHX3NNhhGvXbsWhw8fhm3bSElJgaZp3J+kV69e8Pv9eOKJJyocuSAQCCKDiBEyFEWBoig88QlzcnSjqmqpyoEAQhwkbdvG+vXr8dBDD3EnqpycHOi6Xup4zAmuvBcp89dgbWITB4vPZ5MRO164j6ZpOHz4MF566SU0btwYW7ZswdKlS7n3fEmhigkPTLPjxu2Ux/4vqHqYX8zpxoe770s6LPt8Pj5Rnm5sMCE1Pz8f8+bNQ1RUFPLz87Fp06Yqc3h0163o0qVLKcHYcRwEg0HuF5SQkICLLrqoxoSM7OxsAEC3bt14n7Bn409/+hMsy+Jp6YWQIRDUHSLGXFIVsII8Xbp0wdtvv81DsJjQUtmXE1Mv+3w++P1+/j37f2XV282bN8fkyZMxceJEqKqK4uLiSv1eEFkwJzlVVUPGB9NIVXZ8JCYmomPHjpg6dSo0TUMgEKgyE8qbb77JhfDExEQ+thmqquLDDz/kjrnXX389j0KpCfPEqlWrYFkWmjdvzjU4DRo04GHErJDYCy+8gAceeKDa2yMQCKqGiBQy6Dfv95JmjIoICUw1zULGWOgpM41UBLdmhNnZP/vsM76qbdq0KcaMGVPp6yqZ74IVASqLcNvc3t+VEZrC+aOUBTPFMI9uYY4JhY0P5o1vWRY+++wzLtDato1hw4ZV+rj0Wx4FtopnEQFnCmsLAF4TZujQoSH5WBi2bWPr1q383l9++eWwbbvG6scwLSEzT7JnxS2wMW1LZU2EzMRSkeefPSdMuGPP2ZnkPREIBBEqZLDkW4cOHcLSpUv59/RbkiKv1xuycmSwF4975XWmSZEsy8LGjRvxxRdf8FWgx+NBs2bN8NZbb6FNmzaVngAURUFUVBT//+lWiEydzRLkuEsdFxYWlltGuSTDhg1DVlZWhfZloW1vv/02T4Es+B0Wer1//35s3boVixYtAhFB0zSYponnn3+eZz+sDG7BuirysbA8Hrm5uTyT45YtWzBy5MhS+2qahvz8fKiqCp/Ph759+9bofWdJwZiQA/z+HmBCl1u4qygs/HD8+PFYtmxZhX/XqFEjHD169LQVSAUCQflEpJBRm7BseNdffz02bdqEmJgYviL885//jEcffZRPKHXJNuwW1sqDfktuJl6wpWHjY+TIkcjNzeUaMtu2MWLECDzwwANo0aJFpSfD6oDdvxUrVnC/kFWrVqF9+/al9jVNExdeeCEURcFdd93FBYy6NMbDwRL9vfXWW3jvvfcqfE+YvxMTzgQCwZkRkUIGy57YsmXLELUzi8QYO3ZstZ2bTa5LlixB//79eUifZVlYtmwZHnvssZD05tUFyyKZnp4e8pIzDAM5OTmVttVX1lzi8Xi4tkiUXP8dNj6WLl2KtLQ0/OMf/+DVP5ctW4ZRo0YhPj4+JOFSbcHG0OrVqyFJEuLi4njbGGwyzc3N5am5R4wYwe95dWS4DQfL7OluG3Oydidnq2xCJKbxq6igwJ4TJjgyXxCBQHBmROTT485MV/L76l4dsuiV2NhYjBs3LkRjwaJDmP24ul8+4a6Vta+yAg5TRYdLSV7yA5yKqPF6vWIVVwLW/36/H48//njINsuy8PDDD4dkVaxNHMfBrl27eNtY3QX2HLGIqGAwiNzcXMiyjEsvvRRXXHFFWJ+o6sRdMoDhNgmyejAs/X5FYVpId62O033YvSMiXkeltu+jQFCXiUhNRm1iWRa8Xi88Hg+mTZuGJUuW4MCBAwBOvfReffVVpKSkoHXr1rWuDq8Mmzdv5unIyxNS2LZu3bpVeQr1ug4bH6qqon379pgwYQJeeuklAKdWv9u2bcOKFSswdOjQWh8fiqKgoKAApmnCcRwMGjSo1ITJfJy2b98OIkKXLl1qJfdKUlISNmzYUErLwvyjmMZl+PDhlTouE6Y2btyIwsLCSl3X0KFDufAhhG2B4MyIKCGDTW5lrRzckRVVgbvCJIOteJgNe+3atWjfvj1X1+7btw8TJ07EmjVrQETVVhGQXSMTCNyVV1n+hsqo4zdt2oT8/Hx+zNPBVpStWrVCfHz8GV5B3YeND/d4Y+ODabiefPJJ7Ny5E59//jksy4Jt25g4cSJ69OiB5s2bV9v4qCgFBQVwHAc+nw+9evUq9WxJkoSff/4ZBw4cgCRJGDBgAPdjqEn69evHK266+92yLHz44Ye8/Pkll1xSaSFIVVUUFBSgoKCg3H3dz1lycrKoVyEQnCUR+QS5J9iSVKUfBHtZuSdrd9ZQSZLwhz/8ARs3bkSfPn14eebNmzdj/PjxWLhwYbVNIiyipOQqiglalY0umTp1asj/y0swVdur8EiA3QN3xtWS48OyLCxevBidOnXiPg2WZeHWW29FXl5erQoZzAziOA6GDx+OVq1alXp+HMdBZmYmgFPCfU0VQivJqFGj8Pjjj6OwsBA//vgjWrRowbUIhw4dguM4vMpnZcYm23fq1Kn8uTkd7hBWVhRLmEsEgjMnIp8e5jNw7NixkO+JCD/88EOVOSIyAePQoUNltkNRFFx66aWYNWtWyG+WL1+ORYsWVUk7ymqboigoLCwMESYkScKBAwfOWthyT5YlPyX3qa8wIaKs8cEmrdjYWMyaNYuvek3TRH5+frWOj4rwj3/8g/uGdOjQoczsttnZ2bBtO6ymo6Zo1KgR5syZA4/Hg5dffpkL1zt27EB+fj4SEhIwceJEPvlXBiaQn27MlxzrLI+NO7OuQCA4A6iWYVUu58yZQy1btiRVVXkFUlmWacSIEbR06VL6/PPP6e9//zslJSVRTEwMSZLEK5ZecskltGDBAsrKyqKioiJeHbU8Nm7cSNOnT6fWrVvz43k8HoqOjqb/9//+H61atYqKi4vJNE3SdZ0SExPJ4/HwtsmyTPfffz8/55myZ88eevbZZyk+Pp63w+v1UnR0NPXp04eysrJo48aNtGLFCvrzn//MK9W62zFt2jTKzs6mQCBwxu0oj/pWhXXjxo00a9YsSkpKKjU+rrrqKnrhhRfowIEDfHykpaWRx+MhRVFKjQ+/319lbS6vCuuePXvonnvuoZYtW/J29O7dm+6991765ptvyLIsOnjwIL333nt0zTXXkCzLpKoq+Xw+mjZtGn3xxRdV0tbKYNs2GYZBY8aMIY/HQ8OHD6fnnnuOGjduTNddd12Z1WBFFVZBpCKqsJ5CIqrdpaphGDBNk2f5+03w4Suu48ePw+fzcTOB1+vleSoYwWCQr9g8Hg9PhVzeqswwDO59zpJkuWumMCc/FkJ3/PhxNG7cOMR8EQwGK51RtCRFRUUwTZMX2wJ+T6TEfFDYisrdTyWvhWU6rS47MrmSoQ0ZMgRLly4NSRRW12BD3+PxIDU1tVSyJsMwuFYtOjoawO/jw90XLJfCf/7zHzRu3DjERMLSYrPzVEWb3Y6lWVlZGDJkSEib3Vll2XhyO096vd4QUwAbY7quh9TaqUmIiEc0rVixAl988QXXwPTv3x+NGjUq83ePP/44Zs6cCUVRYJomgMqZVCqLx+Ph/SUQlAURISoqCikpKdwkWR+pVZ8Mlg9D0zQYhsFfbO7wOU3TeFiZqqqlQsqYSUOSJF4LpDKTHnOiZDCbOhMcWGplXdfRsGHDUrUcPB4PbNs+q6Q9Ho+HC0fsGJIkwTRN7mDI+oTtQ79lIHVfh7sPBVWDx+PhExfw+/hwb/N4PDAMA+effz5Xu7P7yMZHTaXoZg7BTIBizwIrPujz+fgzw9oOgI81JtzWNPSbE7Wu6+jXrx9uuummkEqxTHASCAR1i1p9at0vjbJewA0aNDjtMVj1VuBU4bLKEO6czBZbkrKOzSqong3h2qEoCmJiYkK+O50AcS4lzAoEAnyiZhoqy7JCrrEmhCl2PrdmouT4YPe+OsdHZSiZut79fcOGDUO+c18Xa2NtTeRMGKrsM1wbsEgzt8a1LsKioZjPCltUsQVWfYNcfjmO4+Drr7/Ge++9h3379kHTNNxxxx3o3r07gsEgvF5vnRirkUDd1HMLzmkkScKxY8ewfPly5OTkYNOmTSFarPr4AhQIqhpmhs3KykJubi4+/fRT/n19xC1gZGVl4eqrr8bBgwcxb9489OzZE3379sU111yD48eP12uH+MoihAxBRMB8H4gIWVlZuPLKK5Gbm4ujR49i4sSJuPHGG/HDDz9wPwnB74XaKEx0xLkOu152/fV1YjwT2HO2e/dudOrUCYsWLcLRo0cxdepU9OjRA7m5uSEmt/oCM1FnZWVh4sSJ0HUds2bNQlxcHG677Tb06NEDO3fuxIwZM8Q7qBKIJaEgImAOi3v27MHkyZMxcOBALFmyhBfuuv322zFnzhy88cYbCAaDpUxJ9Q3me8EcEJnjsWEY55TpLBzMCZwJGmWF5gpKw/zH9u7di+7du0OWZezZsweWZaFZs2YYNmwYxo4di19++QW2bZdrrj6XYALrM888A8MwcP3116Nt27bcn+nWW2/FunXr8P7772Pfvn248sorT3s8Nkbr+9gUmgxBRGCaJlRVxdixY6HrOlJTU7lfRnp6Otq1a4cVK1YgLy9PmEvwewSWu3iY25HzXIZdL8sfw/pAUDECgQAyMjIgyzJSU1O51uKmm25Ct27dQESYOXNmvXvOJEnCf/7zH3z11VewbRv9+vXj40xRFLRt25ZHk73zzju13dw6gxAyBBFBVFQUcnJy8MMPP0DTNAwcODAkvPLyyy8HEWHs2LE4evRobTe3VmFmAlVV8eKLL2LMmDEYPnw4duzYUeuVX2sCSZLw3HPPYezYsRg5ciTy8vK44CE4PYqi4J///CdP6Jeenh6y2k5LS4NlWXj55ZdLJUOsD2RlZcE0TRARbr/9dl5ewnEcJCQk8L7avHlzuccS4/EUQsgQRAyrVq2Cruvo0aMHPB4PD9tVFAVpaWncpFKRB/xcxTRNNG3aFMOGDUNKSgpiY2MhSRI8Hg8P4T7XYeYS4FRUSnx8PIYMGYJhw4bxMVKdsImmLmpPWJ4V4FT0VK9evaBpGjRNg6IomDRpErxeL/x+PzZu3FjLra1ZZFlGfn4+97dgUVqyLPOiiIwNGzZU6JhC+BU+GYIIQZZlrFmzBpIkITY2ludFYA8oW1EQEfLy8pCenl7LLa4dVFVFz549kZiYyMM+mdMsULkcMXUVVVVx9913l8o9YpomJEmqd2r+yiBJElauXAnHcWCaJmJjY/kzxkKaWb6dVatWVbrqrUBQEvE0CiICIsKJEycA/J5gjQkVLG6fJWVzJ8eqbzCthdsPgeWKORdyN1QUds3ua2VjRlA2juMgEAiEZDlmYwcAzygcDAZFzRZBlSCEDEFEwCaMktEC7iyqQvWIsP3i3lYfBIyyBImaLk9fF2GCOxCaRZWNHbdDbX0YS4LqR4j9AoFAIBAIqgWhyRBEBCxaoqSKlv2frb7cdUEEAkHlYM9PyQRuzMzGnGolSap3pifLshAbG8u1O0yjw/LRAOAZh+Pi4mqtnXWN+jWKBBELEYWtZMtegiyWv74n4RIIzgZWwZo9b+7v3QJ9ycKR9QEiQlpaGjfX/vvf/+a+T7Zt88gTSZIwdOjQ2m5unUEIGYKIgIjQr1+/Ut+zB/zQoUNQFAWBQADJycm10EKBoO5DRLjhhhugaVqI1pBVCt61axdUVYUsy7jhhhtqsaU1j6IoSEhIQJs2bUBEyMnJAfC7I/rRo0e5tjUjI6OWW1t3EEKGIGIYM2YMJElCbm4uTNPkIYlEhM2bN0NVVTRu3BgpKSm13VSBoE4iyzKGDx/OQ3+XL1/OV+eapiEvL4+HBtfHMHEiwhNPPAGPx4P58+fjhx9+gGmaCAaDePHFFxEMBjF06FB06tSptptaZxBChiAicBwHf/zjH7n3+7///W+eNtvj8eDrr78GAEybNi2kRLlAIKg4tm0jLS0NwWAQRITvvvsOkiTx8N8tW7YAAAYMGFDLLa15mCnppptuwpVXXomioiJkZmZCURSsXr0aW7duhaqqePDBB+tN4ruqQAgZgoiA1d2YPXs2JEnC22+/zZ3UCgoKsHfvXiQmJuLee+9FMBis7eYKBHUSVuzrueeeg+M4WLhwIXfwzM/PxyeffAJJkvDEE0/Uu0qjkiTBMAwoioJ33nkHo0ePxvz589G3b19MmjQJkyZNwtatW9GhQwdER0fXdnPrDCK6RBARMIfOGTNmYOfOnVi0aBF++eUXdO3aFTNnzkRSUhJee+01eL3eep8rQyA4UxxRWr5/AAAgAElEQVTHgdfrxfjx4/HLL79g/vz5uOGGGzBo0CA88MADSEhIwF133YWWLVvWO8dPWZa5GSk+Ph5vv/12Lbfo3EAIGYKI4+WXX8btt9+OgwcPQpIkfPTRR+jWrRsURREVNwWCs4SFYT7yyCMYN24c8vPzIUkS1qxZg169enHHTyHMC6oCIWQIIo4GDRogISEBvXr14jH99TFuXyCoalhFURam2bJlS7Ro0YJvZzkyhDAvqCqEkCGIOFj1VYFAULUwJ8/yEM+foKoQI0kgEAgEAkG1IIQMwRnB8leUTANORCGlxyOBcO1hhaCE3VlQGRzH4Rkzyxo77BkQVUzPbUzThG3bp43CYdlT6zPCXCI4I9gkXXICtyyLv4QjBWaD1nWdp1JmkwTLdCgQVAQmQDDHyHATDBtX9S06o77hvv/h3nfMj8xxHO5XVh8RQobgjPjpp5+Qm5tb6iUryzLi4uLQsWNHnHfeebXUulB0XUdeXl6IxzxzblMUBZqm1XILBXUFNm5kWcayZcvKnDiSk5OFkHGO4zgODhw4gC+//LJMrRVzpBVChkBQARzHgWEYPN1wVlYWry3CkGUZ3bp1Q/fu3WurmaWQZRnZ2dmlqrwyNWZKSgq6d+/OBab6rt4UlE0wGMTIkSNRXFyM7OzssPtomoaUlBTYth1ShExw7nHs2DFkZmaWuX3gwIHo1q1bvX6nSBRJem1BxGNZVkitg5IEAgFuLokUDUEwGISmaTBNEz6fr9R2XdcBnFp1sGQ8AkE4WEZIZg4Jp62wbRvBYFBUDK4HFBcXw+fzhR0HlmXBtm0eLVdfNVtCyBBUGMdxYJomVFXlKuNwMJVypKziyvO5YM5ZhmHA4/HU61WH4PQYhgEAPDFcuLHCNBgsLb7g3MQ0TS5whhsHlmVBVVW+PVLehzWNEDIEFYYNldOpgSPR5OAe4mXZRdkLg9lQBYJwMNs6mzjCjRX3pCPG0rmLO8Io3PuOOYa6EwrWR4SQIRAIBAKBoFqInOWmQCAQCASCcwohZAgEAoFAIKgWhJAhEAgEAoGgWhBChkAgEAgEgmpBCBkCgUAgEAiqBSFkCAQCgUAgqBaEkCEQ1GNYorJwFXUFAoHgbBFChkBQj7FtG4FAAJZlQZZlmKZZ200SCATnEPUzz6lAIAAAnvaa1aOp7xUjBQJB1SKEjDqAOz2t4ziiJoKgQumtK4LjOMjPz8eKFSvw888/Y/HixZAkSYwvgUBQJQhzSR2A2c1N04Rt27xQmaB+4/f7Ydt2uQXgTkcgEMDRo0exfft2LF26VBSIEwgEVYp4m9QBmAqbTSiiiJeAabfOVsjweDxISUlBXFxcFbZOIBAITiGEjDrCr7/+it27d6Nr1644efKkEDLqOUSEFi1aYN68eVAUBaZpwrIsXgWXYdt2qagRJpzous6r6YrxJBAIqgPhk1EHsCwLBw8exMiRIzF79mw0atRITAr1HEmS8PHHH+P6669Hp06dkJycDMuy4PP5+D6WZYX4bjCYqU1RFP4RJhKBQFAdCCGjDvDzzz/j2muvRXJyMtLS0gCcWskK6i+2baNz586YPXs2Hn74YXTp0gUtWrQIiQw5cOAAtm/fDgAhGg62PTk5mWsyBAKBoDoQy5cIJRgMcvX3LbfcAsdxMGfOHMiyzD9VjWma0HUdpmnCMAwEg0GYpolgMAhd16HrOmzb5g6oNQHzObBtG36/H4Zh1AsBi/lcGIaBQCDAo4oYmqbBcRzceeedaNasGW699dZSoadMq+EeMywSRVEUREVF8fO4f1vS5CIQCARniljGRCg+nw+6rmPDhg1Yt24dXnvtNbRu3bpanT4lSULTpk2RmpqKG264AZMmTcJVV12FQYMGYfHixUhMTMRLL70ETdOq5fzh0HUdx44dwz333IO1a9fCtm38+uuv8Hq9NdaG2sAwDMyaNQsrV67Et99+i7feegsDBw5ETEwMAHAHYFmWMWHCBEyYMAGff/45+vTpw+9P8+bNkZ6eftrzWJYF27a5kCHCowUCQVUiNBkRjG3bmDlzJmJjY5GRkVHtK/isrCxMnDgRL7/8MmRZhmVZuPvuu3HHHXegR48emDJlCiRJ4ombagJVVfGHP/wB7733Hmzbrjf+A7IsY+bMmejYsSNUVYWqqvB4PCHbmTCQkZEBRVHwxBNPVHqMOI4Dy7Jw9OhReDweHDhwALquV+m1CASC+ktEajLc4Xks3TFT4Wqaxl+u7IUaDAahaRpkWT5nbMyWZWHfvn3Ytm0bbrrpJq4ed0/uwWCQJ2NiqvGSjn6O48BxHGiaBtM0oaoqP467X2VZxmWXXYb27dsDAL755hs4joN27drB4/Ggb9++6Nq1K1/5WpbFJ3x3m9j3wCktBHMsdJ+7MpoQj8fDJ1d2XnYcwzDg8XhQXFwMr9cbIoAYhgHTNOHxeGBZFiRJCnGKdBwHsixzU4zjOHz76QQotq+qqvxv1gdMI6BpWkhEB9uPaSEqAhvnkiQhEAiECBWsjWysW5aF5ORkrFy5Ejt27EDnzp0hSRJ/Jk6H4zh45pln8Mc//hE33HADli9fjrvuuqvC7RQIBILTEZEzMps03NkMNU3jq2jg90nCcRyeQOhcsiXLsoyPP/4YlmXh6quvRiAQQHR0dMhKlflHuCdP4Hehy+/3Q5ZleDwerl4HEKIaZ+fy+/3o0KEDZFmGruuYP38+vF4v2rdvDyLC8OHDYZomN9eEcyRkfzOfDVVVIcsyDMOAqqowTbNKtBDsHJqm8Wtl18Vgk30gEEDDhg15jY6oqCh+DMMwQgQMpik5HayvmFDDzskEmnCRHJqmVasWSpZlJCYmYvXq1Zg/fz7efvttyLJcoXMqioKZM2eGCGTn0nMkEAhql4jUO2/duhX9+vXD+eefjyZNmqBJkyZ45JFHsHnzZl7EafTo0dA0DT6fD+3bt8fNN9+Mb7/9trabXmUQEVauXMnzITRo0KCUJmPbtm149tlncdVVV3GNgc/nw3nnnYfrr78eOTk52LFjB3Jzc9G/f380aNAAUVFRaNCgAaKjo3H55Zdjzpw5WLFiRciqd+3atbAsC/379+daBLeWYMeOHXjkkUfQsWNHREVFQdM0/hk1ahT69u2LCy64AA0bNsR5552H9PR0rFixApZlVYk/BxNWCgsL8be//Q2dO3dGo0aNEBMTw/vhT3/6E5YuXYqDBw9i+fLluP/++9G0aVO+3ev1onHjxnjwwQexdu1aGIYBAOU6tLKJOycnB9OnT8cFF1zA+9Tn86F169a48cYbeR8nJyfj8ccfx4EDB876usvCtm00a9YMtm3jgw8+wKFDh7iAXh5MqNI0jQtZ57q/i0AgqEEoArFtmzIzM0mWZVJVla699loKBAJUVFREJ06cIMuy6KmnniKfz0djxoyhoqIiMgyDLMuq7aafFaZpkmmapOs6BQIB8ng85PV6yXGcsPuz77OzswkA//h8Pvr222/JNM2Q/TVNI0mSSFVV8nq9tGDBglLnNwyDpk+fTj6fj55++mkyDCPsuQ3DoGeffZY8Hg8/r6IoIfv85S9/oUaNGpEsy+Tz+WjBggUhbQoEAjRv3jwaOXIkpaenh/248Xg8pGlaqT5Yvnx5yPUDoG+//ZYMwyDDMMi2bXIch9LT00P26d27NwWDwTL71zAMfk/K6v8RI0aQJEkkSRLJskzDhw+nYDBIe/fupYsvvjjkfMuXLyfTNOmTTz4Je60jR46kIUOG0KeffkqWZZFt2zRs2DACQNnZ2WTbdpnt/O677ygmJoZUVaVly5aR3+8v87oEAoGgpohIcwkR4ejRo9wmPXHiRP79r7/+igULFuCZZ57BokWLkJaWxvdjRcTqKsykAABr1qzhvgyVuS6m6WnRogU3WYSDiNCsWbNS31mWhV27dkGWZaSmppa5GlZVFbGxsadty5QpU/Diiy/C7/dDURQ89NBDSE5OxiWXXMLbOm3aNNi2HaLhoCowLbRs2TLEJFQSWZbRvHlz7pMRrp+YKa5kxszyUBQFrVq1wpQpUzB16lT+/cMPP4ybbroJffr0wbXXXsu/d5uxiIhrairaD6qqonXr1lwbs3LlSgwePLjOPw8CgaDuE5HmEiJCTk4O9ydITk6G4zjYsWMHbrzxRqxevRqffvophg0bxv0xzoXKkUxdLUkS1q9fD8Mw0LJly0r5MTCTittBNhzMGbIkhw8fxmeffYZLLrkEzZo1K9M+T7+FOpZnv09ISOC+E5ZlITMzk29j/h3smhnunA7s+O4wS/b36SZ/VVVBRGX2Hesn5kcRjnHjxmHUqFGVFnqYz0hJIezAgQPYuXMnb1e46qns3jHHVdbP9JszdFnXQr/5oBARPv/8cwAiYZtAIKh9IlLIAIAtW7bANE0kJSVBlmXs3r0bAwcORI8ePfDhhx+iZ8+efCJVVfWcCG1UFAW6rkOSJBw+fBiO46BXr15nFC5aMhrBjTsiwo1pmli6dClkWcaFF1542vMyAaG8id5xHASDQV7gza0xcN8/Fu3C2sU+LBnYrl27uD/Ftm3beAXSsqrRKopSrqDF2ljWuMnKysLy5ctPqw1iGoeSQlJ0dHTY/j169Ci/Xvc1s/vF+oNFvnz99ddo2LAh9u/fD7/fX+a1AsD1118P27bx448/inwXAoEgIohIc0lBQQFM04SiKBg/fjxycnJw++23Y8qUKZg9ezZXC59rEBE8Hg8Mw6iVCWLXrl3o2LEj3nzzTWiahtzcXAwZMuSMnTWJCL/88gufbMMJNuWhqioOHz6Mb775Bm+88QZ0XUdhYSEuu+yyMzpeTeE4TikBqGHDhrjxxhthWVZIzotw2LaN3NxcPPzww9wUeOzYMTRq1KjUvpZlwTRNxMTEcIHINE3hwCkQCGqdiBEy2EoXAHJzc/nKLjs7Gzt27MCiRYuQkpICIqqTuTA2bdqEw4cPl7sfC6vctGnTGZ+LmRlK5qRgPgZlCWldu3YFAD6pnWn68kAgAE3TcOTIEWzcuJHfr6SkJNxxxx2VvpbmzZtjyJAhIUIFW+lXVMgoz6zDTFVurQS7dtYXjHBmCNZnzIwTDAbxzjvv8GMSEWbOnMm1GOWhqiqGDh3Kc3KczjQlyzKPDmJ5ZT799FMMGjSo3PMIBAJBdRIxszVTuxuGgYKCAv6yfP/99yFJErp06QKv11uqhkOkw3JL5OfnY9OmTeWaIJig9dNPP53R+ZhNf9y4cSAiLlBIkgSv18vDSMNNWFWx8s3MzMTmzZtRWFiIvLw8rrafOHEinnjiiUolpGLtZhkvS3I650h3Om0mmO7evTvsvkwgY4m+3N+z/Bklc4yUzBUCnBIMDh48iFdffRXLly/Hjh07oGkaOnTogPHjx+OWW24p5X9SFuGutyztFjO7sL/dArtAIBDUJhEjZLAJ9tixYygoKOCRB/Pnz4eqqpgyZQref/99+Hy+iFWRh0NVVRiGUSrSIBzuSIeSCbYqg2VZWLhwIbxeL+8r0zTRpEkT/nd1mWO+/PJLvPrqq9yxlIjw9NNPY/z48ZAkCcFg8KyuraIsXbqU/80cRcePH489e/aU2pcJF8yHhE3YiqLwydqt1QgGg6f1AbroooswefJkKIqCLl26oFWrVjBNE1FRUSLRlUAgqFdEjKckW5Eyh09VVZGRkYGPPvoIRUVFWL9+PT744AMEAoE6VVuBraJZNMPpPu5V+ZkKASwKwefzhUyCbNVf3f4sDz30EC655BJ4PB5uJnjwwQcRHR0Ny7JqRMAIB0urHo41a9bA5/PB6/Vyp0t3qvDzzjuPf6eqKs477zw899xzpY5jWRZatWqFIUOGYNiwYUhLS0N8fHxIxtrTOeRWBWwM1SVtn0AgOHeJGE2Gpmk4ceIEt+E3bdoUV1xxBWzbxnXXXYeCggI88sgj6N+/f51yaGMREhXJe+DW0JyNujucXwFL712dVVyBU+1+8MEHubmGTdTTp0/H3Llza0yTURlfkssvvxyZmZm8z9l9Gj16NHw+HxYtWsT7jP3boUOHEGHXbUYp6ShbG068QsgQCASRQMQIGbZtw+PxYPXq1XAcB7179wYAFBUVYfHixejUqRMOHz6M2bNnY9asWXXG+ZMVDHvhhRcq5ZPBCnDVNYgIAwcOxEMPPYRnnnkGuq5DlmUsWrQIPXv2LLf0eG0QHx+Pdu3alcqrceutt0LXdaSmpvLx5i4oJyZygUAgOD0RM1Pbto1ffvkFBw8ehKqqGDBgAHRdx/nnnw+v14t58+bh7rvvxgsvvICuXbsiNTWVmyLCCRzuip2SJGHr1q3Yt28fEhIS0KJFi7PKq8GcVEtqBcIdj61q2XlPBzOpsBoU5eEuFueG2f7d7WFFyty/OZtJ0rIs7tTpFobYuR9++GEUFxfjxRdf5Od59NFH0aVLF8THx4OISpl0zgRmkimZsIp9z85dsnAZ8Ht2VOaMWVLICAaDfD+mjSh5npJOobUhGLrzdbBnwV0hViAQCGqLiBEyFEXBsmXL+As7OTmZe/B7PB7cfPPNWLFiBT7//HPcdtttaNKkCRISEsrUaLBJIxAIIC8vD1lZWfB6vVi9ejUWL14c4pFfWdhL3bIsPnmXl/fg6quvrtCxDcOALMvIzs7GihUrTruve6IreQw2EbLJ0R0RwXwLzkbIYCGVJY/BzklEmDVrFlauXIkffvgBlmXhxx9/REZGBlasWIFWrVpViSaACQ/MwZbBsmW680a4zRjsd8yUFS7nBjOBlDR3sO+YQ6nX6+V9zlLBV0UhuDOBtTkhIaFOOUgLBIJzk4ha5rz//vtwHActWrTgL2kmDLBICUmS4Pf7ceedd+LIkSNlZpxkVShXrVqFCRMmYN68eXjzzTfx2muvVSgd9ulgmS4PHTqEOXPm8FXj2eLO0lgRAYgJUYWFhSFtcxwH+fn5IcfYvn07dF3nk64kSSG/O5O2bt68udREdujQoRDh4fXXX+d/m6aJvXv3Ys6cOVWWodWyLBw9erRU1s0tW7bwv5lgtXnz5pD2Hz58+LQZP8tDkiQcPXqUazMURSnV7zUNE/xK1qURCASCWqH8GmrVh67rVFRURKNHjyafz0eyLJMsy6RpGjVp0oSysrLIsiz6z3/+Qz169ODbZVnm1URvv/12+vXXX0nX9ZBqmUVFRVRcXEyNGjWiLl26kN/vpxMnTpBhGPTf//6XiouLKRgM0okTJ3jl0+LiYgoEAuT3+ykQCJCu62TbNv3yyy8UCATINE0KBAJ08uRJ+u9//0tz5syh9PR0OnnyZJVUgDVNkxzHIcMw6MEHHyRVVUtVHXXz97//nfr3709RUVEh/aIoCjVq1Ijuv/9+euedd2ju3LmkKAr/uPuxT58+9Pjjj5Pf7y+3fY7jkGVZtHTpUurYsWPY4/l8Ppo5cyYdP36cgsEgGYZB48aN49tVVSVVVal79+504sSJM+on27bJNE3avn07jRkzhlRV5VVgS7bjs88+o8cee4yuvPJK0jQtpJ9kWabOnTvT008/Tf/5z394xVaGx+Ohhg0b0v/+97+Q8xcVFdGcOXOoc+fOYfsgJiaG5s6dSydPnjyj66ssjuNQUVERJSYmkqqq1LBhQz6WBAKBoDaRiGrPe40lQGJ2cbYCZAmsSoZ3lhWSyTIi2rbNI0/27duHWbNmYfny5UhOTsZ1112HDRs2IDY2FtOnT8fdd9+Na665BuPHj8f27duxZMkSDBgwAFlZWZg7dy4cx8Gjjz4Kx3GQkpKCZs2a4aWXXkKbNm0wduxYPPPMM1i6dCkGDx6MO++8E507d0aDBg3Ouk+Ymj87Oxu33HILgFMZNMMRDAbDOiS6w2Hd+SqYlsR9y1n0S0VMPuy+MM0AO477eETENSasFoeu61wzxcxMLArjTFb9THNAv/lAsIRdLHqGnYdlBWX/d5uV3Mmr3H3h3mYYBnRdR1RUFO9n93h1/9bdByyluNfrLbdPqwL2HDVs2BCO42Dw4MFYunTpWZkEBQKBoCqo1TcQmyC8Xi8vaMU+TOhgExVLkc0+7omKHcttB2/ZsiWaNWsGVVUxbNgwTJgwAYcOHcKOHTswcuRIrFq1CkeOHMHatWsxaNAgjBkzBgMHDkSrVq3Qt29fxMXFoWvXrsjKysKePXvwt7/9DT6fDy+++CIuvvhifp5Zs2ahZ8+eVRKW6a6Mes0115RyXiwJ2+buG+Zr4BbOmEmA9aW7H5lzY0VkzZJ+HOGOJ0kSoqOjoWkan5i9Xm/IfWX5KM7UZ4BdYzAY5NcZDAZD2sG2W5YFx3G4+czdTnYttm0jEAiU6gN2LW5TGBMu3I6g4cZuTeYDYQI4/VaJNSkpSUS+CASCiKBWHT/Lco4Lt/or6eBZ3ktclmXk5+fDtm2kpqbCtm1s2bIFzZs3x7/+9S9cdNFFOHz4MDp27IjJkyejT58+sCwLhw8fxtGjRyHLMrZu3QpN07Bnzx68+eab6Nu3LwYOHAjLsvDee++hdevWuPTSS8+8A05zjXFxcWjVqhUOHTqE7OxspKWl8XBYtjqNiooqdQw26THYPmXlamjYsGGF2xcuB0RJKrpyP5vcEUxL4W5LyfFRXi4Vdz8pihK23ez47rZKksTHXlnXUNNOn5Ik8Sy5siyjS5cuIrJEIBBEBOfsW8iyLOTn5yMjIwMAkJeXB8uyMG3aNDRp0gREhNzcXBARpk6dylXvhw8fRkJCAogIq1atQq9evbB48WIcPHgQW7ZsQXJyMnJycuD1ejFw4MBqa78kSRg0aBAv3V1UVCRyMwjKZN++fXAcB23btuWRTCK6RCAQ1DbnrJDx8ccfQ1VVXHrppSAifPXVV1AUBSNGjODF106ePAkiwh/+8AcYhoFNmzYhPz8fEyZMwJdffgnbtjFu3Dhomobdu3fDsixkZGTgH//4B/x+PxITE6ut/bZtIzExEaqq4l//+heioqIqVXVUUH+QJAlr166FJElIT09HMBgMyeUhEAgEtcU5JWQwBzjLsrB+/XoAwAMPPAAAWLt2LYYMGYILL7wQDRo0gKZpuO6666AoCtasWYM33ngD6enpyMjIQHJyMjZt2gTHcTBq1CgQEVasWAFJkvDII4/A7/dD0zTk5OTgu+++g2maVZ6ESZZlDBgwABdddBF27NjBk18JBAD4ODcMA7Zto7CwEC1btsR9992HRo0acT8ngUAgqE0iJhlXVcCc+4LBIAoKCnD77bfz+hJTpkxBmzZtQvbv0aMH1qxZg8LCQrRo0QLHjh3jwsJVV12Ft956i9u2J0+ejP79+2PQoEHYtm0bBgwYgG7duqFly5bVpl3QdR333nsvpk+fjszMTC7wCASqqvKCb4cPH8b27dvx8MMP11oBOoFAIAhHrYawVgVulfCXX36JPXv2oEePHujbty8+/fRTNG3aFAB4RIrbwY+FgLqLmAHgWRvd6aTZPpqm8eyOLGqDZbmsakc7XdfhOA46deqEI0eO4H//+x9vX3UXOhNENizbqOM4uPfee/Hhhx9i586dPHGdQCAQRAJ1XsiwbZuHIN5zzz3YuHEjzj//fEyfPh0pKSm8fkldVh3n5uZixIgRmDp1KmbOnMkFo7pSJE5Q9ei6zlO1d+zYEW+99RYv5CaiSgQCQaRwTggZLA8C0zQwswnL68DyItRViouLsWbNGtxyyy1YsmQJBg8eDMuyxIq1HsMStN14441o0aIF/va3v8G2bcTExNRyywQCgeB36ryQAfzui8HqNrizg54LWQ9ZoqkFCxbgrbfewhdffAHDMISQUc+57rrr4Pf7sX79ep6gTIwJgUAQSZwT+nZ3UqVzEeZHMnnyZFx88cUIBoM1kq5aELkQESZNmoRu3bpxbZ0wnwkEgkjjnNBknOu4a3Sw+iGKoohJpR5j2zYPpWapzAUCgSDSEEJGHYHdJqYWZ4XQBPUXx3H4GBBjQSAQRCJCyBAIBAKBQFAt1G2PSIFAIBAIBBGLEDIEAoFAIBBUC0LIEAgEAoFAUC0IIUMgEAgEAkG1IIQMgUAgEAgE1YIQMgQCgUAgEFQLQsgQCAQCgUBQLYiUkQJBPYZlkHUcB47j8CquLLmXYRggIiiKAk3Tarm1p7AsC47jQFGUsHWJbNuGZVkAAFVVRWZcgaAWEU+fQFCPKS4uRlRUFCZMmADLsiDLMp+gAXABo0ePHrjnnntqsaW/w1LsDx8+vMxMp6wC81tvvVXDrRMIBG5Exk+BoB5jmiYURYHX60XPnj0xffr0kHTl7PUQFxeHpKSkamuH4zgAwLUqkiSF/M22sb+DwSBWrVoV9lhEhLFjx8JxHPj9flHXRSCoRYSQIRDUY9gkrqoq0tPTkZmZCSKq8VoohmFw04dlWfB4PLAsC7Ztw+PxoLi4GD6fD5qmcVNJWRARoqKiYNs2DMMQdV0EglpEOH4KBIJah4gwbtw4jB49Gvv370eTJk3QtGlTBINBjB8/HuPHj4ckSUJoEAjqGELIEAgEAoFAUC0Ix0+BQFDr2LaNLVu2YPfu3di2bRsCgQAGDx4Mj8eD5ORk/Pjjj5BlGY7jQFh4BYK6gxAyBAJBrSPLMhYvXgwiwpYtW+A4DhITE6GqKrp164aEhATuPxIubFUgEEQmQsgQCASVhoW57t69G9999x0cx+GTP8u3ERcXh4SEBAQCAXzwwQf8N4qi8MgRVVXRt29fREdHIykpCZZlITc3Fz6fD127doWmaWjbti0kSeIOqcInQyCoOwghQyAQVBqWvOuSSy5Bw4YNMXnyZOTn54OIMHToUEyfPh0dOnTg2of+/ftj7dq1GDlyJIgIzZs3xx133IFJkyZB0zQeLeLxeFBQUABFUdC1a9cQrYUQLgSCuocQMgQCQaVhE75t24iLi0OzZs1gGAZUVcXLL78MIuLaDVVVYZomBg4cCF3X4fF40Lt3b0yePBnAqfBVj8cDAMjNzYUsy7jvvvtEfguB4I//ww8AACAASURBVBxACBkCgaDSKIoCRVHg8/lgGAYOHjwIx3GQkZFRKgW5JEmwbRt5eXn8+5SUFPh8Pti2DSKCaZpwHAfffvstHMdBamqqcPAUCM4BhJAhEAgqjduMYds2Nm7cCI/HgxtuuIGn9GaaCNM0IcsyZs+ezeuNDBgwALIs8+MEg0EoioK8vDy0aNEC7du3h23btXJtAoGg6hBu2gKB4KxYs2YNgFNmj6SkJG4qcVNYWIi9e/dC13X079+/lCnkyJEj+Otf/4otW7ZA0zTk5ubi6NGjNXYNAoGgehCaDIFAUGkMwwBwqhBZVlYWHMdB7969cdFFF3F/DSZoWJaFFStWwLZteL1epKWlwbKskOqobdu2xT333BMxRdgEAkHVIIQMgUBQaRRFgW3bME0T+fn5PCR15cqVPNyUQUR4//33AZwynfTs2VM4dQoE9QQhZAgEgkrDclasXbsWP/30E2RZRsuWLfH1118DCA03lSQJO3fuBAB06dIFsbGxtdJmgUBQ8wghQyAQnBG2bSMzM5OHoC5ZsiTEBMLYt28fnn76aRAR2rdvzyNS3BEoAoHg3EQ4fgoEgkrDzCHZ2dkAgISEhDKTZeXl5fEIk0GDBkHX9bDCiEAgOPcQT7qgUrCES0TEwxRZVkfmzMdU6TVRY4JFMjAfAQDC3l9DfPDBB9wBdPDgwaXyWrD/r1ixApIkQdM0JCcnw+v1ihwYAkE9QQgZggpjGAYkSeKCBnAqcoCI+L+2bUNVVViWhaioqGpvE0vmFAwGQUTQNA2O4whVfDUjSRKys7OhaRqICF26dAkRKlmCLcMwkJ+fD0VRMHDgQJ4nQyAQ1A/E0y6oMGwCHz16NKKionDbbbehcePGaNSoERYsWIDY2FgkJSWFpImuCSzLgqZpWLNmDRISEnD++efX2LnrK4Zh4Ouvv+bCZa9eveD3+/l2y7IgSRJWrVrFhc+JEycKAUMgqGfUqiaDqUzZ6rcsLMsqVeHRfQyWtrg61eRlnceddEiWZdi2HWIqsG271lbWtm1DlmU+CYeDTQayLJdbgIplZdy+fTv27NkDRVGwfPlypKam4p577kHr1q2xa9cueDyeSt+PM72PkiRBVVUEAgF4vV40bty41jNFMu3Kueh3wMb3kSNH8NVXX0GWZW4qYVoNSZKgKApM08S2bdt45dSrr76a/z6SSrazMcfGDXsOwrXPPU7LemaYKVFUjBUIAIlq0TjqOA6PtVcUJezqV9f1kBTF7CXl9Xr5MdjkblkWfD5ftbTVsizue+CePAKBAPdDYC8d9wTDhJDTvbiqE13XYZomNE0L27+s/aZpIjo6OuwxWNsty+L3w+PxYOzYsVi7di2OHDnCfTMYqqryaz3dEGPbDMPgaabPdHImIowYMQJZWVm8rHh1UtZ1sX6oC4KGe0ynp6cjMzOTT5AlCQQC+Omnn/DKK6+gsLCQC50sauTmm29Gs2bN8PPPP2PDhg3Iy8vjfcGekQkTJiApKems7nNFYH4fzGfkdAQCAezZswfz5s3D7Nmz0apVK6iqGlbYZZqbkoKSu7+Kiorg8/m4sCUQ1GciYykhEAgEAoHg3INqEdM0qbi4mJYtW0YZGRkUExNDAEhRFFJVlTweD02YMIE+++wzsiyLbNumdevW0UMPPUQXX3wxqapKUVFR1KpVK7rvvvsoGAxWW1tPnjxJzz//PLVt25Z8Ph8pikJt2rSh+fPn0/79+8kwDFq6dCl5PB5SVZVUVaWkpCSaMWMGnTx5kgzDIMuyqq194bAsi4qLi2np0qV03XXXkaIoBIC3r23btvTggw9SZmYmrV+/nubOnUvx8fGkqioBIAAkSRL16tWL3n33Xfriiy/INE1yHIf8fj81aNCAMjIyiOjUvWTbbNsmy7Lovffeo+HDh4ccDwC1a9eOUlNTKT4+nvdly5YtacSIEfTtt99SMBikYDDI77mu6/zvcB/TNPk5hw0bRoqi1Ej/Hjx4kKZPn05RUVGkKAppmkaJiYmUk5ND//vf/0jXdRoxYgTv7+joaBo8eDAtX768RtpXEWzbJsdxSJZlGjZsGBEROY4Tdl/TNMmyLLIsixzHIV3XQ45h23bI7wOBAB/zlmWRruvkOA4/RnXhOA55vV5SVbXMa3ETDAZp+PDhdOmll/JrKat9J06coNzcXOrTpw+pqkper5fi4+PpuuuuI03TSFVV6t27N61fv573h0BQn6lVIYPo1MsnEAhQIBCg9PR08vl8/KWdnp5OhmHwCToYDJJpmmQYBvXr14+io6Np5MiRdPz4cTIMgwKBQLW1MxgMkq7rNHz4cNI0jXw+Hz333HPk9/t5+w8cOEAXXnghxcTEUGZmJp04cYJ0XQ952dY0rH+Li4vJ6/WSz+fjk96rr77Kr4u9+LOyskiSJC4QqKpK+/bto5MnT4b0b35+PkVFRdFf//rXMs/966+/kt/vpz59+oQIGRkZGWQYBhUVFdGGDRuoS5cufBKOiYmhb775hoLBIPn9fjp58iRt2LCBhg4dSunp6aU+Q4cOJcMwuMBRk0IG67NGjRqR1+ul6Oho2r9/P/n9fvL7/RQMBumFF16gCy64gC677DLat28f7+9IoTJCRl2hskLG3r17qUGDBjRjxoxy92XC9N///nfyeDzk8XgoKyuL/H4/maZJ9957L/l8PoqOjqb169dXxeUIBHWaWjUYs1BISZK4v4BpmtxO7PF4QnIwAKfspy+++CLWrVuHjh074uWXX0Z0dHS5zqNVAfMhYT4M48aN4zZZWZaRkpICx3Hwz3/+E5dddhmAU7boYDDIQz9rMurC3b9RUVHQdZ2HEGqahpiYGHg8HgSDwbDXx66rZcuW3BeGcfDgQWiahoSEhDLPr2kaVFVF06ZNQ76XZRmKoiAQCKBLly5IS0vD119/zaMQHn30Ubz++uuQZRk+nw8dO3ZEZmZm2HNYlsWd8KiG3YtkWUYgEOCOyQ899BCaNGkCWZah6zq+//57TJ8+HX369MH7778PRVG406Agcvjiiy8QDAbRs2fPcvdljtTMmdu2bVx77bVQVRV+vx8PPPAAFi1aBNu28frrr6N37941cAUCQeRSqz4ZHo8HRASv18snN3I5nTEBg01wlmXhzjvvxFNPPYX09HR8/vnnaNCgAfdsr04nK+bQuWrVKliWhbS0NPh8PiiKgn379qFDhw644IILsG7dOnTp0gVRUVHckTI6Opo7S9Yk7v61LIu3w7IsBINBPjFHRUVxx1tZlrmAAZwSVBRF4R/DMGCaJnJzc2EYBjp37lzm+X0+XykPfPY3EaFx48ZQFAXTp0/nbdJ1HVlZWVBVFV6vF4qioFGjRtyJruSHjRnHcUIiG06cOAHTNKtV8JAkCTk5OTAMA5Zl4Y9//CPv0w8//BA9evTA3XffjY8++giapsHr9UKW5RofB4LSWJbFx1x2djYaNWqEwYMHV/i327dvRzAYRFxcHGJiYvjz7fF4YBgGbNsWwqRAgAhIxsUEA3cWSVbRka1sHcfBkSNHcOutt+LgwYN45ZVXkJ6eziewmggPlWUZK1eu5OGggwcPhq7reP/99zFu3DhMmzYN//d//8e1KSUFntryMmfn1TSt1KTrjgBhUQIlowqYFz0L8SMiHDhwAKtWrcI111wD0zTLnDTZb8NN9LIscyHSfWwAXGhkx2D7lwVbXRYXF+PXX3+Fqqo4duwYmjdvzq+9OrBtG2vXroVt27j44otx8cUXQ5IkjBkzBrt27cKSJUuQkZHBI6BKRiYJag+2eAkEAsjLy8MDDzxQIYGUjc1NmzbBcRyeYIy9sxzH4UK6ECYFgggQMirC9u3bMX78eDRv3hwfffQR4uLiuMq9plTkRIT169dDlmU0a9YMqampmDRpEtatW4clS5aE5AqoifDJ2sCyLBw5cgQ7d+7E4sWLebKlYcOGndHxmGDx1VdfwePxQNf1Sh+DCUaGYWDdunW4+eabMXbsWOzYsQOxsbHV+qKXJAmff/45VFXFoEGDcPToUWRkZOCiiy7CBx98gLi4OG5KEfkSIg9JkvD6668jGAzi3nvvDQnBLgvHcfDll19i69atkGUZSUlJIdsXLlzItRoTJkyorqYLBHWGiBQyJEmCz+eDbdt4/PHH8Ze//AWO4+Cpp55Cy5YtQ1aEFXl5O44Dy7KQm5tbqZd9ixYt0L17d56H48MPP+T5HJKSktC4cWN8/PHHaNasGVRV5W2K9JTWLHMngFIqXZazJJyqNyoqCvHx8YiPjz/rNjBBTFEUvPDCC9z0oWkaZs+ezc005a382XaPx4MhQ4ZU6vyHDh3C5s2bK5S7hH7Lg3LllVeibdu2UFUVBQUF+PHHH+E4DrZt24aXXnoJd955J+bOnSs0FhEO0zbk5uZi+PDh3L+iPFg6dTYeUlJSYNs2jhw5gjfffBPz5s1DVFQUZs+eje7du1f3ZQgEEU/Evglt28Ynn3yC5cuX81oYY8eOxZYtW9CkSRPExsZW6niyLGPs2LEh/gblMXz4cLz77rs4ceIEZFnG4cOHoWkavv/+ezRo0AADBgxAbGwsd66sKzCzVG5uLr766iv+vaqqPItjddmTvV4vvF4vdF3HggULsGrVKmzfvh3R0dHweDyYMWMGJk+ezG3b1TVZMyFhzJgxpZxay2p3MBhEZmYmLr30Uvzyyy/47rvveLbIjRs3QlVVJCYm1ogTsuDsYBlJt27dijvvvBOmaVboGdZ1HX/961/5MZ588klkZWXhm2++gaZpkGUZL730EkaNGiV8MgQCRKiQwWz1RUVFXMBgKuenn34ar7zySqWOx0wqx48fr5SWQdd16LqOmJgY7o8BAL1790Z+fj6ys7Nx5513olu3bnWqqiTr07i4OFx++eX8eyLC8ePHq1Vg0nUdmzZtQkJCAr7//nsA4KaSTz75BF27doVpmtVeDtxxHAwYMIBH/pQHE8wsy4JhGDj//PPx0UcfQVEUtGjRAl6vF3v37sWjjz5aKY2KoHZQFIXXVenevTts267Qu2HXrl1cKJ0yZQo6dOiA/fv3o0GDBhg8eDBefPFFqKoKx3Gg63rEazUFguomIjN+skiStLQ0PPnkk2jYsCEaNWoE0zSxbNkyXH/99SgqKoLf76+QHf90Doing4XQOo6DZcuWwbZttGvXDgsXLuST8+jRo3nYbV0hGAzCtm306tULGRkZIZ+EhIQKpWI+U2RZRteuXfHYY4/xCBEWhrpy5UrIsozzzjsPPp+vWoUMIuJRARW5d2xV6g61ZlEwQ4YMwcyZM0FE2L9/P+677z4e3SKITNgz3bt3b1xyySWIiooqc7wxc6tlWcjPz4dpmpBlGYMGDcKQIUPQtWtXFBcX8zBrr9cLVVXRoEGDmrwkgSAiiUghw83kyZMxefJkHnLpOA527tyJ8ePHV+o4LAqCCRxlfdxYlsVfPAUFBZAkCQMGDECbNm3w7rvvclvsI488UmXXe67DCtwNGDAAqampPEeH1+vFK6+8gu3bt9dIO0oWxCrvw5yMdV2H4zi8Lodt2xg0aBAGDRqEUaNGQZIkvPbaa/jyyy+FkBHBOI6D1atXIzU1tdx9mXOxruvIy8uDJElo1qwZevbsCVmWMWTIEF5fafXq1TXQeoGg7hCR5hI3mqbhsccew6FDh7BixQq+8l21ahVeeeUVTJkyJWSyCOfEx+ytTOtQHkzY6NWrF+666y5kZ2ejsLAQRIRu3brBtm20adMGc+fOxUMPPYRXX30VGRkZ6NGjBwDwQl+ng4U1Mk0Jm8QipTJldSFJEkzThKqqePzxx7Fx40bs27ePaxNuueUWrF27ljv4VpfpxnEcFBQU4Nlnn61Qn7NQ4BkzZqBz586YO3cubxtL4rRw4ULs378fBQUFGD16NHbu3IlAIMBt9WWdx61hY1Vx2Xhgk5fg7HFrrFatWgXbtjF27Nhyf8eil1RVxYYNGyDLMnr37s3Njqmpqbj//vthWRby8vKQlpbG/XLO9edZICiPiBcyWHXPp556Crt378a+ffv4w/1///d/aN68OYYMGQLbtnll1nDH0HW9wsl2GCzT5UcffQTgVHTFgAEDoGkaJEnCxIkTsXr1auTn52PcuHH/n73zjo+qSv//55aZyaQAKi20EHqVEkhoighKC4SSUFQEBJWy+lv9uuCiIiiiWFZcUMqKBRUIBAghgOgqKCUhhICIDdjQ0oBdlCTTbnt+f+A5TiCBgAkJcN6v130RZu69c+497TnPeQoOHToEWZbh9XpLzGjK0DQNP/zwA44ePYoaNWqgR48elSr9dXnhHzArNDQUy5cvR9++feHxeGCaJg4fPoznnnsOy5Ytw/nz51GzZs1yK0eNGjW4++2VttJY3VSrVg1ZWVk4fPgwLMtCbGwsD8ClKAqWLVuGrl27Ii8vDy+//DJeeuklHlulpHKwyc8wDGzYsAF2ux2tWrVCw4YNRSbPMoRFhtU0DfHx8Rg8eHCJY0Zx161fvx7AhfGkT58+kGUZDocDYWFhuPvuu7F9+3asX78eixYtEjEyBAJG2UQnLxtGjRpFkiSRLMsEgEaNGkVEFxItud1uWr9+PSmKQk6nk2w2GymKQhEREXT+/HmenKs4NE0jl8tFhmHw3AOlOVhOkjvuuIMAUGxsLPl8Pp5PxTRNOnDgAKmqSiEhITRnzhxyuVylSoy0b98+ql69Os2aNYuqVKlCBQUF5Z4zwmazkSRJ/B3Hx8cX+d6yLEpISCiSZ0SSpCLJr64GlhcjLi6uyP1GjRpFlmXR+fPn6bfffqM5c+YUyZcSEhJCGRkZ5ZpgiiVWK+3hn9zrs88+I6fTSSEhIfTZZ59RQUEBTwCm6zrNnDmTbDYbOZ1OOnDgALlcLtI0rdhysGRjhmHQjBkzaMCAAfTII4/Q+PHj+T3Lk1spdwlLyKhpGgUEBNDKlSupoKCgVPfzeDw0ZswYstvtZLPZ6Pvvvy9y75deeokCAgLIbrfTihUreL0KBLc6Fb5sZgGZiAiapnEDTaZeZkZWdrsdffv2RY8ePYrkqzh48CD++te/cmNG8osayWBxNwAUG5ra/2BBvtixZcsWuFwu2Gw2NGjQgFuWs3I2adKE5//46KOPcOTIER6ltDgXNtM0cfLkScTGxmLhwoUYN24c/vWvf8Fms8HtdvNzWMRT/yid7J6maXJPF5/Px98f23r5/vvvsXfvXn4+EcHtdnMNDHBhS4dtAbHzLMtCVlZWkS0K5up3Le54rNw5OTlFPmf3dzgcCAoKwpQpU9CjRw8eOVHTNPzf//0ffv31V/7cdJVGu6WBeSyVFLLc/7AsCy6XC7quIykpCaZpwuv1om7dunA6nVxDQ0Ro164dt/l49dVXi8QkubhdsGvWrl2LpKQkrFy5EmPGjMHkyZOhaRo0TeP16l+f7B7+n7N/WW4NwzB421izZg1ycnJuabdKpo3auXMnACAiIqJEY0//cYSFH9+zZw9M04TdbkeTJk34uzRNE7169eJRRD/55BMefl8guOW5nhLNxfh8PiooKKAVK1bQ0KFDKTg4mACQw+Egm81GgYGBNHHiRNq6dSv5fD767LPPqHHjxhQYGFgkS6gsy3T33XfTzJkzKTMzk6ekvhbYCjczM5OefvppCgsLI1VVqUqVKtS0aVOaNm0aZWZmUn5+PmVmZlLPnj0pMDCQ7HY7OZ1OqlKlCo0YMYI+//xzKiwsLLIaZ887Y8YMaty4MeXn51NhYSHPLOtyucjr9ZKmaeT1esnlctGvv/5KHo+HfD4feb1eKigoIF3Xyev10vnz58ntdlNhYSHX9vz4449UpUoVWrlyJblcLv5+L071brPZqFGjRvTiiy/SypUradu2bfTWW29Ry5Yti6RmV1WVevXqRStWrKD9+/df1btcuXLlJaneZVmm22+/nZ555hnavn07ud1u0jSNDh48SEFBQaQoCsmyTLIsU8eOHWnFihU8+25F4vF46Msvv6TRo0dTcHAwSZJEdrudunXrRq+//joVFBTQ2bNnae3atdS4cWO+4g0JCaGIiAiaPn06/fzzz7x+GbquU2FhITVr1oyeeuopys/P5+3A5/NxzRlrA263m3/vcrl4SvmCggLyer38/uz8goICevPNN6latWr8en9uJU0Ga0fTpk2j++67jwoKCkrUMJmmSZqmUUFBAf3zn/+ku+++m2RZpuDgYFJVlR5++GHatm0bz8Ls8/l4NuHg4GC6++67ad26ddfrkQWCSotEVHEBHizLgqZpICKoqlpk7/niAEnMgA64YMjJ3MPIb0/b/5prNbryXy2yTIsXl0nTNAQGBsLtdvOgUSw6pa7rMAwDAQEB/B5Mi1JQUIBly5bh2WefxYMPPogBAwYgMTERNpsNzz77LD7++GMcOXIEn3zyCTIzM/HBBx+gXr162L9/P6ZMmYIWLVrgpZdeQnZ2NqKiotCpUycsXrwYAPDiiy8iLy8PAwYMgCRJeOmllzBkyBDUrl2bhztn74PFISEieDwe/r7o91UvS0wGgHt/sMytV/NOmSeGfzRU+l1jxeqMGb+yMvjbIDCLfla2iow54HK5+HP4J/BjGiWWP4VlD2bdirljs/fGznc6nQCAU6dOYebMmYiPj8eLL74IWZaRmpqK5s2bY9y4cXjttdcwYMAAREdHIycnBwsXLkTDhg2xZ88eTJs2DQ6HA3PmzAER4dFHH0VOTg6Sk5PRoEEDzJw5E7NmzcJ7772Hpk2b4umnn+bRLRmsLaiqiri4OKxatarYHDY3EvR70j/TNLl2FLjw7lkALkmS0KFDB9jt9mLbFdOe+WcyZvdg4wBrlyy7MhvH2PWyLIugbIJbngrvAcxAig12wB8hnIE/JiEmVFiWBYfDcYlKn01m7LprHSTZ4MEmB/+tERaOOyAggG/BsDTq/mV3Op08/Li/AVhAQAAP/NO/f38MGjQIOTk5+Pvf/w63240DBw6gSpUqyM7ORkxMDGJiYjBp0iS88MILuO+++5CUlITHHnsMHTp0gM1mw549e9CsWTO8+eabGDJkCA9jHB0djSlTpgBAkcmdlZG9L0VREBQUxMvn/97ZuWywvhajVP8kZ+x+bBL2/w3gD68KNnAzHA5HpZj0ijPk9c+dw+raP3Mwe19sm4pNQv7PUq9ePdx+++2QZRn/93//B4/Hg61btyIlJQU7duzA3r170bdvX+Tm5uK+++7D4MGD8eijj+LYsWPo3r07tm7dik6dOuHvf/87VFVFo0aNIEkS/vnPf2L27NmoXbs2dF3HypUr0bRp0wp5j4Zh8O0jFk22IpLFsYUA23JVVbXE7SP/DMVM4GBbqcAf7u30e54S/3PY9QKBoIKFDP+O6P/3xQOhv4bjYkt7/4mzLPD/bf9BsLjfKe432cRanHU5EfFcGdHR0QCAb7/9FgEBARg8eDA++eQTeL1eREdHw7IsvPTSS5AkCefOnYNpmsjJycHZs2d50KfNmzdjypQpUBQF/fv3R0JCAnRdx9ChQ7lQUNJg568tuBLX+m5L+u3iPvdfTV5cpooWMC5XhotXwezZiptAS7pHeno6+vXrx6/fvXs36tSpg6+++gpVq1aFqqoYOnQoZFnGrFmzYFkW/vvf/8IwDJw8eRIpKSmw2Wxo3749pk6dir59+yI2NhaapiEjIwPh4eFo0aLFn3n8PwUTupgWx+FwVIhtiL+gy+rtcoKOv/3SxVycJVh4AAkExSPE7euILMtIS0tDy5Yt+dbDV199haZNmyI6OhoejweqqiI1NRUTJkyAqqpwuVw8jXnr1q2xatUqqKqKt99+GwEBAVi3bh0GDx4Mm82Gr7/+mkcivNwqTVB5YMnV2rdvD0mS8M4778Dn82HixImoVasWD7mekpKCsWPHQlVV2O12bhDdokULfPnll2jQoAEef/xxAEBKSgoGDBgARVGwdu1adO3atUKfkU3AbEJn2xYCgeDmRwgZ1xGmyWjWrBl0XcehQ4dQWFiIBx54AKqqwul0YuPGjVBVFWFhYXC73Th//jxWrVqFsWPHon79+jh9+jQ6dOiAO++8E6tXr4YkSXyCSklJwaBBg7jdSAWa2wiugK7r0DQNaWlp0DQNrVq1gq7rPA5MXFwcbxMsR0qjRo2gqiqys7ORkJCA4cOH47bbboPb7caECRMgSRLeeOMNyLKMLl264ODBg1BVFX379oXP54OmaVybUN4wewjLsng6gKioKDRv3hxNmzZFv379kJKSAk3TuFdVWVIZttgEAoEQMq4ru3btQl5eHkaOHAlZljFnzhwEBATgkUce4fu7AwYMQKNGjbBx40YcOnQIffr0wfDhw7F06VLk5eXhwIEDmDp1KgBg8+bNAICtW7fi+PHjyMnJQXZ2NubOncttQgSVD/o9cJdlWVi/fj0CAwPRv39/5ObmYuXKlYiJieHp5CVJQkxMDOrUqYPk5GSkpKSgd+/eGDFiBBYsWICNGzdCURQ8+uijUFWV54R56623cPToUciyjE2bNuGnn366pvw9f/Y5PR4PVq1ahcceewyNGzfGkSNH8NNPP8HhcKBPnz7YuXNnqQJiXQ3+woUQNASCiqVCvUtuNRYuXIg333wTv/zyC1dlW5aFuLg4AH+E3M7OzuY5PNq2bYsGDRpAkiRkZWVh//79iIyMRL169ZCWloasrCxERkaiVq1a2LBhA8LDw9GhQwdugFjWA7igbGAZOu+66y506dIFs2bNQk5ODvbv3486deqgW7dufHuhsLAQOTk5yMjIgGma6NKlC0JDQwFcsOc4deoURowYAU3TsHHjRgDAkCFDkJubiz179iAiIgJ33HEHQkJCuOE0ozy9S5gxM/N4YjFYVFVFSkoKBg4ciNDQUHz//ffcA6usYAbD5ZnsTyAQXBkhZJQzx44dQ0pKCqKiojB+/HhMmTIFcXFxwlDsFoS5U3799dc4f/48IiMjcf/9q5DTIAAAIABJREFU9+Pzzz9HeHh4heSuKU8hQ9d1PPjgg1i3bh1iY2OxfPnyIh5gQUFBMAwDo0aNwrJlywCULu/PlSjJhVUgEFx/hD69nGGq4ueeew4A0Ldv3+u2Ly6oXEiSBLfbjVdeeQUffvghoqOjMXHiRDRo0KBU6eZvJFiMmA0bNkCSJLRq1eoST47BgwdDlmXEx8fzKKZizSMQ3FxUeJyMm50HHngA4eHhsNlsPKmS8Pq4NWGxVd58800cOXIEDRs2RERExJ+O7VIZMQwD6enpsNvt8Hg8aNmyJUzTvESDx+JLpKWloVOnTjfVOxAIBELIKHfCwsIQFhZW0cUQVAJYxNDIyEieHv5mxWazIS8vDy6XC8AFN1YWzM4fZqCck5NTJFKqQCC4ORDbJQKBQCAQCMoFIWQIBIIyh9lklNaIk50vNBkCwc2FEDIEAkGZw5LCXU2SsKsRSgQCwY2B6NECgaDMsdlsME0Tdru9VN5UsizzODECgeDmQRh+CgSCciEqKqpIJmNm9Mlic7BMwADQsWPHMomRIRAIKheiRwsEgjLHNE3UqlULnTp1gqqq+Pbbb+Hz+UBEPEFacnIybDYbYmNj0ahRIyFkCAQ3IaJHCwSCMseyLFiWhVGjRgEAvvvuuyLajNzcXJ5J9tlnn63IogoEgnJECBkCgaDMsdlsUFUVkydPRufOnbFr1y4kJSUBuGAUunDhQkiShJdffhlt27at4NIKBILyQthkCASCcsFutwMAFi1ahJ49e+Kxxx6Dx+PBqVOnsGTJEkRFReHBBx8UUT4FgpsYockQCATlSsuWLbF27VoMGTIEGzduxM8//4w5c+Zgy5YtuO2220SmVIHgJkZoMgQCQbmiKAruuece9OjRo0jMDBF4SyC4+RFChkAgKFfYdojNZiv2c4FAcPMitksEAoFAIBCUC0LIEAgEAoFAUC4IIUMgEAgEAkG5IIQMgUAgEAgE5YIQMgSCWxjTNOH1emGz2bB69WrIsgxFUXiIb0VREBAQgBEjRlR0UTmWZUHTNDidTl5O/0NRFOi6DqfTKRKuCQQVjETCj0wguGUxDAOmaULTNAQHB1/yPRHBsiw+aVcGDMMAEYGILvFYAcCfxzAMBAUF8SRsAoHg+iOEDIHgFoZN2CUlJzNNE5IkgYiKxLioSNiQZRhGsWWyLIuXt6RzBALB9UEIGQKBQCAQCMoFYZMhEAgEAoGgXBBChkAgEAgEgnJBCBkCgUAgEAjKBSFkCAQCgUAgKBeEkCEQCAQCgaBcEEKGQCAQCASCckEIGQKBQCAQCMoFIWQIBIISMU2TR9c0DAOWZcE0zSLnsIiglSXkDgs7DqBIWHHLsvgzsOPiZxEIBGWLCIUnEAguy4kTJ7Bnzx4e+VOSpCLfG4aB+vXro2vXrpUmumZOTg5SU1NhWdYlZWJCU2hoKLp3715BJRQIbg0qx4ggEAgqJZIkISMjAw888ADatm2Lpk2bQpKkIoKGJEmIiopCZGRkpRAyJElCVlYWkpOTuQYGAP+biPDFF19gwIAB6NGjRwWXViC4uan4EUEgEFRaJEniWwtDhw7FzJkzea6T64mu6/D5fHA4HLAsC7IswzAMyLIM0zRht9u5gCNJEnr06HGJAMG0MEQEu90OSZJE8jSBoJwRQoZAILghYAnPiAimacJms3GhwbKsii6eQCAoBiFkCASCSo8kSbj99tsRExODqKgoPPfcc+jSpQv69u2L9evXw+l04uuvv67oYgoEgosQQoZAIKj0JCUlYdKkSXjjjTeQkpIC0zTx2GOPYdiwYfB4PKhSpUpFF1EgEBSDEDIEAkGlp0OHDujQoQPcbjfS09OhKAo6dOgAy7IQExODqlWrVnQRBQJBMQghQyAQlAvMYFRRFEiSxGNu+BtbmqbJ7SpUVeX/1zQNiqJAURQQEcLCwuB2u2Gz2bBmzRrUqlULjRo1gizLaN26tYh3IRBUUkQwLoFAUOawWBRJSUnctdXhcCAkJAROpxMPPfQQ9u3bx4WKuXPnwuFwoGrVqqhatSpq166N6tWrY/bs2fB6vdA0DQ6HA7IsY+/evdxzRJZl2Gw2BAQEVPATCwSC4hCaDIFAUOYwzUL//v0xYMAAVK9eHYZhQJIkrFixAj179kRgYCAAQNM0PPvss2jRogXGjRsHABg4cCBef/111KhRA4qiwDAM2O12rFmzBrIsIyIiQniUCAQ3AEKTIRAIyhxFUSDLMux2OxRFgc/ngyzL6NixIwYNGlRki8RutwMATp06BdM0oSgKnn/+eYSGhnINhaIo0HUdycnJ3A6DBdkSCASVF6HJEAgEZY5/VNCkpCQebTM2NhaSJCEwMBAOh6PINVu2bIFlWejcuTOaNWsGy7IgSRLsdjt0XceJEyewbt06hIeHo2bNmhXxWAKB4CoRmgyBQFCu7N69GwBgs9nQsWNHbgzqj6Zp2LVrFyzLwpAhQ7jmg7F//3688MILME0Tpmli06ZN1z3qqEAguHqEJkMgEJQLXq8XlmXh7bffhizLeO6559CtW7di85s89thjsCwLgYGBeOSRR7i9BiMyMhIrV668XkUXCARlhFgKCAQCgUAgKBeEJkMgEJQ5zDU1MTERdrsdPp8PCQkJOHDgAIjokvPT09NhGAaGDx/ObTWKO08gENxY3FRCBsvKyAan4vZsWZAfkYFRcCvB3D2Ls4dgnzPjzLKIOcEytW7YsAFerxc9e/bE559/zrOfAuDeIaZp4rbbboPNZsOwYcOKZFMVCAQ3NjfVdomqqhg7diyCgoLgdDphs9kuOe644w6e8lkguFUwTROGYWDs2LHF9gu73Q673Y7q1avD5/P96d9jET6Tk5Nht9sRERFRbJ/TdR1z5syBruvcs4R5pog+KhDc+NxUQoau6zAMA6qq8iiBFx//+9//+AAoENwqMK3eBx98UGy/0DQNo0ePhs/nu8S19FqwLAt79uzh2pHhw4cX2+9kWcbixYthWRY6deqE0NDQP/3bAoGg8nBTbZfYbDYAF4SNktzbymIAFQhuNFgekMvBNHyWZf1p91CbzYY9e/ZA0zTYbDZERUVdslVjWRbWrVuHwsJCyLKM5s2b8z4sENwKuFwuHqzO6XTC4/EgJCQEmqaBiKDrOgDAbrfD4XDckNq9m0rIEAgElQMiQnp6OmRZRmRkJDRNg6qqlwgaeXl5XHsyYMAAGIYhBA3BLQMTxhcsWABZlnHXXXdh27Zt6Nq1K7Kzs5GVlYWhQ4di2LBhJdpTVXZuqu0SgUBQedi0aRMkScLgwYN59E5/LMtCQkICVFWFqqro27fvDblSEwiuFcuysH79ejgcDixbtgyapmHLli0YOHAg5s6diy+++AJhYWE3tB2h0GQAPAU1cKHSmXU7S+jEVMgM/2BCzEJekiSxAitHWB1pmga73V6sOp95SAC4JJ24LMuQZfmG7ag3AswmSlEUzJs3Dx6PBwBQp04dACiizZAkCZmZmVzb0alTJzgcDui6XmywrorEMAxuDOtwOK5YvuIStxER/1xV1Qprh6wfsYM9i2VZsCwLpmnCZrNd8j0A+Hw+/p0Y61DEvojVp/8YxDwYmTs3O4ddJ8syFEVBaGgoXnvtNaiqitTUVNSuXRsNGzYEAPTr1w+RkZHFCunF4fF4iox9zNuyuPpiWzEAitWQsDbL7nGt/VJoMgCerEnX9Uss22VZ5h2QTWzFnSMmr/KFdVb/DnzxwWAdkh2sDsvCa0JQMrIsY9++fRg/fjzmzJnDNRRLlizBu+++C8MwoOs6cnNzMX/+fMTExPA6ysjIwDPPPIP//e9/Ff0YlyBJEs6dO4fPP//8qpOy+bdNRVGK7LNXBEx48C+b/zjGMt6yicX/HCbci3DuFyhpDGJjDkvqV9z7lmUZmqZBkiT8v//3/7iB9Oeff44uXbpwG6pPP/2UCy6liRvDxsnU1FSkpaVdsb2yBXRx4yirf7ZIu1Yq15KhgpBlGW63G+vXr+dJmphQ0bFjR/Tv3x9NmjRBVlYWpk2bBuCPQEE2mw0vvfQSwsLCKvIRbnqYhslut+Pf//43li9fDq/XywW8Fi1a4N5770W3bt2QnZ2NGTNm8GvZOa+99hrq169fgU9xc8PsL6KiovDRRx/x1REbIFmfql69Ov76179i6tSpcDgcPE+JZVmVyjCbeapJkoSnn34adrsdQ4YMueJ1//jHP5CRkcGvZ5OEqqqQZRmPP/44unfvzrU+13PSliQJu3fvxqJFiwD8EVsoLCwMAwcORLdu3WCaJl555RUcPny4yHVDhgzB8OHDb0i7gPJgzZo12LBhAxcQZFmGw+FA//79ERMTA1VVcebMGcTHxyM1NZULmbIso2HDhoiOjkZkZCRUVeXu3qZpYujQobxN+GsQSrOQZQuxwYMHY8mSJYiIiCixfUmShOzsbLzzzjvIysoqEmOKlbNOnTqYMGECGjduzLUhV13/dJMxatQostvtV3WNruvk8XjINE1atWoVASCbzUYjRowgj8dDuq7Tr7/+SgUFBfTAAw9QYGAgBQQE0OrVq8nn85HX6yWPx1NOTyS4GNM0KSEhgRwOB9ntdho5ciS5XC5yu91kGAYVFhbSyJEjqWrVqhQSEkKffvopFRYWkqZpFV30Ss3o0aPJZrORaZr8M8uyaM2aNQSAZs2aRZZlFfn+RsKyLP6vqqoUFxdX4rk+n4+IiNxuN+m6ztsRu8fl0DSNRo4cSTabjQIDA+n111+nQ4cO0ejRoyk4OJhsNhvFxMRQQUHBdX+XpmlSfn4+JSQkEAAKDAykkJAQKiwsJK/XS16vl3w+H61du5ZCQkIoKCiIPv74YzJNk1wuFxmGQbquX9cyV1a8Xi+tXr2abDYbBQUFUdWqVSk9PZ00TSPTNMnr9fL3NmrUKAJAdrud3nrrLSosLLxkznj++efJ6XTSd999d81l8ng89OGHH5LT6aTz58+TpmmXbbO6rpOu62Sz2UiWZVJVlQ4cOEDx8fEUERFBgYGB5HQ6acaMGaRp2jXNc0LvBfDVBHN9ZZLa5MmT+SosICAAZ8+eRWpqKjp27IgdO3Zg0KBBXOKz2+0V/BS3DkzTxFYPf/nLX3gUV9M0cfbsWRw8eBAdOnTArl27EBcXB6fTWexeuUBQHCy9vKIo2L17N3RdR9euXUvVhlj7pN9XhZGRkahbty4+/PBDTJ48GYqiYNu2bfjoo4+u+zarZVlwOp3QNA0hISGwLAsTJ07kq2yW5XbDhg2oUaMGli5digceeAC//vorP0dsDV9AkiR4PB5IkgSHw4Fx48ahXbt2fM5gmgFZlrmrav369TF16lT+uT/Hjx9HaGgomjZtes1lMgwDP/zwAyIiIrhWsKSYUOxzNo4CQJs2bdC0aVPExMTg22+/RVhYGHRdx/z585GXl8fb9tVw0woZVIr9KwZ72ZZlITU1FZIkoV69eujatStXd27evBn3338/unfvjn//+99o1aoVFy5Y5xNcHyRJwp49e7g6r3379nzfMCkpCffffz86dOiAzZs3o1WrVnzwFIOjoLSwrQ4ASExMROfOnVGzZs1StSFFUXDmzBk+yURFRSEgIABEhA4dOgC4YAS7e/fu694mWUyGffv2QdM0WJaF/v37c5V9ZmYm+vXrh5SUFGzfvh1xcXEgIlSpUgWqqgohww8iwoEDB2CaJvLz8zF69OhLYswYhgHDMPD1119DkiQMHz4cpmkiICCA208AF+aexMREdOnS5U8ZPttsNiQmJvLgd0Dx6TVY+WVZxpkzZ/j/R40axec0m82GO++8k5dz586dsNlsV729d9MJGcyI82qQZZnvl65fvx42m40LGMePH8fDDz+MRx99FLNnz8Z7770Hh8OBwMBAnofBX/shKH8kSUJCQgKICJ06deJeDdOmTcOYMWPw4osvYsmSJdwS3uFw8NDZAkFpYHZaAJCUlIRhw4bB4XCUamzxeDxITU2F3W7H9OnTi3ipsUULUNSr7XrBhITExETuqRUVFQWv14vZs2cjKioKjRo1Qnp6OkJDQ4uEnmcTjzD8/IOMjAxYloXbbrsNERER3HZMURRu+Lx161ZomgaHw4GYmBgEBgbyc3w+HzRNw8MPPwzDMNC1a9c/JcTt27cPx44dw7Bhw2C32y9bX0zA2b59OwzDQLVq1TBp0iRebmZ8KkkSd4owTfOqNRnC8PN3iAj/+c9/kJ2dDUmSMHToUKxZswazZ8+GqqrYuXMn6tevL6T4SkBeXh5Onz4NVVURGxuLr776Cm+99RbOnj2L7777DvXr14fdbi+ishYIrgbWbnbv3o0zZ85gyJAhpQ6GtGXLFsiyDK/Xi6eeegpOpxOGYcA0TezYsYNPLj179oRpmtfdZTcvLw95eXlwOBwYPHgwzp07hwkTJuDIkSPYvXs3WrduDZ/PV0SbI7iUs2fPIiUlBU6nE0888cQl74tNzrt27YIkSbj99tsRGRlZ5B66riM5ORnR0dEYPHgwdF3Ht99+i3vvvfeayrR27Vr06tULd9xxxxXPtdlscLlc2LJlCwICAtC7d+8i7VvTNOzfvx8AEBAQgHbt2l2T1r7CWxCzsC5uj+pK17Hzy0KytiwLK1eu5FkoW7Rogd69e2Pq1Kl45plnuKZD5DypOFgn3rZtG1c5Nm/eHO3bt0f//v2xY8cOSJLEXcOEa7HgWpEkCU6nE4sXL0azZs1Qu3bty3qCsC05WZaxadMm6LqOJk2aIDg4GKZpQlEU/Pjjj/jwww9BROjVqxcmTpxY4v3Y3jdbSV4OJkyzNn85iAhpaWnwer0wTRNDhgzBiBEjYFkWTp48ifz8fABAYGBgKd7Src3u3bu519T06dOLTepnt9vx7bffwrIsdO3a9ZJ7BAUFYciQITzqbWnq+2JYfBNJkvCvf/0LTz/9dKm9tBwOB5KTk6FpGtq3b1/E22v+/Pn45ZdfYFkWZs2ahRYtWlxT1NEKFTLY/tWbb76J/fv3X5UP+lNPPYWOHTty/+0/CxHhnXfegc1mg2ma6NSpE2JiYvDkk08WUR0Jyb5i8B/Et2zZAlVV4fP5EBUVhREjRmDJkiXch9/pdFZ0cQU3OLIsw+PxYP/+/Rg6dCgCAgIue76/EV1WVhaICO3bt4fX68V3332HnTt34v3334eu6xg2bBimT5/OjZeLG7927NiB995775JAgMXBJrdJkybhnnvuueJzMU0LEeGRRx5B/fr1sWHDBrjdbt53hHB+ZZhdmM1mQ0JCAh9//Ff6drsdP/zwA2RZRvfu3S8JNsf+/jNzmGVZ0HUdGzZsgGEYuO+++0olCBiGgaNHj3IhtVWrVgCAhIQEfPfdd3j33XfhdDoxffp0PPTQQzy42NVSoTMmkwK7deuGsLCwq2rYoaGhZRZ5zjRNpKSkcImQvchDhw7ht99+Q1BQ0A0bN/5mgdnaeDwepKenc08gWZbx888/49SpU7yTCAR/Fl3XsXnzZhw/fhxDhw694vksUmZ2djZ27NiBoKAgSJKEMWPG4IsvvoDX68WIESPw3nvvoUePHjz6aUmq5zp16iA2NrZUhpbsnLp1616xnJIkYfv27SAivqV44sQJHDhwAOHh4ddk03arsm7dOhiGgVGjRiEgIKDYIGssSaDdbkd0dHS5CW+KomDhwoWoVasWOnXqBJ/Pd0XBWJZlfPnllzBNE02bNkV8fDxefvllHDlyBADw6quvIjo6GrVr1/5TGvwKFTKYIVRUVBT/f2kpS28BpuJk6vhPPvkE06dPx4kTJzBjxgwsXrwYQUFBXNMitBkVgyRJSE5OxokTJyBJElavXo2nnnoKP/74I8aMGYO1a9ciNDQUiqIII0/BNeEf+vvFF19EWFgY7rzzzitex8aOtLQ0rnX7+OOPAQBNmzZFTk4OQkND0bNnTwAXtiMut7VRr149NGzYsNRbwVcyyGNCza5du3DmzBn+fGfPnsW7776Lv/3tb4iIiEDdunVFyPDLwFb9qampyMvLgyzLGDBgAGJiYoq4rLJz9+zZA1VVUaNGDdSrV69cFqqWZSEjIwNpaWn4y1/+clWmBykpKTAMA+3atcOHH36IdevWYdKkSfB6vYiIiEC9evW4Af21UqFmwpIkwTAMXnFsZVrS4R/6lEnvZSV17969m7vq9O7dGx988AFfzcybN48LGELKrxhYfa9bt47vGfbr1w+ffPIJgoOD8fPPP+OFF16ApmnCbkZwzTADzV27diEnJwfR0dGlmhhsNhs0TcP69euhKAqGDRvGtzqGDx8O4IJRHrNBY3vvJS2UbDYbdyu90rhoWRY/vySYEWJ6ejqPIjlp0iTMmTMH9evXR3Z2Nl588UV4vV4xxl0Gj8cDwzCwZ88eGIaBwMBADBo0iNen/+ROREhMTAQAjBgxggufZQ0RYf369dxFltXvlfD5fNiwYQMA8Ei2sbGxqFWrVpGyMy+ra6XCt0uAPyy4r4aOHTte9RZLSeTm5mLv3r0gIgwfPhyqqqJ79+6IjY1FQkIC3nnnHbRp0wbDhg0TWyYVhGmayMrKQmJiIlRVRXR0NIALgY5iYmKwdu1arF27FoMGDUJcXFwFl1Zwo0JEUBQFSUlJ0HUdjz32WKkGbHZdcnIyiAj9+vXj3zGbodOnTyMjI4OHkr4cJ0+e5DF7rjTmMBdZ5n5aHEygWb16NUzTRHR0NEJCQqDrOubMmYPx48dj/fr1aNSoEWbOnHnF571VCQgIgM/nw7p160BE6NOnT4l1uWHDBj6vdezYEaqqlkveGsuykJycjFGjRiEiIgJ2ux2apl1xu+Tf//43F0gGDx4MANwYeP78+Vi7di1effXVP+1YUeHbJbqu44MPPsCnn356VQLD+vXrUbdu3Su+yMvh8XggyzJ3K5NlGa1atUJISAgAYPr06di8eTMURcE//vEPDBo0CLquIzg4+LL3NU0ThmGgsLAQNpuN79cFBgb+aaGIScNXa4+iaRqACyskXdeL2J6wyHXABWtjwzAQFBTEpe7KIFhJkoT9+/dD13XYbDa0bNmSf/70008jKSkJhYWFePXVVzFo0CDY7XY+8BdXfsMw4HK54HA4oGkaj+paFsa9rP6ZZkxRFFiWdcUtHP/APOw6IoLb7eaW5+z5mfqblZV9zgwWWRTCylB3NxqapuHLL79Ely5dEB4eXqoEUZIk4cCBA3zCb968Of+8ZcuWPH7C559/zreHL0dGRgbGjx9f6giLdrsdK1asKFHIAC5sC+/fvx9EhDZt2sDr9cJmsyE6Ohpt2rTBgQMH8MorryAuLg6NGzeGaZqlGuvYfVhkS6fTWSbblUxjWZo4RCxSKROmmIcZM+RXFAVer5e7EwPgffJq+whL6Mfq1n9MZ/VvGAYyMjJ4Px09evQ1G05eiaNHj+Lo0aNYvHgxN9wt6XdYXWmahu+//x6SJKFJkyZFjOW7d++O+fPnIzs7G/v370ebNm2g6/o15xWq0O0SNlEuXboUHo/nqg7m0/tnQkWzikhPT4dpmvD5fOjduzf/vmnTphg3bhw0TcPBgwexbNmyUgsJRIQnn3wSkydPRo0aNZCWllYmYa3ZdsDV3uvcuXNYs2YNRo0ahQULFvAAZKZp4vjx45g6dSrGjx+PadOm4cyZM1wtWFmszCVJQkpKChesevXqxV2KmzdvjjfeeAOBgYH44Ycf8NFHHxXJIFjS/Zjh3ZQpUzB16lTccccdyMjIKJPyMgGDTU6lGVx0Xcevv/6K+Ph4PProo1iwYAFM04TT6YQsyzhx4gQmTpyICRMmYPbs2fjll1+g6zoXkmbMmIHg4GDceeed5Tag3eyYpom8vDwcOXIEEyZMKPUqTpZl/OMf/+DCZbt27aDrOizLQkBAAEaMGAGPx4Pt27eXqk9FR0cjPz8fhYWFVxwLNU3DuXPncN9995V4PxbNmBmw9+rViwvViqJg3rx5CAkJQUBAAJ566qlSR/aUJAmnT59GdHQ07rvvPrz22mtltmXJUj2U5l5s28g0TWzfvh1vvvkmxo0bh/T0dN4X//vf/2LMmDEYPXo0Jk6ciJSUFL64Ki2GYSAlJYX//9577y3ynlh2VdM08c4770CSJHTq1Klcx9Ft27ahdu3a6N69+xXPZYtMRVGwdetWGIbBo9Ay+vfvzxcoO3fu5HPFtVLhods0TeP7if7R5a50OByOMomDYBgGNm7cyAeTiIgI/p0kSXj11Ve5hPzcc8/h9OnTV7ynLMuYMGECateujZdffhlLly5FaGhomTQ0SZKQlZWFtLS0q7ouMzMTTqcTGzduxP79+/kEfOjQIfTt2xd16tRBkyZNsGjRIvTq1avSGU6apolNmzZx46q77rqLpyj2er2Ii4vjneP555/HiRMnAFw+hgoRYeLEiahRowZmzJiB5cuXo3bt2mVSXiLCqVOnkJaWVup6V1UV2dnZCAgIwOrVq5GWlsbTa2dlZaF///6oV68ebrvtNrz77ru4++67eahfABg0aBAPJMe0hIKrQ1EUrFmzBnXq1OEhoEsjaBw+fBhJSUkALggI7DqWx+L++++HLMtIT0/Hvn37rng/FhmURdm83MEEgstpNlk+EtYWu3TpwtOQK4qC7t27o3fv3iAi7m5bmpVrdnY2oqOjMWPGDMyePRsDBw7kIdTLgqSkpFLdi2krTNPEb7/9huPHjyMxMRGnTp3ifZEJYT179sS+ffswaNAgHmyqtEiShK+++orXTZcuXYq0DxZS4YsvvoDb7YZpmujevXu52rmsW7cODzzwAAoKCkp9zcGDB7kAdrFwqqoqBg4cCF3XsWDBgssu1krFlTKo3WiwTJKlyZZ49OhReuONN8jhcFBAQAB16dKFEhISeMbO3377jd5++20KCgoiRVFIURRq3LgxxcfHk8fjIZfLxe9lGAbl5+eTx+OhHTt2UHBwMG3fvp08Hg8VFBSQrus8y6Gu6+Tz+ciO2gf1AAAgAElEQVTlcpGmaeR2u8ntdvOseT6fj3w+H2maRgUFBZSfn0+6rlNBQQG53W7q06cPrVq1it/H6/Ve8VktyyLDMEhRFBo9ejRZlkWWZdHKlSt5NlnDMOjZZ58lh8PBMwh6vV46f/48uVwuMk2T3G43Lwcrf3lSWFhImZmZNG/ePHI6naSqKoWFhdHq1av5ey0oKKDVq1dTeHg4SZJEkiRR8+bN6bPPPqP8/Hx+L8MwyOfzkcfjIZ/PRzt27KDAwED68ssvqaCggAoKCngduVwuys/Pp99++41fk5+fz983y0jIMvB6vV7Kz8/n9VlYWEh9+vSh+Ph4nuX3SlycJXTEiBFkWRb5fD76+uuvafXq1Txr4l/+8hcKDAykNWvWUGFhIRUUFNDrr79ODoeDVq5cSefOneP1U9rMiSIL64Wsq3fddRdNnz79ivfzeDzkdrtp9+7dNGLECAJAiqLQPffcQzt37uSZXIkuZLusUqUKKYpCbdq0oRUrVtDhw4dLNU5dK7quk2ma5PP5aMWKFdSkSRMKDg6mFi1a0Jo1a8jj8ZCmaaRpGu3YsYNat25NDoeDZFmm4OBgeuONN+jw4cOUn59fpM79x6+//e1vFB4eTj6fj48LrP+wfqZpGhUWFvL+V1hYyMcbluXav/+4XC7yer309ttvU1xcXJE+XBosy6LZs2eTJEmUkJBAXq+Xdu7cSatXryaiC5lod+zYQQ6Hg9asWcOvMwyDCgoKeH9iGWnz8/PJ6/XSf/7zH1q+fDm1aNGCZ15dvXo15efn8yzQhYWFtGvXLmrTpg0pikJOp5MefPBBOnHiRJlmsGV9++TJk2S322n37t2lurfb7aYVK1ZQ586dSVVVUlWVpk+fTseOHePzjq7rlJCQwMvftWtXio+P53VoGMZVlfWW9sXcu3cv6tWrhw8//JB/pmkaDhw4gE6dOuHs2bOoXr063n//fe79wvb8NmzYUMR/nqmn169fjxkzZqBevXrIzs7Gww8/DFmWMXToUCiKgo0bN2Lp0qXIycnBZ599hvPnz0OSJHTs2BHR0dF466238OOPP8IwDLzwwgt4//33cebMGTz99NO47bbbMH78eOzZswf3338/jh07hrCwMB4t7lpglu9ExNW7DRo04AFe2LZCRkYGFi1ahNDQUNSvXx+7du3CypUry90SXVVV7N69G02aNMEHH3zAVahEhPT0dLRv3x7nz5+HpmmYO3cu3yLw+Xyw2WxITk7G6NGjAYB7MgUEBGDbtm2YMmUK6tSpg7y8PEydOhWKoqBnz56w2WzYtGkTlixZArvdjiVLluDUqVOQZRlt27ZFdHQ03n77bfzyyy+QJAlz587FggULkJubi0GDBqFLly6YPHkyvv32WwwcOBCHDx9Gw4YNr/kdsFgybBXKMmkSEerWrcvtSpKTk/m2UmJiIpo0aYK///3vlU4rVZmxLAu1a9fm1vaXQ1EUnDx5EtnZ2Rg+fDhGjBgB0zSh6zpycnKQk5PD612WZW4IyOwzcnNz0bhx43JTpVuWBbfbjW+++QamaeKVV14B8If9QmJiImJiYgAAJ06cwHPPPce3sFlfYSt+/z15IsLJkyexcuVKvPfee4iNjcWSJUuQlpaGWrVq4fnnn8ecOXNQt25dTJ48Gfv27cPSpUtx5513Ys+ePZg3bx7cbjdee+01yLKMDh06oG3btli6dCnCwsIwefJkzJ49GytWrEBcXBz27dt3xSBjV6Jz5858K4PZOimKUkRzyTQSn3zyCTIzM5Gbm4tOnTrBNE08+uijfJtk5syZRdxUf/jhB3To0AFEhH379iErKwvPP/88t82QZRl79+5F1apVyyxQIDNAPX78OOLi4tC2bdtShYHPyMiAoih44oknYLfbuYYiIyMDNWvW5PXfr18/xMfH8+0qXdeRl5eH+vXrX/3WydXJT5Wfq9Fk6LpOmqaRZVlcmmaaBPadruvkdrv53/7S98UrRJfLRYWFhdS0aVN66KGHyO1207vvvkuSJFFsbCw1bdqUGjZsSMeOHaPGjRvTQw89RMePH6ft27dTQEAA7dy5kzRNo3vuuYd69epFPXv2pHfeeYccDgfNnDmTPB4P3XPPPdSzZ88iK4XSSJYlaTJcLhc/NE2jVq1a0fz588ntdnPJ9tNPP6VmzZrRgQMHqKCggEJCQmj48OF8BV+esNUEqxPTNPm7Z/+63W4uYbPnYit+/3fDtAJsJdWkSRMaPXo0uVwueu2118jpdNLYsWOpRYsW1KRJEzp69Ch16NCBevbsSb/88gtt27aNQkJC6JtvvqHCwkLq0aMH3X333dSrVy+aP38+BQUF0ciRI0nTNOrevTv16dOHl7E0Gp+SNBls5ahpGm+jzZs3p4kTJ/J26/P5KCAggDp27EjffPMNvfvuuxQcHEwJCQml1jZVpCbDNM0ifcwwjDL/ndJoMli/L807Y2X2+Xz8vbA2xg7/39Y0ja/mmfayPDUZrM+zPmOaJj80TeP/sr9Z2/I/z+VycU2e/31dLhctX76cawM8Hg91796d7r33XurRoweFhYXR008/TfHx8RQQEEBr1qwht9tN06ZNo6ZNm5KmabRgwQI+Hj344IM0duxYCggIoIKCAhozZgzZ7XY6ceJEkfdY2uf212SwevHX7EybNo169uzJ+yZ7FyNHjqRRo0aRYRg0d+5cCg4Opvj4eN7HiP7QELG6ZP3T/70xrQJrH+yzsqrv4uqxNJoMpk1h57P6d7vdRcYZ//bi8XiKPNfVPsNNp8mg3/cnS7M6uDi8a0kS2sWfs9Wy/+dsdeLz+ZCVlYVZs2YBAFJTU+FwOHD8+HEcOnQIsixj3LhxOH36NN58802EhIQgLS0NNpsNOTk5cLvdSElJgaqq+Prrr3Hs2DEQEaZNmwbLspCWlobY2FjIsvynPGsYDoeDWxyvXLkSiqJgwoQJ3Dvjp59+wmOPPYZly5ahWbNmXPplKYCpnDUZxWlo/A2RSltnAHhIXxYLIScnB/369YNlWTh06BCICPv37+f1MX78ePzyyy/49NNP0bBhQxw6dAgul4snl2JGot988w2Pkjdo0CAAF6LF3nfffZdtV6XF/3qPx4OkpCSEhobi5Zdf5sa7GzduhGmaeOmllxAREQFFUfhzsmiUlRmmOWNhtun3FdX1zvh5NXXFPB8YbMwpTnPkbzNxvQxy/Y1/L36PxeV9Kq6vFZfDhIjgdDpx5MgRyLLMNR0HDhyAzWbDqlWr0Lt3bxiGgRo1amDIkCG49957oSgKsrOzcfbsWR6LpFq1ajh69Ci2b9+O8ePHY9iwYVBVFUlJSahevTpq1Kjxp9qAf+wKZuSpqir+9a9/4auvvoLX64Xdboeu65g7dy42btyIc+fOweVycS++O++8s8i78W8jJdUl+03/fleWbfni+ivtvUsq7+XGB/955lqeocINP28W2GS7aNEiGIaBBg0aQJZlpKSkQFEUzJ8/H6Zpwu12IykpCY8//jiqVavGjcN8Ph/q1q2LL774AjabDYMGDULLli2RnJyMqKgo2O12ZGRkwOfzXdaK/GrRdR12ux05OTlYvnw5kpKSuFEtcy9u2LAh96PesWMHbDYbevXqVWZluF6wyUuWZWzevBmmaaJBgwZwOp08Mt97773H08InJiaiTZs2POaBy+WC3W5HjRo1sH79egDAgAED0K5dO2zZsgUejwc9evTAjh07oGkaRowYUebPkJ2djUWLFuH9999HzZo1uTr22LFjkGUZ999/Pzd0M02Th9+v7JimCbvdDqfTydOK3wjlvlXRNA1vv/02qlevzoVzXdcxbtw4dOrUCZqm8VgjU6dORZUqVfgWTI0aNWBZFvbu3Yvz58/jmWeegc/nw+bNm9GuXTseNbW4hGJ/BuZg8Oijj2Lx4sVo3rw5n1xVVUVCQgJ3G1YUBRs2bECDBg3QrFmzMi3HrYYQMsoIJiGuWLECqqoiIiICubm5OHbsGEaPHo127dpBlmX88MMPICJERETwiKWLFy9G165dERkZiXXr1kGSJLzwwgtQFAXx8fEYOXIk3G43EhMTYbPZEBMTc00DsP81zA1WlmWcOnUKkyZNwuLFi1G/fn2cOnUKCQkJUBQFH3zwATp06ACbzYYjR47wkLNdu3YtEmvjRoCtlFVVxTfffANFUXDXXXchKysLx44dw7Bhw9C5c2fu7me329G/f3/+3j766CN07NgRkZGRWLt2LVRVxSuvvAIiQkJCAkaMGIHQ0FBs3rwZkiRxrcbVwOKZ+Ee2NQwDhmHg1KlTmDJlCj744AOEh4dzOwxFUbB582YeVZC1qbi4OK7VqIwYhsHjviQlJaFJkya4//77UaVKFYwdOxa7du3iE5Og8iBJElJTUwEA99xzDwzDQGpqKogIzzzzDEJCQiBJEvbu3QtZltG+fXvouo7Tp08jMTERTzzxBHJzc3HmzBmMGTMGQ4YMwddffw2fz4fhw4dzj5K4uDjuZVMaWFtifzNBlR25ubno0aMHhgwZgv79+/NkcQ6HAxs2bMDx48fRq1cvSJKEv/zlLzh48CBat25dbu/xVkEIGWWEaZpIS0vD4cOHMWzYMBAR1q1bhypVquDtt9/myYg6dOiAOnXqYPPmzfjpp58wbtw4ZGdnY8mSJcjKykJSUhL69++P8PBwbN68GaqqIj4+HseOHUNubi46d+6MKVOmXLVLETNQstlsyMvLg6Zp8Hq9+PnnnxETEwOPx4OZM2diyJAhaNu2Lfbv3w/TNFGrVi2kp6dj+vTpmDBhAurWrYtGjRrhb3/7W6WJoVFamDugaZr44osvMHjwYFiWhaSkJCiKgqVLl0JRFAQGBqJbt25cYEhJScGECRNw4sQJvP/++8jLy8OGDRvQv39/NGzYEOvXr4fdbsfx48cRHx+PU6dOoVOnTnjkkUeuqnzM5fTkyZOw2Ww4ffo0fD4fdF3Hf/7zH9x9991wu9149tlnMXr0aNSqVQuJiYnw+XxISUnB7bffjuPHj+O5555D/fr18fHHHyMwMLDSGn66XC74fD7MnTsXDz/8MJ555hkkJyfj0KFD+OKLLzBgwACkpKSgsLAQPp+voosr+B36PYy1pmkYNGgQAgICsHnzZgwaNAi1atXii5fBgwdDkiRs2rQJycnJGDhwIGJjYzFu3Diu5XjnnXcAAImJiZAkCcuWLcPx48dBRNi6dStOnDhRqrFO0zR4PB4QEc6fP8+3cjIzM+Hz+ZCZmYmBAwfC6XRi9erVmDRpEtq3b48NGzbA4/GgZs2acDgcSEhIwIABA+D1eqEoCg4cOIC9e/eW9yu9qZHoJtNJjh49mue3uJ5YloWFCxfi2WefxZYtW9C5c2dkZGTg9OnT6NWrFw/hqygKsrKy+DZKWFgYWrduDafTiaysLO5JERERgezsbKSkpCAiIgLh4eE8uVF0dDQsy7piND5/UlNTkZmZCZvNBp/Ph/DwcHTs2BEbN26Epmk8Eh6zWxg6dCgPYLN7924e7CUlJQXHjh3Dgw8+yFcOZWEbcj1gOXJ++eUXdOrUCZ9//jm6d++O1NRUnD59Gn379oXD4eB7rpmZmVwNXLNmTXTt2pVrfvbt24caNWqgW7duyMnJQUZGBpo1a4ZGjRohPT0dZ8+exYABAxAUFFTq8hmGgR9//JHb7jBPn/bt2+P7779HZmYm7HY791u3LAuRkZGoV68eTp06xYPKNWjQAF26dIGqqlclCD7wwANISEiA1+vle69EhLVr1yIuLg6zZs3CzJkzryoB0+UoKCjA7NmzsWTJEliWxT0vWKyKJ598EnXq1MGBAwf4c/8ZmL0W/Z6BdOjQoVi9evWffo5bDcMw0Lt3b3i9Xmzfvh2yLCMxMRH169fnXhzMxiYjIwO5ubkAgPbt2yM0NJR7W+Tm5mLYsGFcc3jmzBnExMQgIyMDJ06cQPv27dGoUSOoqnrF9sY0Xm63Gzt27EBBQQG364mKikJmZmaRGEdsm7FHjx6oVq0a7HY79u7di8OHD+Puu++G3W7Hrl27UL16dfTp0+e62wbdVFyVmegNwKhRo8hut1+332PxJHRdp1GjRtG9997LPRv8D2a9zaycL7ZKZ94SzILZ33qZWbozS2Bm/cusfEvyLmH3YB4X7P9EF/ylmVUyu7e/BbG/dwazjGfnFxYWEtEfFvOVHfYemWX5888/T+3ateOf+3uuXGw5zWKmsHr2eDzcQtvfep/VJasb5vVRmrJZlkVer5fXDbuny+UqYg1+cdmYRbh/W2GfX4sXyPX2LvF4PBQQEEDBwcE0ZswYOn/+PHk8Hu61pKoqKYpCq1atKpPfLI13iaBkWDs1TZOcTift3LmTt0EW/8ffk4p5vrFxhLVT9i87n/3N+gDzciH6w4viSh5HF8fcYLDxk/Vt1k/8+77/7/h72lzsnSa4Nm4675LrzYkTJ9C2bVs8+eST2LdvH/bu3QvDMIpd3TML5Yst2CVJuuT84sJRX2wB7PV6oes6tmzZUqyNBhGhTp06iIyM5JEjGcxfu7RW0Ox7WZb531eKMlhZ0HUdubm5aN26NaZOnYqFCxdi27ZtJeY18ediTcTF9cSuZ1sS/u/j4nqOj48v8Xfq1q3LDd3YPYuz7PfnYp97dh37vLJvZ6WkpICIuLra6XQWMfjs0aMHdu3aheTkZIwcObKCSytYsGAB3n33Xdx555144okn0LFjRwBFPfP823xptuku9vADio55bCzSNA0//PADjhw5UqI9WufOnVG/fv0iffDiMvj3+eJ+h/17rXGHBJcihIw/Sf369bF8+XIoioLZs2eLnBGVECJCtWrVsGjRIkiShP/+97+V1k7hVmLz5s0810eXLl2KGOqZpokaNWoAuODRJKh4Bg4ciNtuuw3h4eE8aVZZBZcS3LzcVEIGy2UhSRISEhJKPC86OrrM7AgURUFsbCwkSeL7ySVJ2mWNw+FAQEAAj5txMWzALm3ckJsVlutm7NixPFvp9aojf4pbjbM2yybb8sKyLGiahpSUFPzvf/8r9py8vDwA108Dkp2dzW0kWBtl9ib+mjdmqyH2xSuWRo0aITw8nNtcXE+vH1VV0a5dO7Rv377Y9snsrfzjYggqBzeVkGGaJiIjI0FEJRp0EREGDx4Ml8t1VUZ5JeG/ImaN+3oN0ux3SupUt7pwwfBXyfpv9VQGituuKg+8Xi9UVcX333+PnTt3XvK9aZqoU6cOhgwZwlNilzf0u3uuf7h++t31ELjwbphBn5g4Kh7/8eTiQGTlzZV+S7SPystNJWTIsowpU6bg8ccfv8QGgcHSAQt1ueBWQlVV6LqOyZMn44knnij2HCaIVBYBTCAQ3PjcVEJGaQz5SnOOQHCzYbfbryhYX+/9dcuyrqjBYamzb7TAbwKB4AI3lZAhEAhuLC4XaImp5zVNE9oVgeAGRWxkCQSCCmHevHlQVRWKoiA1NZVHoTVNEz6fD+vWrYOqqpg3b54QMgSCGxQhZAgEAoFAICgXhJAhEAgqhJo1a2LChAkAgK1bt+LcuXOQJAm6riMxMRGmaaJJkyaIjY2t4JIKBIJrRQgZAoGgwpg6dSpatmyJn3/+Gd9++y00TcPRo0fxxhtvwOFw4Mknn0TVqlVF2neB4AZFGH4KBIIKISAgAM2aNcOMGTOwcOFCJCYmIjg4GJs3bwYADBs2DNHR0ahSpUoFl1QgEFwrQsgQCAQVSmxsLFq2bIlNmzYhPT0d1atXx7x589C1a9cbJsOvQCAoHiFkCASCCkGSJB6NtVWrVmjdujVPYe9wOKBpmojkKBDc4AghQyAQVAj+bqnFZeAUmTAFghsfsUwQCASl4mbRKrBEWgKBoPwRmgyBQFAqFEXhETr9J2n/SbsyTN4leaKwrKGmad40ApNAUNkRQoZAICgVmqbxifpiIYN9Vhnyi1iWxVPGX5yJ2DAMEJFwiRUIrhNCyBAIBJeFaSp+/fVXHDx4EETEbSiAC8JHtWrVEB4eXimEDEmScPbsWWRmZkJVVV5WwzC40MEED7F1IhCUL0LIEAgEJUJEcDqdaNeuHVJSUvDNN99wbQZDVVX069cPM2fOrKBSFkWSJGRkZGDGjBkAiiZhUxQFsiyjefPmqF+/PgzDuGImWIFAcO1IJPSGAoGgBAzD4NsPJUFEsCwLiqJUignbsqwi7q8llZ2IIMtyEa2MQCAoW0TvEggEl0VRlP/f3pkHR1mkf/z7vu+cmRzmmomQIGG5I4Qjwgb4KaAWV0AWTK1QsCwrJascux4son9ssSuUK1AiCqvgIkqkuMKxIEfALLCKQYjLUUAQAUklhCSEnDOZ9+zfH9nunQmBJJDJRX+qKOPM+77Tb7/99vP0czUMw7irMNZ1HZIktao4B0mSmFukriBPGvx5r63mORzOg8MtGRwO555QgXwviwCdRlpD1oavO+du7WltbeZw2itcyeBwOBwOhxMQuArP4XA4HA4nIHAlg8PhcDgcTkDgSgaHw+FwOJyAwJUMDofD4XA4AYErGRwOh8PhcAICVzI4HA6Hw+EEBF6Mqx1SV50AwzAgiiL778OA78Zdvv/v+1kg8N1ErPZGYvS71rDHR2uHVhqllTkpvB85nLYDVzLaGYZhQFVVADUloekkrKoqq9hoNpvbfSllRVGgqqpfESlCCDRNQ1BQEAzDCFgJbMMw4PV6QQjx+w1N02Cz2UAI4cKxARBCIMsyNE2DyWRiz5GWMBdFkfcjh9PKeTiWtA8RdIdMRVEQFRWFoKAgOBwOOJ1OPPLII5g9e3a7VzCAGgvOzJkzERISAofDAYfDgeDgYLhcLlRUVATUmiMIAubMmYPIyEjW/w6HAzExMWwnUE7DyMjIgNPpRHBwMBwOB4KCghAaGoo9e/a0dNM4HE4DaP/S5iFDEAS2WlcUBYQQJCcnIy4uDoIgYMCAAe3GZaLrOhPYoij6bdstiiJ++ctfMnN7Xl4evvvuO8iyjJCQkIALelVVoaoqOnXqhMGDBwOoMe37rsgfdnzdHr7WCYokSXA6nZg4cSJ0XWfP0DAMVuqcw+G0briS0c6gJmTfHSgXLFiAiRMntnDLmg7DMJhCQU3piqL4uSZEUcRrr73Gjt+1axcmT57M4iQCKegFQWDxBMOGDcMXX3xx1426HmZkWYbJZGLPkLqzfC1tycnJSE5OBiEE6enpSE1NZdY63p8cTuuHv6WcNommafB4PAAAr9fb6nYB5dQP3SnVV1ngVh4Op33R4paMqqoqHDhwABkZGXC73WzSoRHldrsdM2bMQP/+/SFJEr7//ntkZWXh7NmzfivG+Ph4vPXWW8jKysLevXtRUFDAtnG2WCwQBAFxcXHo168fYmJiUFBQgH/+858QBAG6rvuZXwcPHoyBAwdi0KBBAYtf8Hq9uHz5MjIzM/HDDz+wttKJ1zAMDB06FDNnzmRm5T179uDrr7+Gx+OByWSCqqqwWCyYOHEiJkyYcF/toObqEydOICMjA9evX2dBomazGQkJCUhNTYXL5YKmadi7dy/27t3rZ+a2Wq0YP348UlJSAhaIp2ka+728vDy88soruH79OgDA5XJh/vz5eO6556CqKmtTayUvLw9ZWVn46quvmEsLqAnIFUURLpcLc+fORWxsLABg165dyMrKQmFhIUwmE7xeLwRBQN++fTF37lzmgjl+/DiOHz+OCxcusKBfq9WKPn36YNiwYejbty8EQUB6ejr2798PTdPYFu6CICAlJQWjRo1CSEhIwO6dEAJd15Gbm4s5c+bg6tWrsNvtkGUZc+fOxUsvvQSgJnDXYrHwwE4Op61DWhBd14mqqsTj8ZBbt26RESNGELvdTiRJIna7nYwYMYJUVlaSqqoqomkaUVWVuN1ucuvWLTJt2jTyyCOPkF69epGMjAxSWVlJZFkm1dXVpKysjAwZMoRIkkQkSSIWi4V0796dFBUVkerqalJVVUWqqqpITk4OcTgcxGw2E6vVSsxmM3n99ddJZWUl8Xg8RNO0gN27pmnE7XYTj8dD3nvvPWKz2YjFYmH3/v777xOPx0NkWSaKorB+Wr9+PYmIiCChoaHkvffeIxUVFaSqquqOaxuGQURRJIIgkJ07d961HaqqEl3XiaIopKSkhISFhZHg4GBis9lIWloa8Xg8xOv1smOqqqrIl19+yfprwYIFJD8/n7jdbiLLckD7y+PxkOzsbNK7d2/y1FNPkcrKSnL79m0ycuRI4nQ6yR//+EdSUVFBVFX1O1fXdZKenk4AEEmSWP8ECl3Xya9//WsiCAKZOnUq0TSN6Lru931JSQm5dOkScTgcbJza7XYyffp0UlpaShRFYcdXVVWRgoICEhERQcLDw8n06dPJjz/+SNxuN3G73URRFKIoCpFlmXg8HjJ58mQ2pjdt2kTKy8vZWNI0jZSVlZEtW7YQu91OwsLCyPDhw8nly5dJdXU10TQtoOO+urqaXLt2jfTu3Zs8++yzpLS0lJSVlZHly5eTiIgI8vrrrxO3202qq6v9+swwDLJt2zYCgAAg27dvD+gz5HA4TUOLu0vIf9P5goOD0aFDByiKAqBmpR8dHc1WMnTVJYoijh49ip07d8LpdGLLli0YNGgQu5amabBarXC5XMxCYRgGEhMTERwcDEmSYLPZIIoiOnXqBKBmdUz/JSUlNcsqWNd15leOj49nlgyaghoVFcUsGnQVf/PmTWzcuBGyLGPVqlWYNWvWA/ul6X1rmobQ0FBomgZVVZGSkoKxY8cCqOlX4uMvLywshCiKMJlM+M1vfgOXy9UsK86TJ09i5MiRuHbtGmbOnAlBEGC1WrFo0SKUl5fjs88+Q3Z2dsDb0RTY7XY23uk4VRQFXbp0gcPh8HMbWCwWvP/++5BlGWPGjMHq1avRqVMnZvXytf4JggCLxQJVVTFgwACkpKTAbDazMa3rOmw2G/Lz80EIgaIoGDVqFHsXSIBdTh1FoNIAABN/SURBVIZhYMKECcjNzcW0adNgsVhgt9sxa9YsREdHY8OGDThz5gxrK4fDadu0qLtEFEU/IUkVAt8CPJIk+WURfPTRR1iyZAn69u2LnTt3IiIigrk06ARLhQ/9jAppm83GrmOz2aDrOrxeLxO0QI3JmtaRCKR/2GKxsL99hTh139AgRioUDMPA9OnTcenSJRw8eBCJiYlwOBxN1g5JkrBz507Isgyz2YwXXngBISEhTJABgNVqhaIoOHXqFHRdR48ePdC1a1dIktQsSsann36KiooKWK1WpKamMiVtyJAhEAQBbrcbq1evxtChQwPelgdBFEU2Tn0Fqa7rsFqtEEURiqLA6/XCZDJh6tSpOHr0KObMmYM///nPCAoKYufQsUPdfZqmYdeuXTCbzRg2bBgb8/Q3gRqF/fjx40yJffrpp/2+b2p8XYGHDx/GlStXYBgGpkyZwt4zSZLQt29f7Nq1C3//+9+xbt06Hp/B4bQDWtySUR+6rrPJb926dVi6dCmefvpprF27FhEREWz1Rieke01Mvt/VN4G19ARHFSeLxYKsrCyMGDECxcXFePfdd5GUlASz2dykmRKCIOD69evsWs888ww0TfNb2dK/9+3bB0IIhg8f3mw+c0EQcOLECZjNZrhcLmZJoUW1nnvuORiGgcOHD7eZrIN7PTdRFFFcXIz58+fj8OHDmDp1Kt5++20/BYNegyrkhBD8/PPPrAhYUlKSX1ovRdd1ZGZmQtd1xMbGolevXgG5P982apoGr9eLrKwsaJqG2NhYNoaBGgvHkCFDWOyRb9VaDofTdmnxwM/6MJvN0DQNCxcuRFpaGv72t79h0qRJcDgcUFW1VQf4PQjUjfTVV19h3rx5iI6OxqZNm9CtW7eAVavcv38/dF3HmDFjEBQUdIeSYRgGfvjhB5Z6OHny5GbL6Dhz5gxu3LgBAEhKSoIkSczqJQgCevXqBVEU4fF4cOrUKVaboq1SVFSE1NRUVFVVYffu3ejZsyfsdvtdj6cur+XLlzOr2OjRowHUKBW+yuB//vMfuN1uAMDo0aP90kgDiclkwo4dO6BpGhITE/2+03UdcXFxMAwDsixj79697SrtmsN5WGmVSgZ1d0iShPPnz2P27Nm4cOEC0tLSMGTIEFitVj93SH1IkgSz2QxVVf0mWxqBT83MDaUxqyxd16GqaoNcMHR1rus6NE3Dq6++is2bN+P555/H22+/jbCwMNjt9iZ15ciyDEEQoKoqsrKymPIgiqKfywaoue99+/ax7I2BAwc2m9UgNzcXHo8HhBBYLBY/JYsqG/S55OXlNUrJoAKaKq0NvSfy37LXZrP5jkJS94PFYoHJZMLu3bvx6quvwmw2IyMjAx07drznedRSoGkadu7cCcMwkJKS4udO83XL0MwSURQxbNgwAAhYiXUKzZy5du1anUoytWrQPs3JyXkoKtNyOO2dVvkWU1/1yZMnMX78eBQXF8MwDLzzzjtIS0tDp06dGi1k8/PzsX//fr/PqEBv7LXi4+MbfCwViufOnat30qRCkhCC5cuX4/Lly6iursbmzZvRp08fTJs2zW8vjqaA7qdx6NAhpnBs3boVWVlZdR5/9OhRGIaBJ598slnTC3Vdb7DVpLGmdqpgfvLJJ/jggw8afJ4gCFi5ciXGjRvXJFVURVHE7t27cf36dRQXF0OSJKxYsQIrV66s91yTyYTMzExUV1dDkiRcuHABc+fOrXOsHDt2DCaTCZIk4dlnn21W99LdgjlrbyTXGKWfw+G0XlqtkmEYBm7evInq6momWM+dO4cPPvgA77zzjt/KpyHCTtd1di2KLMuQJKnRE9rRo0cbfCz5b40LGuh3L6hyZTKZkJOTwwJBq6ur8Ze//AUulwsTJ05kFS+bQshbLBbouo7t27fDMAw88cQT+Pjjj+u0FBBCsGnTJhBCMGnSpGZdafrGHtxLiagrBqE+aLXJGTNmYNKkSY06NyIiwi849kFQFAU5OTmoqqpiVUzT0tLQuXNn/OEPf7irkkWfz+7du1kfffbZZ3jsscfYGKHjkBCCL7/8EpIkYfbs2XcE9wYC2j5qPakva4S+o/fzLDkcTuuiVSoZ1LowfPhwlJeX49tvv0VISAgqKiqwceNGeL1erF69GsD/ymjXdz2n04lx48b5TVqapjVqhUzp3Llzo45vzGRJ733WrFn4+OOPYbfbUV1djeLiYixatAjx8fF4/PHHATTtNtf79u2DyWRC165d8eijj7Jr0/RKTdOwdu1aKIoCm82G/v37N6uSQTNu7hWPQrNcGmvJoEItIiICkZGRjTq3KQWhIAiYPn06Dh06hCtXrkCSJHg8HixbtgySJGHu3Ll1nieKIlRVxf79+6GqKsLCwpCQkACHw+H3HBVFwZEjR5hyPXLkSL/gy0AhSRJUVWWZMPfCarX67R7M4XDaNq0yDJ9aLkJCQrB+/Xo88cQTUBQFhmHA4/Fg+/btOHDgwB0psPeC1uKgO2LSf81BQydxX1fIoEGDsHDhQlYRUhAE/Pzzz1i7dm2T7uQpiiJu3ryJiooKljFSu+00xXDz5s3QNA3h4eHo2bNnwPcAqd1OauG620qYrtbvt77C/dxLU96/1WpFVFQU1q5dy7JFqKXt888/R0FBQZ3nGYaBwsJClJSUQBAEJCcns2fme4zZbMY333wDTdMQHR3NUn8DDU2vbcj7SqvYUqsLh8Np27RKSwbFMAzExcVhxYoVmDJlCvLz8wEAlZWVeOONNxAbG4t+/fqxyai5BN7Bgwcbdbwoihg5cmS9qzOqTNA4jjlz5iA7OxuHDx9mq/P09HR06dIFr732mt/x93vvhBB2fUEQMH78eL9sBCrYT58+jYsXL7KdXJs7KK9Pnz4sGNW3nDztF1+LVFJSUqOuTVfY165dw08//dSocxMTE+F0OptE4aIl0RMTE7F06VL86U9/AlBTev/y5cv47W9/i8zMTHbvVGBLkoRDhw4xV1tKSgpzg/laMiRJYnFJiYmJd6TDBgraTlmW0bdvX1Zsi/Y7HcP0GRqGgXHjxt2RFcPhcNoerVLJoKsY6l/u06cPlixZgt///vdQFAUmkwm5ubl444038PnnnyMuLo6d2xyKxvbt2xt8LPVBDx8+vN6dOH1jHwAgPDwcK1euxDPPPIOSkhKoqorS0lJ8+OGHSEhIwJgxYxpUH+ReKIqCY8eOsWJIYWFhdRZIO3PmDMvuGD9+fLPXoujYsSP69OmDs2fP4vTp034xBrquY8OGDRAEAf369as3G6M29DrZ2dk4dOhQo84NCgpCdHR0k8TI+O43Mm3aNJw6dQrbtm2DoiisgNbChQvx17/+1U/JMwwDR44cYe6kYcOG3aH0EEJw/fp1XL16FQAwduzYZrVCATWWmgkTJuDcuXO4ePEii4Wi7pTMzExYLBYkJCQEvHYHh8NpHlqlkgH8r/ATDZocPXo0Xn75ZaxatYrFLWRnZ2PJkiVYuXIl7HY7DMNolpXPW2+9xf6ub6KmZcIbM6H73nvHjh2xbt06PP/886zI0q1bt7BgwQL069cPHTp0uL+b+C+6ruNf//oXVFVlgsfXTE0FBF0BS5KEMWPGNEk2RWPwFVA3btxAfn4+OnbsCEIIbt26heLiYoiiyEqhNwZ6v//3f/+HpKSkBt+XrusIDQ1lyvCD4ltYLjg4GIsXL8aPP/6I77//npUA37BhAwYOHIgxY8YgNDQUQM04ycjIgKqqGDFiBOLi4u5ojyRJOHbsGIvHGDt2bMDTVmsjiiImT56MpUuX4urVqyguLkZUVBR7b69duwYA+NWvfsV31eVw2gktqmTQVSgA5num+y74BvAZhgGbzYb58+cjIyMD58+fBwB4PB7s2LEDMTExePPNN1mUPF3lUkRRRGlpKVNO6KRWWFgIs9nMJl5BEFjsBz2mLuWgsSmstc3b9J5oASTf733bL4oiZFlGcnIyPvzwQ7z00kusbT/99BPmzJmDd999F/Hx8awqakOEnW/a7saNG1FYWAhBENCtWzd4vV7YbDZ2nKZpKC4uxjfffAPDMDBgwABERkY2uyVDkiTMmDED2dnZ2LdvH7Zs2YJ58+aBEIK0tDQAQL9+/fC73/2u0cKJ3ktkZGSjSqTT+I/GxAbR83zLyFOodYKO3bi4OCxbtgxPPfUUO6a8vByLFi1CZGQkSyM+duwYSktLQQjBgAEDWBl64H9uElVVceDAARiGgccffxxRUVEtIsQ7deqEefPmYdWqVUhLS8Mrr7wCm83GLFSJiYmYNWsW2yKAw+G0bVpcyZBlGVlZWcjMzMSJEyeYACSE4N///jeWLVuGkSNHIjExEefPn4csy7BYLKiurgYhBLdv38Y//vEPFBUVoX///ujSpQvOnj2LI0eOsN8wm804e/YsPvroI/Tu3RtRUVEoKirC1q1bIUkS818bhoG1a9cCAHr27InExMQHNinXDsCjyLKMgoICHD9+nJn6gf8JmE8//RS6rmPChAkoLCzEuXPnYDab4Xa7mXA4cuQIXnzxRTz55JN44YUXkJCQ4Ldl/d3QNA0XL17Ejh07sHnzZra1+44dOwDUrCRFUURRUREOHjyIbdu2we12w2634+rVq1izZg2mTp0Kl8v1QH3TGAzDwKOPPorFixdDVVWsWbOGWXXS0tIwdOhQvPnmm4iJiWl04Cftr8au7KlS2NgxUlxcjFOnTmH//v1+KZ2SJGH9+vWw2WxITU1FWFjYHRu+EUKQl5eH+fPnY8KECRAEAd9++y1zPXz33Xf45JNPMHHiRLhcLpSWluLrr7/GgQMHkJmZCUIICgoKsHr1akyaNAldunRpVNsfFIvFgpdffhmnT5/GmjVrYLFY4HA4sGbNGsTHx2Px4sVwuVw8fZXDaScIpAVtktQEXFpairKyMhQVFfnlyBNCEBkZCafTifDwcBQWFqKgoAAVFRV+JZa9Xi9CQ0Nht9sRFhYGWZaRl5fHhAYtMvXYY4/B4XAwy8GNGzdQUlLCrqUoCkJCQuB0OhEUFITw8PCArdgVRUFVVRXcbjeKiopQWVnJ6jUYhoGgoCC4XC64XC54vV7cuHEDRUVFfittXdchyzKcTic6duyIkJAQ1l5aPZQQgh07dviVaFZVFW63Gzdu3EB5eTmzHAUHByMqKgrR0dEQBAFerxe3b99GYWEhS/c1m82IiIhAbGxsswUO0nulrqfc3Fykp6fD7XbDMAwkJCSgZ8+eSEhIgNVqBSHkjpiFXbt2YfLkyZAkCbIsN3lRM18Mw8DUqVOxdetWTJkyBV988YWfJUtRFOTn56OkpAQej+cO5SYyMhIulwtWqxW5ubkoKSnx6wez2Qxd1xEeHg5CCNxuN1RVBVATI0LHsMVigSzLKC8vR0lJCbxeLzsuJiYGkZGRiIiICEgf3A2v1wtFUXDlyhWWcqtpGux2O0aNGoUePXogODj4jvMIIUhPT0dqaiqAmrioSZMmcUWEw2nltKglg068UVFRcDqd6Nat210LLkmSBKfTiZiYGL9aCdRkTScbugLq3Lkzm9Sp2Z+WfqZKBp2kqbnbN9I90DEHkiQhJCQEYWFhLK7CN9jVF4fDgR49eqBbt25+LhxN0+5w6/hmXNzrt0NDQxEcHMx8374rR3rvDocDdrvdL7CWft/cUf++VoOuXbvixRdfhNfrhSiKiIiIYLuN1hdc2xqwWCyIjY1l9Uh8xzItyEbHYXx8PLp3787O9X22vnu31LaE+Y5nh8PBxpjv+GgJAU13OU5ISECHDh3g9XoB1PQJVW45HE77ocUDP323aQf8g99qf+a7LTSltsm6rnRW330lqBCqLcxrT26BFlS1/fi+AZe120Lvv65gvvtJJfXti7rM/b6f1fV9Swjx2m11uVx37ae2AN3LxhfflNTaAbi+x9xr52FfC40gCHdYSXzHf0v0FX13RVFkqb+Af/o2h8NpP7S4klGXgKv9eX1pmnUd29DfaWi7mpq6rt/Qttf3+YO0ofbnrU1o36s9ra2t9VFf/9/P9w0d5y3dVw157zkcTtundduVORwOh8PhtFm4ksHhcDgcDicgcCWDw+FwOBxOQGjxmAxO00ID53Rdh8VigaZp2LNnDy5fvgxBENC9e3eMGzeu3e8J4fV6sW/fPly5cgWiKOLcuXMsoJIGGAbK/+8bmHnp0iWsWLGCBfrOnz//rrVTOP4QQpCTk4O9e/eCEILz58/7pW+3pUBfDudhhSsZ7RBauXTw4MHQdR0lJSXIzs5mqakPQwS/IAi4evUqTp48yWp+JCcns+qXja3S2Rho6umQIUNgt9tx8uRJJhxpujBXMhpGYWEhTp06BcMw2DM0DAMRERENKjzH4XBalhYtxsUJDLRkOa0WSQWbYRiIjIxEr1692v0KUFVVXLp0CWVlZSxtk5bYTkpKYinRgcAwDOTk5KCsrIzVsqDQHWybe9+Qtoiu6ygsLMSVK1f8UpgJIfjFL36B6OhorqxxOK0crmS0Q2rX26BKBuVhWP3R/UF8hVNtgR9IRYv2d22TPlV02ruS1xT4jtu71UTh/cjhtG64ksHhcDgcDicgtP8lLYfD4XA4nBaBKxkcDofD4XACAlcyOBwOh8PhBASuZHA4HA6HwwkIXMngcDgcDocTELiSweFwOBwOJyBwJYPD4XA4HE5A+H9CQ6qVdmOP4wAAAABJRU5ErkJggg==;" parent="1" vertex="1">
                    <mxGeometry x="633.97" y="865" width="186.03" height="150" as="geometry"/>
                </mxCell>
                <mxCell id="165" value="" style="edgeStyle=none;html=1;" parent="1" source="162" target="164" edge="1">
                    <mxGeometry relative="1" as="geometry"/>
                </mxCell>
                <mxCell id="162" value="计算 dx_ = -Kz + (KH-I) delta_x_new" style="rounded=1;whiteSpace=wrap;html=1;" parent="1" vertex="1">
                    <mxGeometry x="400" y="975" width="210" height="39" as="geometry"/>
                </mxCell>
                <mxCell id="167" value="" style="edgeStyle=none;html=1;" parent="1" source="164" target="166" edge="1">
                    <mxGeometry relative="1" as="geometry"/>
                </mxCell>
                <mxCell id="173" value="" style="edgeStyle=none;html=1;" parent="1" source="164" target="172" edge="1">
                    <mxGeometry relative="1" as="geometry"/>
                </mxCell>
                <mxCell id="164" value="更新 x_ &amp;lt;- x+dx_&lt;br&gt;boxplus()" style="rounded=1;whiteSpace=wrap;html=1;" parent="1" vertex="1">
                    <mxGeometry x="400" y="1035" width="210" height="39" as="geometry"/>
                </mxCell>
                <mxCell id="169" style="edgeStyle=none;html=1;entryX=1;entryY=0.5;entryDx=0;entryDy=0;dashed=1;" parent="1" source="166" target="118" edge="1">
                    <mxGeometry relative="1" as="geometry">
                        <Array as="points">
                            <mxPoint x="980" y="995"/>
                            <mxPoint x="980" y="415"/>
                        </Array>
                    </mxGeometry>
                </mxCell>
                <mxCell id="171" value="是，此时重新更新近邻点。&lt;br&gt;否则，用上次的近邻点继续迭代" style="edgeLabel;html=1;align=center;verticalAlign=middle;resizable=0;points=[];" parent="169" vertex="1" connectable="0">
                    <mxGeometry x="-0.6339" y="-5" relative="1" as="geometry">
                        <mxPoint as="offset"/>
                    </mxGeometry>
                </mxCell>
                <mxCell id="166" value="判断收敛？" style="rhombus;whiteSpace=wrap;html=1;" parent="1" vertex="1">
                    <mxGeometry x="640" y="1050" width="180" height="80" as="geometry"/>
                </mxCell>
                <mxCell id="172" value="迭代结束，更新协方差矩阵&lt;br&gt;P=(I-KH)*P" style="rounded=1;whiteSpace=wrap;html=1;" parent="1" vertex="1">
                    <mxGeometry x="400" y="1102" width="210" height="39" as="geometry"/>
                </mxCell>
                <mxCell id="174" value="" style="endArrow=classic;html=1;exitX=0;exitY=0.5;exitDx=0;exitDy=0;entryX=0.75;entryY=1;entryDx=0;entryDy=0;" parent="1" source="172" target="40" edge="1">
                    <mxGeometry width="50" height="50" relative="1" as="geometry">
                        <mxPoint x="360" y="1125" as="sourcePoint"/>
                        <mxPoint x="410" y="1075" as="targetPoint"/>
                        <Array as="points">
                            <mxPoint x="320" y="1115"/>
                        </Array>
                    </mxGeometry>
                </mxCell>
                <mxCell id="193" value="" style="edgeStyle=none;html=1;" edge="1" parent="1" source="186" target="192">
                    <mxGeometry relative="1" as="geometry"/>
                </mxCell>
                <mxCell id="186" value="kdtree初始化&lt;br&gt;ikdtree.Build(point_cloud)" style="rounded=1;whiteSpace=wrap;html=1;" vertex="1" parent="1">
                    <mxGeometry x="1470" y="517.5" width="240" height="45" as="geometry"/>
                </mxCell>
                <mxCell id="195" value="" style="edgeStyle=none;html=1;" edge="1" parent="1" source="192" target="194">
                    <mxGeometry relative="1" as="geometry"/>
                </mxCell>
                <mxCell id="200" value="" style="edgeStyle=none;html=1;" edge="1" parent="1" source="192" target="199">
                    <mxGeometry relative="1" as="geometry"/>
                </mxCell>
                <mxCell id="192" value="初始化tree&amp;nbsp;InitTreeNode()" style="rounded=1;whiteSpace=wrap;html=1;" vertex="1" parent="1">
                    <mxGeometry x="1485" y="585" width="210" height="30" as="geometry"/>
                </mxCell>
                <mxCell id="197" value="" style="edgeStyle=none;html=1;" edge="1" parent="1" source="194" target="196">
                    <mxGeometry relative="1" as="geometry"/>
                </mxCell>
                <mxCell id="202" value="" style="edgeStyle=none;html=1;" edge="1" parent="1" source="194" target="201">
                    <mxGeometry relative="1" as="geometry"/>
                </mxCell>
                <mxCell id="194" value="BuildTree()" style="rounded=1;whiteSpace=wrap;html=1;" vertex="1" parent="1">
                    <mxGeometry x="1485" y="640" width="210" height="30" as="geometry"/>
                </mxCell>
                <mxCell id="210" value="" style="edgeStyle=none;html=1;" edge="1" parent="1" source="196" target="209">
                    <mxGeometry relative="1" as="geometry"/>
                </mxCell>
                <mxCell id="196" value="Update()" style="rounded=1;whiteSpace=wrap;html=1;" vertex="1" parent="1">
                    <mxGeometry x="1485" y="700" width="210" height="30" as="geometry"/>
                </mxCell>
                <mxCell id="199" value="对 root 进行一些设定" style="rounded=1;whiteSpace=wrap;html=1;" vertex="1" parent="1">
                    <mxGeometry x="1775" y="585" width="210" height="30" as="geometry"/>
                </mxCell>
                <mxCell id="204" value="" style="edgeStyle=none;html=1;" edge="1" parent="1" source="201" target="203">
                    <mxGeometry relative="1" as="geometry"/>
                </mxCell>
                <mxCell id="201" value="寻找需要切分的维度（axis）" style="rounded=1;whiteSpace=wrap;html=1;" vertex="1" parent="1">
                    <mxGeometry x="1775" y="640" width="210" height="30" as="geometry"/>
                </mxCell>
                <mxCell id="206" value="" style="edgeStyle=none;html=1;" edge="1" parent="1" source="203" target="205">
                    <mxGeometry relative="1" as="geometry"/>
                </mxCell>
                <mxCell id="203" value="寻找中间的元素 point_cmp_x/y/z" style="rounded=1;whiteSpace=wrap;html=1;" vertex="1" parent="1">
                    <mxGeometry x="1775" y="700" width="210" height="30" as="geometry"/>
                </mxCell>
                <mxCell id="208" value="" style="edgeStyle=none;html=1;" edge="1" parent="1" source="205" target="207">
                    <mxGeometry relative="1" as="geometry"/>
                </mxCell>
                <mxCell id="205" value="递归 BuildTree，对中间元素的左右进行创建下面的tree" style="rounded=1;whiteSpace=wrap;html=1;" vertex="1" parent="1">
                    <mxGeometry x="1775" y="765" width="210" height="30" as="geometry"/>
                </mxCell>
                <mxCell id="207" value="Update()&lt;br&gt;此时Update的是STATIC的左子树" style="rounded=1;whiteSpace=wrap;html=1;" vertex="1" parent="1">
                    <mxGeometry x="1775" y="830" width="210" height="30" as="geometry"/>
                </mxCell>
                <mxCell id="209" value="TODO:" style="rounded=1;whiteSpace=wrap;html=1;" vertex="1" parent="1">
                    <mxGeometry x="1330" y="700" width="120" height="30" as="geometry"/>
                </mxCell>
                <mxCell id="215" value="map_incremental()&lt;br&gt;根据最新估计的位姿，增量式添加点云到map" style="rounded=1;whiteSpace=wrap;html=1;" vertex="1" parent="1">
                    <mxGeometry x="1457.5" y="830" width="265" height="60" as="geometry"/>
                </mxCell>
                <mxCell id="218" value="" style="edgeStyle=none;html=1;" edge="1" parent="1" source="216" target="217">
                    <mxGeometry relative="1" as="geometry"/>
                </mxCell>
                <mxCell id="220" value="" style="edgeStyle=none;html=1;" edge="1" parent="1" source="216" target="219">
                    <mxGeometry relative="1" as="geometry"/>
                </mxCell>
                <mxCell id="216" value="计算每个点在world系坐标&lt;br&gt;以及所对应的体素的中心 mid_point" style="rounded=1;whiteSpace=wrap;html=1;" vertex="1" parent="1">
                    <mxGeometry x="1485" y="905" width="210" height="30" as="geometry"/>
                </mxCell>
                <mxCell id="222" value="" style="edgeStyle=none;html=1;entryX=0.5;entryY=0;entryDx=0;entryDy=0;" edge="1" parent="1" source="217" target="221">
                    <mxGeometry relative="1" as="geometry"/>
                </mxCell>
                <mxCell id="217" value="如果这个点的最近邻点不在这个体素，&lt;br&gt;则这个点不需要下采样插入。" style="rounded=1;whiteSpace=wrap;html=1;" vertex="1" parent="1">
                    <mxGeometry x="1340" y="965" width="210" height="75" as="geometry"/>
                </mxCell>
                <mxCell id="229" value="" style="edgeStyle=none;html=1;" edge="1" parent="1" source="219" target="228">
                    <mxGeometry relative="1" as="geometry"/>
                </mxCell>
                <mxCell id="219" value="如果这个点的最近邻点在这个体素，&lt;br&gt;则判断哪个点距离体素中心更近？&lt;br&gt;如果是旧的点，则不需要添加新点；&lt;br&gt;否则，则将采样方式添加。" style="rounded=1;whiteSpace=wrap;html=1;" vertex="1" parent="1">
                    <mxGeometry x="1620" y="965" width="230" height="75" as="geometry"/>
                </mxCell>
                <mxCell id="221" value="ikdtree.Add_Points(, false)&lt;br&gt;不下采样直接插入" style="rounded=1;whiteSpace=wrap;html=1;" vertex="1" parent="1">
                    <mxGeometry x="1340" y="1069" width="210" height="30" as="geometry"/>
                </mxCell>
                <mxCell id="228" value="ikdtree.Add_Points(, true)&lt;br&gt;下采样方式直接插入" style="rounded=1;whiteSpace=wrap;html=1;" vertex="1" parent="1">
                    <mxGeometry x="1630" y="1070" width="210" height="30" as="geometry"/>
                </mxCell>
                <mxCell id="241" value="" style="edgeStyle=none;html=1;" edge="1" parent="1" source="242" target="244">
                    <mxGeometry relative="1" as="geometry"/>
                </mxCell>
                <mxCell id="242" value="lasermap_fov_segment()" style="rounded=1;whiteSpace=wrap;html=1;" vertex="1" parent="1">
                    <mxGeometry x="1470" y="125" width="240" height="30" as="geometry"/>
                </mxCell>
                <mxCell id="243" value="" style="edgeStyle=none;html=1;" edge="1" parent="1" source="244" target="246">
                    <mxGeometry relative="1" as="geometry"/>
                </mxCell>
                <mxCell id="244" value="初始化local map" style="rounded=1;whiteSpace=wrap;html=1;" vertex="1" parent="1">
                    <mxGeometry x="1470" y="184" width="240" height="30" as="geometry"/>
                </mxCell>
                <mxCell id="245" value="" style="edgeStyle=none;html=1;entryX=0.5;entryY=0;entryDx=0;entryDy=0;" edge="1" parent="1" source="246" target="248">
                    <mxGeometry relative="1" as="geometry">
                        <mxPoint x="1590" y="305" as="targetPoint"/>
                    </mxGeometry>
                </mxCell>
                <mxCell id="246" value="判断到3个边界的距离，是否需要移动地图?" style="rounded=1;whiteSpace=wrap;html=1;" vertex="1" parent="1">
                    <mxGeometry x="1470" y="243" width="240" height="30" as="geometry"/>
                </mxCell>
                <mxCell id="247" value="" style="edgeStyle=none;html=1;" edge="1" parent="1" source="248" target="250">
                    <mxGeometry relative="1" as="geometry"/>
                </mxCell>
                <mxCell id="248" value="计算需要移动的距离，以及删除的cube" style="rounded=1;whiteSpace=wrap;html=1;" vertex="1" parent="1">
                    <mxGeometry x="1470" y="303" width="240" height="30" as="geometry"/>
                </mxCell>
                <mxCell id="249" value="" style="edgeStyle=none;html=1;" edge="1" parent="1" source="250" target="251">
                    <mxGeometry relative="1" as="geometry"/>
                </mxCell>
                <mxCell id="250" value="acquire_removed_points()&amp;nbsp; // TODO:(没用)" style="rounded=1;whiteSpace=wrap;html=1;" vertex="1" parent="1">
                    <mxGeometry x="1470" y="363" width="240" height="30" as="geometry"/>
                </mxCell>
                <mxCell id="251" value="如果发生局部地图变化，删除点&lt;br&gt;Delete_Point_Boxes()" style="rounded=1;whiteSpace=wrap;html=1;" vertex="1" parent="1">
                    <mxGeometry x="1470" y="425" width="240" height="30" as="geometry"/>
                </mxCell>
                <mxCell id="253" value="&lt;font style=&quot;font-size: 24px;&quot;&gt;ikdtree部分&lt;br&gt;&lt;/font&gt;" style="text;html=1;strokeColor=none;fillColor=none;align=center;verticalAlign=middle;whiteSpace=wrap;rounded=0;" vertex="1" parent="1">
                    <mxGeometry x="1445" y="22.5" width="290" height="65" as="geometry"/>
                </mxCell>
                <mxCell id="254" value="&lt;font style=&quot;font-size: 24px;&quot;&gt;ESKF部分&lt;br&gt;&lt;/font&gt;" style="text;html=1;strokeColor=none;fillColor=none;align=center;verticalAlign=middle;whiteSpace=wrap;rounded=0;" vertex="1" parent="1">
                    <mxGeometry x="520" y="220" width="290" height="65" as="geometry"/>
                </mxCell>
            </root>
        </mxGraphModel>
    </diagram>
</mxfile>